<svg width="121" height="121" viewBox="0 0 121 121" fill="none" xmlns="http://www.w3.org/2000/svg">
<g clip-path="url(#clip0_3581_1450)">
<path d="M60.7346 109.256C87.6065 109.256 109.391 87.4723 109.391 60.6003C109.391 33.7284 87.6065 11.9443 60.7346 11.9443C33.8626 11.9443 12.0786 33.7284 12.0786 60.6003C12.0786 87.4723 33.8626 109.256 60.7346 109.256Z" fill="white"/>
<path d="M60.4287 0.574219C48.5619 0.574219 36.9615 4.09316 27.0945 10.686C17.2276 17.2789 9.53722 26.6496 4.99597 37.6132C0.454708 48.5768 -0.733492 60.6408 1.58162 72.2796C3.89673 83.9185 9.61118 94.6095 18.0023 103.001C26.3935 111.392 37.0845 117.106 48.7233 119.421C60.3622 121.736 72.4262 120.548 83.3897 116.007C94.3533 111.466 103.724 103.775 110.317 93.9084C116.91 84.0415 120.429 72.4411 120.429 60.5742C120.41 44.6669 114.083 29.4164 102.835 18.1683C91.5865 6.92009 76.336 0.592737 60.4287 0.574219V0.574219ZM60.4287 106.055C51.4334 106.055 42.6401 103.388 35.1608 98.3903C27.6815 93.3928 21.8521 86.2896 18.4097 77.9791C14.9674 69.6685 14.0667 60.5238 15.8216 51.7013C17.5765 42.8788 21.9081 34.7749 28.2688 28.4143C34.6294 22.0536 42.7334 17.722 51.5558 15.9671C60.3783 14.2122 69.523 15.1129 77.8336 18.5552C86.1442 21.9976 93.2473 27.827 98.2449 35.3063C103.242 42.7856 105.91 51.5789 105.91 60.5742C105.898 72.633 101.103 84.1946 92.5759 92.7214C84.0491 101.248 72.4875 106.044 60.4287 106.055Z" fill="#00559A"/>
<path d="M100.137 45.4954L100.347 44.2009V43.991C100.292 44.105 100.231 44.216 100.163 44.3233L99.3936 45.5478L99.0525 44.3233C99.0168 44.215 98.9905 44.1038 98.9738 43.991V44.2009L98.7639 45.4954H98.519L98.8339 43.5537H99.1225L99.4374 44.7169C99.4374 44.8306 99.5073 44.9881 99.5248 45.0668C99.5248 44.9881 99.656 44.8306 99.7172 44.7169L100.426 43.5537H100.706L100.382 45.4954H100.137ZM97.8018 43.7461L97.5132 45.4954H97.2508L97.5394 43.7461H96.9097V43.5449H98.4228V43.7461H97.8018Z" fill="#00559A"/>
<path d="M26.2739 53.1224C26.8503 53.6313 27.5181 54.026 28.2419 54.2857C29.1857 54.6345 30.1495 54.9266 31.1282 55.1603C31.7492 55.309 32.2564 55.4489 32.6588 55.5801C32.9821 55.6896 33.2953 55.8271 33.5946 55.9912C33.7835 56.0917 33.9432 56.2394 34.0582 56.4198C34.1378 56.5699 34.1654 56.7421 34.1369 56.9096C34.1192 57.1139 34.0486 57.31 33.932 57.4787C33.8155 57.6474 33.657 57.7828 33.4722 57.8717C32.8284 58.091 32.1482 58.1831 31.4693 58.1428C31.0009 58.1401 30.5344 58.0844 30.0786 57.9766C29.5806 57.8708 29.0921 57.7246 28.618 57.5393C28.1524 57.3601 27.6969 57.1557 27.2535 56.9271C26.8629 56.723 26.4886 56.489 26.134 56.2274L22.9766 60.3906C24.0177 61.11 25.1619 61.6674 26.3701 62.0437C27.7825 62.4994 29.2593 62.7238 30.7433 62.7084C31.8261 62.7167 32.9062 62.5993 33.962 62.3585C34.8915 62.1432 35.7784 61.7736 36.5859 61.2653C37.3527 60.7694 38.0055 60.1166 38.5013 59.3498C39.0283 58.4981 39.3681 57.544 39.4984 56.551C39.6273 55.7776 39.5976 54.986 39.411 54.2244C39.2391 53.5772 38.8873 52.9919 38.3964 52.5364C38.1291 52.2897 37.8358 52.0726 37.5218 51.8892H25.3906C25.5937 52.3585 25.8949 52.779 26.2739 53.1224Z" fill="#00559A"/>
<path d="M30.4988 48.6792C30.5184 48.5062 30.5735 48.3392 30.6608 48.1887C30.7481 48.0382 30.8657 47.9073 31.0061 47.8045C31.5063 47.5341 32.0756 47.4184 32.6417 47.4722C33.5602 47.4628 34.4729 47.6199 35.3355 47.9357C35.9305 48.1601 36.4971 48.4537 37.0236 48.8103C37.3122 49.0028 37.6796 49.3089 37.6796 49.3089L38.0819 48.8103L40.872 45.1806C39.9341 44.4611 38.8814 43.9051 37.7583 43.5363C36.3938 43.1301 34.9746 42.9383 33.5513 42.9678C32.4771 42.9549 31.407 43.1023 30.3764 43.4051C29.4603 43.6658 28.5962 44.083 27.8224 44.6383C27.1019 45.1496 26.492 45.8011 26.0294 46.5538C25.5916 47.2598 25.2946 48.0439 25.1548 48.8628H30.4726L30.4988 48.6792Z" fill="#00559A"/>
<path d="M45.8662 62.6731H51.1752L52.6621 52.125H47.3531L45.8662 62.6731Z" fill="#00559A"/>
<path d="M53.2218 48.1459H58.5833L59.2306 43.519H43.1985L42.5513 48.1459H47.9128L47.7728 49.1167H53.0819L53.2218 48.1459Z" fill="#00559A"/>
<path d="M67.3995 49.0467C67.3995 49.0467 67.3995 49.0467 67.3995 49.1167H72.1487L70.9068 43.519H65.5278L62.7114 49.1167H67.3732L67.3995 49.0467Z" fill="#00559A"/>
<path d="M77.8779 62.6731H83.1257L84.0004 56.2183H86.1432L88.3473 62.6731H94.2948L91.4873 55.3699C92.581 54.9147 93.5475 54.2003 94.3036 53.2883C94.5861 52.929 94.8267 52.5387 95.0208 52.125H79.3648L77.8779 62.6731Z" fill="#00559A"/>
<path d="M85.1632 47.8044H88.3818C88.6982 47.7599 89.0205 47.7889 89.3238 47.889C89.6271 47.9891 89.9034 48.1576 90.1311 48.3816C90.2931 48.5847 90.4014 48.8254 90.446 49.0813H95.7638C95.8447 48.3267 95.7794 47.5634 95.5713 46.8335C95.3544 46.0845 94.9226 45.4155 94.3294 44.9093C93.6839 44.3841 92.9271 44.0131 92.1165 43.8248C91.1316 43.587 90.121 43.4724 89.1078 43.4837H80.5713L79.7842 49.0813H85.032L85.1632 47.8044Z" fill="#00559A"/>
<path d="M72.7963 52.1777H61.1899L55.8809 62.6734H61.5747L63.0879 59.341H68.8342L69.4027 62.6734H75.1491L72.7963 52.1777ZM68.1432 54.7317L68.4756 57.6092L66.4027 55.8599L63.6651 57.6092L65.152 54.8016L63.0354 53.1048H65.9129L66.324 52.1777H67.7759L67.9333 53.0524H70.8196L68.1432 54.7317Z" fill="#00559A"/>
<path d="M67.4083 49.9126L66.3237 52.1692H67.7756L67.4083 49.9126Z" fill="#00559A"/>
<path d="M10.1895 53.6036C10.6685 53.1503 10.9903 52.5558 11.1078 51.9068C11.239 51.2071 11.0029 50.6474 10.3557 50.5337C9.70843 50.42 9.33234 51.0759 8.97374 51.8106C8.61514 52.5453 8.0991 53.3675 7.01455 53.1751C6.77173 53.1358 6.54035 53.0441 6.33645 52.9065C6.13255 52.7689 5.96101 52.5886 5.83372 52.3781C5.70643 52.1676 5.62642 51.932 5.59925 51.6875C5.57208 51.443 5.59839 51.1955 5.67636 50.9622C5.77758 50.3616 6.03384 49.7978 6.4198 49.3267L7.24196 49.4753C6.80059 49.9226 6.49701 50.4873 6.36732 51.1022C6.25362 51.7669 6.46353 52.2829 7.06703 52.3966C7.81047 52.5278 8.05537 51.8544 8.38773 51.1634C8.72009 50.4724 9.26237 49.5541 10.4169 49.7552C10.6686 49.7952 10.9086 49.8896 11.1201 50.032C11.3315 50.1744 11.5092 50.3613 11.6409 50.5796C11.7725 50.7978 11.8549 51.0423 11.8821 51.2957C11.9094 51.5491 11.881 51.8055 11.7988 52.0468C11.6901 52.6727 11.422 53.2601 11.0204 53.7523L10.1895 53.6036Z" fill="white"/>
<path d="M7.58329 46.2129L7.03227 48.1633L6.34131 47.9709L7.64452 43.3091L8.33548 43.5015L7.7932 45.4519L12.9186 46.9301L12.7087 47.691L7.58329 46.2129Z" fill="white"/>
<path d="M8.50146 40.9997L8.7726 40.2912L15.2974 40.1338L14.9913 40.9297H13.172L12.2012 43.4662L13.5481 44.7431L13.2595 45.4953L8.50146 40.9997ZM11.6676 42.9938L12.4461 40.9647H11.0991C10.5831 40.9647 10.0233 40.9647 9.49855 40.9647C9.89505 41.3145 10.2974 41.6819 10.7055 42.0667L11.6676 42.9938Z" fill="white"/>
<path d="M10.2686 36.7756L11.0207 35.3237C11.2495 34.7874 11.6107 34.3179 12.0703 33.9593C12.3071 33.7922 12.5862 33.6954 12.8755 33.6799C13.1648 33.6645 13.4527 33.731 13.7059 33.8718C13.9563 34.0008 14.1687 34.1929 14.3221 34.4291C14.4755 34.6653 14.5646 34.9375 14.5805 35.2187C14.5973 35.4647 14.5645 35.7115 14.4843 35.9447L17.7379 35.4636L17.2919 36.3383L14.1432 36.7756L13.6709 37.6502L15.9712 38.8397L15.6038 39.5482L10.2686 36.7756ZM13.5922 36.452C13.8208 36.1025 13.9283 35.6877 13.8983 35.2712C13.8768 35.1278 13.82 34.9919 13.733 34.8759C13.646 34.7598 13.5315 34.6673 13.3998 34.6065C13.2457 34.5209 13.071 34.4797 12.895 34.4874C12.719 34.4952 12.5486 34.5515 12.4027 34.6502C12.062 34.9299 11.7973 35.2908 11.633 35.6998L11.2656 36.3995L13.1199 37.3616L13.5922 36.452Z" fill="white"/>
<path d="M14.353 29.6297L14.8078 28.9824L19.181 32.0786L20.8428 29.7608L21.4288 30.1719L19.3035 33.1457L14.353 29.6297Z" fill="white"/>
<path d="M17.3706 25.5624L19.6534 22.9385L20.1957 23.402L18.4464 25.4487L19.8283 26.6469L21.3764 24.8977L21.9012 25.3437L20.3531 27.093L21.9275 28.4487L23.738 26.3583L24.2802 26.8219L21.9449 29.507L17.3706 25.5624Z" fill="white"/>
<path d="M20.3267 22.1515L20.9389 21.5655L24.2013 23.1486C24.7086 23.3848 25.2071 23.6296 25.7407 23.9008C25.5045 23.3585 25.2858 22.8337 25.0584 22.3002L23.694 18.9416L24.2888 18.3818L26.7552 24.3643L26.1692 24.9241L20.3267 22.1515Z" fill="white"/>
<path d="M25.3032 17.612L28.0583 15.4429L28.5044 16.0114L26.3703 17.6557L27.4898 19.1163L29.3615 17.6644L29.7814 18.2155L27.9096 19.6586L29.1779 21.3029L31.3732 19.6149L31.8105 20.1834L28.9942 22.44L25.3032 17.612Z" fill="white"/>
<path d="M29.3965 14.5682L30.07 14.1396L32.9213 18.6353L35.3265 17.1047L35.7114 17.7082L32.6326 19.6586L29.3965 14.5682Z" fill="white"/>
<path d="M38.2915 9.60049C38.6639 9.43418 39.0659 9.34441 39.4737 9.33651C39.8814 9.3286 40.2866 9.40273 40.6652 9.55448C41.0437 9.70622 41.3879 9.9325 41.6773 10.2199C41.9667 10.5072 42.1954 10.8498 42.3498 11.2273C42.5839 11.7855 42.6477 12.4005 42.5333 12.9949C42.4189 13.5894 42.1312 14.1367 41.7066 14.5681C41.282 14.9995 40.7393 15.2957 40.1467 15.4196C39.5542 15.5434 38.9383 15.4893 38.3764 15.2641C37.8146 15.0388 37.3318 14.6525 36.9889 14.1537C36.646 13.6549 36.4581 13.0658 36.4491 12.4605C36.44 11.8553 36.6101 11.2608 36.9379 10.752C37.2657 10.2431 37.7367 9.84246 38.2915 9.60049ZM40.4781 14.6296C40.7599 14.508 41.0142 14.3306 41.2256 14.1081C41.437 13.8856 41.6012 13.6226 41.7083 13.3349C41.8153 13.0472 41.863 12.7409 41.8485 12.4343C41.834 12.1277 41.7576 11.8272 41.6239 11.5509C41.5187 11.2569 41.3543 10.9876 41.1408 10.7597C40.9273 10.5317 40.6694 10.35 40.3829 10.2257C40.0964 10.1015 39.7875 10.0373 39.4752 10.0372C39.1629 10.0371 38.8539 10.1011 38.5674 10.2252C38.2808 10.3493 38.0228 10.5309 37.8092 10.7587C37.5956 10.9865 37.431 11.2557 37.3256 11.5497C37.2203 11.8437 37.1763 12.1561 37.1965 12.4677C37.2167 12.7794 37.3007 13.0835 37.4431 13.3614C37.5543 13.6477 37.7221 13.9086 37.9365 14.1285C38.1509 14.3483 38.4075 14.5227 38.6908 14.6411C38.9742 14.7595 39.2785 14.8195 39.5856 14.8176C39.8927 14.8156 40.1963 14.7517 40.4781 14.6296Z" fill="white"/>
<path d="M44.449 13.6939L42.7959 7.89506L43.5218 7.6939L46.8717 10.1954C47.3382 10.5452 47.8017 10.9038 48.2624 11.2712C48.1049 10.7726 47.93 10.1866 47.7726 9.6181L46.9592 6.69681L47.6589 6.50439L49.3119 12.3207L48.5947 12.5306L45.2361 9.98544C44.7813 9.64434 44.309 9.27699 43.8542 8.91839L44.344 10.5715L45.2186 13.4927L44.449 13.6939Z" fill="white"/>
<path d="M49.6182 6.12804L53.0555 5.55078L53.1779 6.25924L50.554 6.7053L50.8514 8.5158L53.1867 8.13096L53.3004 8.81317L50.9738 9.19801L51.315 11.2534L54.0438 10.7986L54.1663 11.4983L50.6677 12.0931L49.6182 6.12804Z" fill="white"/>
<path d="M54.805 7.78143C54.7952 7.67485 54.8172 7.56774 54.8681 7.47361C54.9191 7.37948 54.9967 7.30253 55.0913 7.25246C55.1859 7.20238 55.2932 7.18142 55.3997 7.19222C55.5062 7.20302 55.6071 7.24509 55.6897 7.31313C55.7724 7.38117 55.833 7.47215 55.864 7.57459C55.895 7.67703 55.895 7.78636 55.864 7.88881C55.833 7.99126 55.7724 8.08224 55.6898 8.15029C55.6072 8.21834 55.5063 8.26042 55.3998 8.27123C55.3285 8.27846 55.2565 8.2715 55.1879 8.25075C55.1194 8.23 55.0556 8.19587 55.0003 8.15033C54.945 8.10478 54.8993 8.04874 54.8657 7.98542C54.8322 7.9221 54.8116 7.85277 54.805 7.78143ZM55.5922 10.4053C55.6635 10.3981 55.7355 10.4051 55.804 10.4258C55.8726 10.4466 55.9364 10.4807 55.9917 10.5262C56.047 10.5718 56.0927 10.6278 56.1262 10.6912C56.1597 10.7545 56.1804 10.8238 56.1869 10.8951C56.2009 11.039 56.1571 11.1824 56.0652 11.294C55.9734 11.4055 55.841 11.476 55.6971 11.4899C55.5533 11.5038 55.4099 11.46 55.2983 11.3682C55.1868 11.2763 55.1163 11.1439 55.1024 11.0001C55.0914 10.9268 55.0955 10.852 55.1145 10.7804C55.1335 10.7087 55.167 10.6418 55.2129 10.5836C55.2588 10.5254 55.3161 10.4772 55.3813 10.442C55.4466 10.4069 55.5183 10.3854 55.5922 10.3791V10.4053Z" fill="white"/>
<path d="M59.4579 9.8716C59.9835 10.2689 60.6186 10.4949 61.2771 10.5188C61.9943 10.5188 62.5016 10.2127 62.5191 9.54798C62.5366 8.88326 61.8194 8.67335 61.0322 8.39346C60.2451 8.11358 59.3617 7.77247 59.3792 6.64419C59.3967 5.51591 60.1838 4.97364 61.3646 4.99113C61.9804 4.99064 62.5849 5.15687 63.1139 5.47218V6.34682C62.6 5.9859 61.9922 5.78229 61.3646 5.76081C60.6911 5.76081 60.2101 6.03195 60.2013 6.63545C60.2013 7.38763 60.8923 7.51008 61.6182 7.74623C62.4929 8.00863 63.3675 8.36723 63.3675 9.49551C63.3675 10.6238 62.5366 11.2448 61.3209 11.2448C60.6849 11.2269 60.0631 11.0527 59.5104 10.7375L59.4579 9.8716Z" fill="white"/>
<path d="M64.8983 5.25342L68.3969 5.62951L68.3182 6.34671L65.633 6.04934L65.4319 7.87732L67.7846 8.13971L67.7059 8.82193L65.3619 8.56829L65.152 10.6324L67.9071 10.9385L67.8284 11.647L64.2773 11.2622L64.8983 5.25342Z" fill="white"/>
<path d="M69.9712 5.89209L70.7496 6.04952L69.6825 11.2973L72.4814 11.8659L72.3414 12.5743L68.7642 11.8396L69.9712 5.89209Z" fill="white"/>
<path d="M74.9211 6.98535L78.341 8.01742L78.1398 8.70838L75.5159 7.90372L74.9561 9.77544L77.3002 10.4839L77.099 11.1399L74.755 10.4402L73.8978 13.0028L73.1719 12.8192L74.9211 6.98535Z" fill="white"/>
<path d="M78.595 10.9912L80.4492 11.7172L80.2043 12.3381L78.3501 11.6209L78.595 10.9912Z" fill="white"/>
<path d="M84.2887 10.4751L84.9709 10.8075L84.5861 17.3322L83.8164 16.9649L83.9476 15.1544L81.4986 13.9649L80.1429 15.1806L79.417 14.8308L84.2887 10.4751ZM82.0496 13.4576L84.0001 14.411L84.105 13.064C84.105 12.548 84.1838 11.9882 84.2362 11.4722L83.0467 12.583L82.0496 13.4576Z" fill="white"/>
<path d="M85.6443 16.5627C85.8915 17.1762 86.3183 17.7006 86.8688 18.0671C87.4811 18.4432 88.0846 18.4344 88.4344 17.8747C88.7843 17.3149 88.312 16.7289 87.761 16.1254C87.2099 15.5219 86.6502 14.7347 87.2362 13.7989C87.3642 13.5899 87.5362 13.4113 87.7402 13.2755C87.9443 13.1397 88.1754 13.05 88.4176 13.0125C88.6598 12.9751 88.9073 12.9908 89.1428 13.0586C89.3783 13.1264 89.5962 13.2447 89.7814 13.4053C90.3016 13.7178 90.7277 14.165 91.0146 14.6998L90.5773 15.4082C90.3247 14.8364 89.9115 14.3502 89.3878 14.0088C88.8105 13.6502 88.2508 13.6502 87.9271 14.175C87.6035 14.6998 88.0583 15.2858 88.5656 15.8543C89.0729 16.4228 89.7376 17.2887 89.1254 18.2595C88.9935 18.4748 88.8166 18.659 88.6068 18.7995C88.397 18.9399 88.1593 19.0333 87.91 19.0732C87.6607 19.1131 87.4058 19.0985 87.1626 19.0305C86.9195 18.9626 86.6939 18.8428 86.5015 18.6793C85.9587 18.3449 85.5125 17.8746 85.207 17.3149L85.6443 16.5627Z" fill="white"/>
<path d="M89.6416 19.125C89.8385 19.7481 90.2235 20.295 90.7436 20.6906C91.3121 21.1279 91.9156 21.1717 92.318 20.6469C92.7203 20.1221 92.318 19.5011 91.8107 18.8364C91.3034 18.1717 90.8311 17.3495 91.5045 16.4749C91.6522 16.2797 91.8403 16.1188 92.056 16.0031C92.2717 15.8875 92.5098 15.8199 92.7541 15.8049C92.9983 15.79 93.2429 15.828 93.4711 15.9165C93.6993 16.005 93.9056 16.1417 94.076 16.3174C94.5623 16.6838 94.9426 17.1728 95.178 17.7343L94.6795 18.3903C94.4778 17.798 94.1106 17.2759 93.6212 16.8859C93.0876 16.4749 92.5279 16.4224 92.1518 16.8859C91.7757 17.3495 92.1518 18.0055 92.6416 18.6352C93.1314 19.265 93.6649 20.1658 92.9652 21.0842C92.8132 21.2812 92.6208 21.4435 92.4011 21.5603C92.1813 21.6771 91.9392 21.7456 91.6909 21.7613C91.4425 21.777 91.1937 21.7396 90.9609 21.6515C90.7282 21.5634 90.5169 21.4266 90.3413 21.2504C89.8235 20.8826 89.4081 20.389 89.1343 19.816L89.6416 19.125Z" fill="white"/>
<path d="M96.7787 18.644L99.3413 20.9968L98.8603 21.5303L96.8749 19.7024L95.6329 21.058L97.3822 22.6499L96.9099 23.1659L95.1606 21.5653L93.7524 23.0959L95.7641 24.9677L95.2743 25.4924L92.6504 23.0872L96.7787 18.644Z" fill="white"/>
<path d="M96.8224 25.2476C96.8918 25.8946 97.1573 26.505 97.5833 26.9969C98.0644 27.5304 98.6504 27.6878 99.1402 27.2418C99.63 26.7957 99.3413 26.1135 98.974 25.3701C98.6066 24.6266 98.2918 23.7257 99.1052 22.9911C99.2897 22.8331 99.5051 22.7154 99.7377 22.6453C99.9702 22.5751 100.215 22.5542 100.456 22.5839C100.697 22.6135 100.929 22.693 101.138 22.8173C101.347 22.9416 101.527 23.108 101.668 23.3059C102.1 23.7464 102.402 24.2971 102.542 24.8978L101.922 25.4575C101.837 24.8382 101.572 24.2573 101.161 23.787C100.706 23.2797 100.172 23.1222 99.7174 23.5421C99.2626 23.9619 99.5337 24.6441 99.8748 25.2913C100.277 26.1135 100.592 26.9881 99.7437 27.7666C99.5575 27.9345 99.3374 28.0605 99.0983 28.1359C98.8592 28.2114 98.6067 28.2345 98.3578 28.2038C98.109 28.1731 97.8696 28.0893 97.656 27.958C97.4424 27.8268 97.2595 27.6511 97.1198 27.4429C96.6951 26.9666 96.3946 26.3928 96.2451 25.7724L96.8224 25.2476Z" fill="white"/>
<path d="M99.9711 28.8163C99.9763 29.4723 100.184 30.1108 100.566 30.6443C100.994 31.2215 101.563 31.4314 102.088 31.0378C102.613 30.6443 102.394 29.9271 102.088 29.1574C101.782 28.3877 101.554 27.4606 102.438 26.8046C102.632 26.6553 102.858 26.5503 103.097 26.4969C103.337 26.4436 103.585 26.4431 103.825 26.4955C104.065 26.548 104.29 26.6521 104.486 26.8007C104.681 26.9492 104.842 27.1386 104.957 27.3556C105.327 27.8393 105.563 28.4128 105.639 29.0174L104.965 29.516C104.942 28.8874 104.735 28.2794 104.371 27.7667C103.959 27.2244 103.443 27.0233 102.945 27.3906C102.446 27.758 102.665 28.4752 102.945 29.1924C103.269 30.067 103.505 30.9416 102.586 31.6326C102.384 31.7899 102.15 31.9009 101.9 31.9578C101.651 32.0146 101.392 32.016 101.141 31.9618C100.891 31.9076 100.656 31.7991 100.452 31.644C100.248 31.4888 100.081 31.2909 99.9624 31.0641C99.5782 30.5534 99.3367 29.9496 99.2627 29.3148L99.9711 28.8163Z" fill="white"/>
<path d="M105.674 32.9884C105.875 32.5511 106.085 32.1138 106.303 31.6852C105.997 31.8776 105.604 32.1138 105.175 32.3587L102.228 34.108L101.843 33.4432L107.091 30.417L107.467 31.0817L105.884 34.4753L109.618 34.7989L109.994 35.4549L104.747 38.4811L104.344 37.7902L107.301 36.0934C107.72 35.8397 108.123 35.6211 108.438 35.4461C107.956 35.4461 107.475 35.3849 107.003 35.3412L104.703 35.14L105.674 32.9884Z" fill="white"/>
<path d="M110.79 37.2124L112.172 40.4223L111.507 40.7022L110.44 38.227L108.752 38.9529L109.688 41.122L109.05 41.3932L108.123 39.2241L106.207 40.0462L107.3 42.5564L106.644 42.8451L105.236 39.5652L110.79 37.2124Z" fill="white"/>
<path d="M107.003 43.7634L112.776 42.0142L112.994 42.7314L110.528 46.1249C110.187 46.5973 109.837 47.0696 109.478 47.5331C109.977 47.3757 110.554 47.1833 111.114 47.0171L114.018 46.1424L114.245 46.8771L108.464 48.6264L108.245 47.9092L110.72 44.5156C111.052 44.0433 111.411 43.571 111.761 43.1075C111.262 43.2736 110.676 43.4573 110.125 43.6235L107.213 44.4981L107.003 43.7634Z" fill="white"/>
<path d="M114.245 50.4286L113.886 48.4345L114.595 48.312L115.469 53.0788L114.77 53.21L114.402 51.2158L109.155 52.1604L109.015 51.3732L114.245 50.4286Z" fill="white"/>
<path d="M6.31508 69.6705C6.03599 70.2679 5.95037 70.9375 6.07019 71.5859C6.21013 72.2944 6.62995 72.723 7.27718 72.5918C7.92441 72.4606 8.02937 71.7171 8.09059 70.895C8.15182 70.0728 8.34424 69.1457 9.42004 68.9183C10.4958 68.6909 11.2305 69.3469 11.4579 70.5014C11.582 71.0827 11.5488 71.6865 11.3617 72.2507L10.5483 72.4168C10.786 71.8386 10.8557 71.205 10.7495 70.5889C10.6095 69.9241 10.2335 69.5218 9.62995 69.6442C9.02645 69.7667 8.90401 70.5189 8.85153 71.2623C8.77281 72.137 8.60663 73.0903 7.47835 73.3177C7.23001 73.3714 6.97297 73.3703 6.7251 73.3145C6.47722 73.2587 6.24448 73.1496 6.04304 72.9948C5.84159 72.84 5.6763 72.6431 5.55864 72.418C5.44098 72.1928 5.37379 71.9447 5.36173 71.6909C5.23023 71.0658 5.26645 70.417 5.46669 69.8104L6.31508 69.6705Z" fill="white"/>
<path d="M11.9914 73.3525L12.9885 76.6674L12.3063 76.8773L11.5366 74.2534L9.78731 74.7782L10.4695 77.0435L9.8048 77.2447L9.13133 74.9794L7.13716 75.5741L7.93308 78.198L7.24212 78.3992L6.22754 74.9881L11.9914 73.3525Z" fill="white"/>
<path d="M14.4229 80.1663C14.6503 80.7196 14.7374 81.3205 14.6765 81.9156L13.8719 82.2479C14.019 81.6485 13.9731 81.0179 13.7407 80.4462C13.6272 80.1546 13.4554 79.8892 13.2359 79.6663C13.0163 79.4434 12.7536 79.2676 12.4638 79.1497C12.174 79.0318 11.8631 78.9743 11.5503 78.9807C11.2375 78.987 10.9293 79.0571 10.6445 79.1867C10.3477 79.299 10.0773 79.4714 9.85013 79.6929C9.62294 79.9144 9.44385 80.1804 9.32403 80.4742C9.2042 80.768 9.14622 81.0833 9.1537 81.4006C9.16118 81.7178 9.23396 82.0301 9.3675 82.3179C9.61424 82.8992 10.0568 83.3758 10.6182 83.6648L9.80482 84.0059C9.31067 83.6255 8.92965 83.1175 8.70278 82.5365C8.52598 82.1596 8.42862 81.7503 8.41676 81.3342C8.4049 80.918 8.47879 80.5038 8.63384 80.1175C8.78889 79.7311 9.02178 79.3807 9.31802 79.0882C9.61426 78.7956 9.96753 78.5672 10.3558 78.417C10.7365 78.2538 11.1464 78.1697 11.5606 78.1699C11.9747 78.1701 12.3845 78.2546 12.765 78.4183C13.1455 78.5819 13.4887 78.8213 13.7737 79.1218C14.0587 79.4223 14.2796 79.7777 14.4229 80.1663Z" fill="white"/>
<path d="M12.6036 84.1458L15.3937 82.5977L15.7785 83.2886L13.0584 84.793C12.5671 85.0074 12.135 85.3375 11.7989 85.7551C11.6519 85.9984 11.5786 86.2791 11.5879 86.5632C11.5972 86.8472 11.6888 87.1225 11.8514 87.3557C11.9641 87.613 12.1486 87.8324 12.3829 87.9876C12.6171 88.1427 12.8911 88.227 13.1721 88.2303C13.6901 88.1698 14.1855 87.9837 14.6152 87.688L17.3703 86.1749L17.7377 86.8484L15.0263 88.344C14.4308 88.7541 13.7288 88.982 13.0059 89C12.6175 88.9461 12.2486 88.7964 11.9325 88.5643C11.6164 88.3322 11.3631 88.025 11.1954 87.6705C10.9832 87.3422 10.8575 86.9656 10.83 86.5756C10.8024 86.1857 10.874 85.7951 11.038 85.4402C11.4267 84.8692 11.9696 84.4203 12.6036 84.1458Z" fill="white"/>
<path d="M18.3587 87.7754L19.3033 89.1136C19.6752 89.5581 19.9253 90.0915 20.0293 90.6617C20.0725 90.9484 20.0329 91.2415 19.9151 91.5065C19.7973 91.7714 19.6063 91.9972 19.3646 92.1573C19.1369 92.3283 18.8677 92.4355 18.5848 92.4678C18.302 92.5 18.0156 92.4563 17.7552 92.341C17.5266 92.2454 17.3209 92.1023 17.1517 91.9212L16.0934 95.0349L15.5337 94.2564L16.5832 91.2564L15.9972 90.3818L13.8806 91.8774L13.4258 91.2302L18.3587 87.7754ZM17.1167 90.8803C17.3131 91.2365 17.6202 91.5189 17.9914 91.685C18.1292 91.732 18.2766 91.7438 18.4202 91.7193C18.5638 91.6949 18.699 91.635 18.8135 91.5451C18.9568 91.4516 19.0716 91.3206 19.1456 91.1664C19.2196 91.0122 19.25 90.8407 19.2334 90.6704C19.1403 90.2365 18.9387 89.8332 18.6474 89.4984L18.1925 88.8512L16.4433 90.0582L17.1167 90.8803Z" fill="white"/>
<path d="M21.4899 92.0352L21.9972 92.6474L17.3267 96.4783L16.8281 95.8661L21.4899 92.0352Z" fill="white"/>
<path d="M23.3181 95.2272L21.9187 93.7491L22.4435 93.2593L25.7933 96.7841L25.2773 97.2826L23.8779 95.8045L20.012 99.4692L19.4697 98.8919L23.3181 95.2272Z" fill="white"/>
<path d="M25.4871 100.912L25.8632 96.8804L26.5629 97.4839L26.388 99.2331C26.3355 99.688 26.2918 100.108 26.2305 100.615L27.5775 100.248L29.3268 99.7929L30.0002 100.37L26.0994 101.376L24.3501 103.458L23.7466 102.942L25.4871 100.912Z" fill="white"/>
<path d="M32.6417 103.073L30.9361 101.971L31.3297 101.367L35.4055 103.991L35.0207 104.595L33.3151 103.493L30.4201 107.971L29.7554 107.542L32.6417 103.073Z" fill="white"/>
<path d="M36.0001 104.315L37.4608 105.058C37.9977 105.278 38.468 105.634 38.8252 106.09C38.9945 106.325 39.0927 106.603 39.1082 106.891C39.1237 107.179 39.0558 107.466 38.9127 107.717C38.7887 107.968 38.6003 108.181 38.3666 108.335C38.1329 108.489 37.8625 108.577 37.5832 108.592C37.335 108.611 37.0854 108.581 36.8485 108.504L37.3733 111.758L36.4987 111.321L36.0264 108.172L35.108 107.709L33.936 110.018L33.2275 109.659L36.0001 104.315ZM36.35 107.639C36.6991 107.867 37.1158 107.968 37.5307 107.927C37.6751 107.905 37.8115 107.847 37.9277 107.758C38.0438 107.67 38.1358 107.553 38.1955 107.42C38.28 107.267 38.3198 107.093 38.3106 106.918C38.3013 106.744 38.2432 106.575 38.143 106.432C37.8574 106.092 37.4903 105.83 37.0759 105.671L36.385 105.312L35.4141 107.175L36.35 107.639Z" fill="white"/>
<path d="M39.4726 109.606L40.5921 106.606L41.3355 106.886L40.251 109.808C40.0229 110.288 39.9091 110.815 39.9186 111.347C39.9673 111.628 40.0965 111.89 40.2905 112.099C40.4845 112.309 40.7351 112.458 41.0119 112.528C41.265 112.655 41.5496 112.705 41.8309 112.673C42.1122 112.64 42.3778 112.526 42.595 112.344C42.9478 111.962 43.2028 111.499 43.3384 110.997L44.4405 108.05L45.1664 108.312L44.0731 111.225C43.8912 111.923 43.508 112.553 42.9711 113.035C42.6372 113.235 42.2632 113.358 41.8759 113.395C41.4887 113.432 41.0981 113.383 40.7322 113.251C40.3664 113.118 40.0346 112.906 39.7607 112.63C39.4869 112.354 39.2779 112.02 39.1489 111.653C39.0597 110.954 39.1719 110.244 39.4726 109.606Z" fill="white"/>
<path d="M44.869 113.21C45.2776 113.728 45.8416 114.102 46.4783 114.277C47.178 114.46 47.7466 114.277 47.9127 113.629C48.0789 112.982 47.4579 112.527 46.7845 112.151C46.111 111.775 45.3063 111.154 45.5862 110.087C45.6459 109.85 45.7566 109.628 45.9105 109.437C46.0644 109.247 46.2579 109.092 46.4776 108.984C46.6973 108.876 46.9379 108.817 47.1827 108.811C47.4275 108.805 47.6706 108.853 47.8952 108.95C48.4882 109.09 49.0304 109.393 49.4608 109.825L49.2509 110.629C48.8328 110.148 48.2773 109.806 47.6591 109.65C47.0031 109.475 46.4696 109.65 46.3122 110.236C46.1197 110.962 46.767 111.259 47.4317 111.644C48.0964 112.029 48.9623 112.667 48.6737 113.778C48.613 114.024 48.4994 114.255 48.3408 114.453C48.1822 114.651 47.9823 114.812 47.7551 114.925C47.528 115.039 47.2789 115.101 47.0252 115.108C46.7714 115.116 46.5192 115.068 46.2859 114.968C45.673 114.819 45.1075 114.518 44.6416 114.093L44.869 113.21Z" fill="white"/>
<path d="M52.0322 110.647L50.0293 110.332L50.143 109.624L54.936 110.384L54.8223 111.093L52.7931 110.778L51.9185 116.026L51.1401 115.903L52.0322 110.647Z" fill="white"/>
<path d="M59.414 110.621H60.175L62.5715 116.744H61.6968L61.0496 115.047L58.3295 115.003L57.621 116.674H56.8076L59.414 110.621ZM58.6444 114.277H60.7785L60.3062 113.018C60.1137 112.537 59.9301 112.012 59.7464 111.513C59.554 112.003 59.3441 112.51 59.1254 113.026L58.6444 114.277Z" fill="white"/>
<path d="M63.4813 115.361C64.0407 115.709 64.6966 115.868 65.353 115.816C66.0702 115.755 66.5513 115.388 66.4901 114.732C66.4288 114.076 65.7029 113.857 64.8895 113.735C64.0761 113.612 63.1402 113.289 63.0702 112.195C63.0003 111.102 63.7 110.446 64.872 110.341C65.4711 110.284 66.0746 110.387 66.6212 110.638L66.6912 111.513C66.1577 111.217 65.5513 111.077 64.9419 111.111C64.2685 111.172 63.8224 111.504 63.8749 112.116C63.9449 112.869 64.6533 112.93 65.4055 113.07C66.2801 113.245 67.1548 113.516 67.2947 114.662C67.4347 115.807 66.6387 116.481 65.4317 116.586C64.7969 116.641 64.1585 116.533 63.5775 116.271L63.4813 115.361Z" fill="white"/>
<path d="M68.4405 114.872C69.0315 115.161 69.698 115.259 70.3472 115.151C71.0556 115.02 71.5017 114.618 71.3793 113.962C71.2568 113.306 70.5046 113.192 69.7 113.087C68.8953 112.982 67.9507 112.807 67.7495 111.723C67.5484 110.638 68.2131 109.974 69.3763 109.72C69.9607 109.608 70.5645 109.653 71.1256 109.851L71.2743 110.673C70.7043 110.417 70.0715 110.335 69.4551 110.437C68.7816 110.551 68.3705 110.927 68.4755 111.53C68.6154 112.274 69.3501 112.274 70.0848 112.344C70.9594 112.431 71.904 112.624 72.1139 113.761C72.3239 114.898 71.6242 115.624 70.4346 115.842C69.8083 115.955 69.1637 115.903 68.5629 115.694L68.4405 114.872Z" fill="white"/>
<path d="M73.0236 112.388L72.1489 109.318L72.9099 109.099L73.7845 112.081C73.8937 112.604 74.1211 113.095 74.4492 113.516C74.6578 113.71 74.9173 113.842 75.1976 113.894C75.4779 113.947 75.7674 113.919 76.0323 113.813C76.3098 113.762 76.5665 113.631 76.7714 113.437C76.9763 113.243 77.1206 112.994 77.1868 112.72C77.2404 112.2 77.1684 111.675 76.9769 111.189L76.1023 108.172L76.837 107.953L77.7116 110.936C77.9801 111.604 78.05 112.336 77.9128 113.044C77.7546 113.397 77.5215 113.712 77.2297 113.967C76.9378 114.222 76.5942 114.41 76.2224 114.519C75.8507 114.628 75.4598 114.655 75.0766 114.598C74.6934 114.541 74.3272 114.402 74.0032 114.189C73.5122 113.694 73.1724 113.069 73.0236 112.388Z" fill="white"/>
<path d="M77.834 107.559L79.3471 106.93C79.8637 106.667 80.4386 106.541 81.0177 106.562C81.307 106.584 81.5842 106.687 81.8166 106.861C82.049 107.034 82.227 107.271 82.3296 107.542C82.4474 107.801 82.494 108.086 82.4648 108.369C82.4356 108.652 82.3316 108.922 82.1634 109.151C82.0133 109.348 81.8298 109.517 81.6212 109.65L84.4287 111.399L83.5541 111.766L80.8515 110.096L79.9069 110.49L80.8952 112.834L80.1605 113.14L77.834 107.559ZM80.5978 109.449C80.9958 109.327 81.3429 109.078 81.5862 108.74C81.6629 108.607 81.7033 108.456 81.7033 108.303C81.7033 108.149 81.6629 107.999 81.5862 107.866C81.532 107.698 81.4288 107.551 81.29 107.444C81.1511 107.336 80.9831 107.273 80.8077 107.262C80.3627 107.26 79.924 107.368 79.5308 107.577L78.8048 107.874L79.6095 109.799L80.5978 109.449Z" fill="white"/>
<path d="M84.2627 104.656L84.9274 104.289L90.0353 108.364L89.2831 108.775L87.8837 107.63L85.5047 108.942L85.7146 110.752L85.0061 111.137L84.2627 104.656ZM85.4085 108.154L87.3064 107.105L86.2744 106.23C85.872 105.898 85.3997 105.539 85.0499 105.198C85.1286 105.723 85.1986 106.265 85.2598 106.816L85.4085 108.154Z" fill="white"/>
<path d="M91.0586 107.647L87.5601 102.74L88.1723 102.303L92.1781 103.554C92.7379 103.72 93.2977 103.904 93.8487 104.087C93.5426 103.668 93.1752 103.213 92.8341 102.697L91.0848 100.23L91.7146 99.7842L95.2131 104.691L94.6009 105.128L90.5863 103.886C90.0353 103.711 89.4755 103.536 88.9157 103.344C89.2306 103.764 89.598 104.219 89.9391 104.735L91.6883 107.201L91.0586 107.647Z" fill="white"/>
<path d="M94.5744 97.0643C95.0089 96.6614 95.5386 96.3755 96.1138 96.2334L96.6998 96.8719C96.0911 96.9393 95.5189 97.1963 95.0642 97.6066C94.6003 98.0369 94.3263 98.6338 94.3025 99.2662C94.2787 99.8985 94.5071 100.514 94.9374 100.978C95.3677 101.442 95.9647 101.716 96.597 101.74C97.2293 101.764 97.8452 101.535 98.3091 101.105C98.7864 100.689 99.097 100.114 99.1838 99.487L99.7785 100.134C99.5913 100.73 99.2433 101.263 98.7727 101.674C98.4718 101.949 98.1195 102.163 97.736 102.302C97.3525 102.442 96.9452 102.505 96.5375 102.487C95.7141 102.451 94.9387 102.089 94.382 101.481C93.8253 100.873 93.5328 100.069 93.5689 99.246C93.605 98.4226 93.9667 97.6473 94.5744 97.0905V97.0643Z" fill="white"/>
<path d="M96.5688 95.245L98.9041 92.6211L99.4377 93.1021L97.6359 95.1051L99.0003 96.3296L100.575 94.5803L101.091 95.0438L99.5164 96.7931L101.064 98.1838L102.91 96.1284L103.443 96.6007L101.064 99.2246L96.5688 95.245Z" fill="white"/>
<path d="M105.385 87.8276L106.828 89.6644L108.735 89.297L108.21 90.0842L107.213 90.2766C107.323 90.6024 107.351 90.9505 107.292 91.2895C107.234 91.6284 107.093 91.9476 106.881 92.2183C106.679 92.5535 106.371 92.8114 106.005 92.9507C105.64 93.0901 105.238 93.1029 104.864 92.987C104.491 92.8712 104.167 92.6334 103.944 92.3117C103.721 91.9901 103.613 91.603 103.636 91.2125V90.9851H103.374C103.142 91.0495 102.9 91.0657 102.663 91.0326C102.425 90.9995 102.197 90.9178 101.992 90.7927C101.662 90.557 101.438 90.2015 101.368 89.8025C101.297 89.4036 101.386 88.9929 101.615 88.6587C101.844 88.3244 102.195 88.0933 102.592 88.0148C102.99 87.9362 103.402 88.0166 103.741 88.2387C103.962 88.401 104.137 88.6174 104.251 88.867C104.364 89.1166 104.411 89.3912 104.388 89.6644V90.0754L106.041 89.7606L104.957 88.4049L105.385 87.8276ZM103.339 90.3378L103.706 90.2679V89.7868C103.721 89.6204 103.694 89.4529 103.626 89.2999C103.559 89.1469 103.454 89.0135 103.321 88.9122C103.236 88.8544 103.141 88.815 103.04 88.7965C102.939 88.7779 102.835 88.7807 102.736 88.8046C102.636 88.8285 102.543 88.873 102.461 88.9352C102.38 88.9974 102.312 89.076 102.263 89.1658C102.202 89.2449 102.158 89.3357 102.133 89.4325C102.109 89.5294 102.105 89.6302 102.121 89.7288C102.138 89.8273 102.174 89.9213 102.229 90.0051C102.283 90.0888 102.354 90.1604 102.438 90.2154C102.567 90.2924 102.71 90.3429 102.858 90.3639C103.007 90.3849 103.158 90.3761 103.304 90.3378H103.339ZM106.461 90.4515L104.336 90.8626V91.23C104.256 91.4991 104.286 91.7889 104.42 92.0358C104.553 92.2826 104.779 92.4663 105.049 92.5463C105.318 92.6263 105.607 92.5962 105.854 92.4625C106.101 92.3288 106.285 92.1025 106.365 91.8335C106.506 91.6329 106.586 91.3963 106.597 91.1514C106.608 90.9066 106.549 90.6638 106.426 90.4515H106.461Z" fill="white"/>
<path d="M104.816 83.822L105.516 82.3439C105.722 81.8018 106.066 81.3226 106.513 80.9532C106.742 80.7763 107.017 80.6684 107.305 80.6421C107.593 80.6157 107.883 80.6721 108.14 80.8045C108.4 80.9177 108.626 81.0981 108.793 81.3271C108.961 81.5561 109.064 81.8255 109.093 82.1077C109.118 82.3548 109.095 82.6044 109.023 82.8424L112.26 82.2389L111.848 83.1135L108.717 83.6646L108.28 84.6004L110.633 85.6937L110.292 86.4109L104.816 83.822ZM108.131 83.3847C108.343 83.0263 108.432 82.6087 108.385 82.1952C108.358 82.0521 108.296 81.9181 108.205 81.805C108.113 81.692 107.995 81.6037 107.86 81.5479C107.705 81.4651 107.53 81.4285 107.354 81.4425C107.179 81.4564 107.012 81.5203 106.872 81.6267C106.541 81.9217 106.288 82.2944 106.137 82.7112L105.805 83.4197L107.685 84.2943L108.131 83.3847Z" fill="white"/>
<path d="M106.985 79.0115L107.265 78.2681L112.898 80.4547L112.618 81.1981L106.985 79.0115Z" fill="white"/>
<path d="M112.251 78.6703C112.781 78.281 113.178 77.7372 113.388 77.1135C113.598 76.4313 113.44 75.8453 112.81 75.6441C112.181 75.4429 111.726 76.0552 111.28 76.7461C110.834 77.4371 110.213 78.1718 109.163 77.8394C108.929 77.7679 108.713 77.6466 108.53 77.4838C108.347 77.3209 108.202 77.1205 108.104 76.8961C108.006 76.6718 107.958 76.4288 107.962 76.184C107.967 75.9392 108.025 75.6983 108.131 75.4779C108.303 74.8948 108.63 74.369 109.076 73.9561L109.88 74.201C109.385 74.589 109.017 75.1158 108.822 75.7141C108.621 76.3526 108.761 76.8948 109.347 77.0785C109.933 77.2622 110.396 76.6674 110.808 76.0289C111.219 75.3905 111.901 74.5421 113.003 74.8919C113.245 74.9651 113.469 75.0901 113.658 75.2582C113.848 75.4264 113.998 75.6336 114.1 75.8656C114.201 76.0977 114.251 76.349 114.246 76.6022C114.241 76.8554 114.181 77.1044 114.07 77.3321C113.884 77.9418 113.543 78.493 113.082 78.9327L112.251 78.6703Z" fill="white"/>
<path d="M109.032 72.7581L109.198 71.9797L111.875 72.5395L109.758 69.382L109.959 68.4199L112.146 71.6473L115.881 69.4258L115.671 70.4403L112.041 72.5657L115.093 73.2042L114.927 73.9739L109.032 72.7581Z" fill="white"/>
<path d="M23.4668 67.1689H24.77V75.9153H29.4755V77.0961H23.4668V67.1689Z" fill="#00559A"/>
<path d="M31.1284 67.1689H36.8835V68.3497H32.4316V71.4197H36.3325V72.5567H32.4316V75.9853H37.006V77.166H31.1284V67.1689Z" fill="#00559A"/>
<path d="M37.8018 67.1689H39.2012L41.3265 72.7578C41.6502 73.6324 41.9738 74.507 42.2974 75.3817C42.6297 74.507 42.9621 73.6324 43.3032 72.6966L45.4373 67.1514H46.7843L42.9709 77.131H41.6414L37.8018 67.1689Z" fill="#00559A"/>
<path d="M48.1226 67.1689H53.8689V68.3497H49.4083V71.4197H53.3004V72.5567H49.4083V75.9853H53.9826V77.166H48.1226V67.1689Z" fill="#00559A"/>
<path d="M55.8369 67.1689H57.1489V75.9153H61.8544V77.0961H55.8369V67.1689Z" fill="#00559A"/>
<path d="M71.4668 67.0464C72.485 67.0325 73.4845 67.3218 74.3379 67.8774C75.1914 68.433 75.8603 69.23 76.2596 70.1668C76.659 71.1036 76.7707 72.138 76.5806 73.1385C76.3904 74.139 75.9071 75.0603 75.1919 75.7854C74.4768 76.5104 73.5621 77.0064 72.5643 77.2102C71.5666 77.4141 70.5307 77.3166 69.5885 76.9301C68.6463 76.5437 67.8403 75.8857 67.273 75.04C66.7057 74.1942 66.4027 73.1989 66.4026 72.1805C66.3849 71.5074 66.5033 70.8376 66.7506 70.2113C66.9979 69.585 67.3691 69.0151 67.842 68.5357C68.3149 68.0563 68.8797 67.6772 69.5025 67.4213C70.1253 67.1654 70.7934 67.0379 71.4668 67.0464ZM71.4668 76.0989C72.2503 76.1338 73.0264 75.9333 73.695 75.5232C74.3637 75.113 74.8941 74.5121 75.2181 73.7978C75.5421 73.0834 75.6448 72.2884 75.5129 71.5153C75.381 70.7421 75.0205 70.0261 74.4781 69.4595C73.9356 68.893 73.2359 68.5019 72.4691 68.3367C71.7023 68.1714 70.9037 68.2396 70.176 68.5323C69.4483 68.825 68.8249 69.329 68.3862 69.9792C67.9475 70.6294 67.7136 71.3961 67.7146 72.1805C67.697 72.6846 67.7809 73.1871 67.9615 73.658C68.1421 74.129 68.4155 74.5588 68.7656 74.9219C69.1157 75.2851 69.5352 75.5741 69.9993 75.7718C70.4633 75.9694 70.9624 76.0717 71.4668 76.0726V76.0989Z" fill="#00559A"/>
<path d="M78.3325 77.131V67.1689H79.5745L83.7465 72.7054C84.3238 73.4576 84.901 74.2447 85.4958 75.0319C85.4958 74.1573 85.4958 73.1602 85.4958 72.1981V67.1689H86.764V77.131H85.487L81.3238 71.6033C80.7465 70.8424 80.1693 70.064 79.5745 69.2768C79.5745 70.1515 79.5745 71.1485 79.5745 72.1106V77.1136L78.3325 77.131Z" fill="#00559A"/>
<path d="M89.0991 67.1689H94.8892V68.3497H90.4461V71.4197H94.3382V72.5567H90.4461V75.9853H95.0117V77.166H89.1429L89.0991 67.1689Z" fill="#00559A"/>
</g>
<defs>
<clipPath id="clip0_3581_1450">
<rect width="120" height="120" fill="white" transform="translate(0.428711 0.574219)"/>
</clipPath>
</defs>
</svg>
