<svg width="121" height="121" viewBox="0 0 121 121" fill="none" xmlns="http://www.w3.org/2000/svg">
<g clip-path="url(#clip0_3581_1445)">
<path d="M120.143 60.5742C120.143 27.4371 93.2797 0.574219 60.1426 0.574219C27.0055 0.574219 0.142578 27.4371 0.142578 60.5742V60.5747C0.142578 93.7118 27.0055 120.575 60.1426 120.575C93.2797 120.575 120.143 93.7118 120.143 60.5747V60.5742Z" fill="#345A77"/>
<path d="M43.6426 59.0742V39.5742C43.6426 30.4616 51.0299 23.0742 60.1426 23.0742C69.2552 23.0742 76.6426 30.4616 76.6426 39.5742V59.0742" stroke="#F1BD6C" stroke-width="3"/>
<path d="M60.1426 98.2412C74.2258 98.2412 85.6426 86.8245 85.6426 72.7412C85.6426 58.658 74.2258 47.2412 60.1426 47.2412C46.0593 47.2412 34.6426 58.658 34.6426 72.7412C34.6426 86.8245 46.0593 98.2412 60.1426 98.2412Z" fill="#F1BD6C"/>
<path d="M70.2634 79.7823L59.5393 69.9117V62.507L51.6582 62.0742C51.5976 62.2173 51.207 62.6292 51.2679 62.8601C51.3406 63.1347 51.7101 63.047 51.8163 63.2235C51.9415 63.4322 51.7263 64.2798 51.6616 64.5239C51.5391 64.9866 51.2584 65.3628 51.1773 65.825C51.0408 66.6021 51.3166 66.5402 51.8397 67.0268C52.7205 67.8464 52.0143 68.6957 52.2363 69.6587C52.4169 70.4426 53.2039 70.8482 53.493 71.6324C53.7157 72.2358 54.0225 72.3902 54.4978 72.8327C54.4863 72.5645 54.2463 71.7734 54.6975 71.843C55.1446 71.9118 54.9721 72.572 55.0584 72.848C55.1302 73.0773 55.6408 73.5372 55.2168 73.7493C55.0759 73.8197 54.6753 73.5413 54.5134 73.466C54.6274 73.8212 54.5547 74.189 54.735 74.5283C54.9499 74.9327 55.1818 74.7768 55.468 74.9973C55.762 75.2235 55.7308 75.4836 55.6002 75.8264C55.4643 76.1832 55.3227 76.1279 55.539 76.559C55.6957 76.8705 55.962 77.264 56.1907 77.5011C56.3238 77.639 56.4676 77.6699 56.6007 77.8461C56.7115 77.993 56.6685 78.1842 56.8 78.3164C57.0256 78.5429 57.4071 78.546 57.5859 78.8429C57.7846 79.1727 57.559 79.4222 58.1427 79.3919C58.1727 80.0526 58.2982 80.6507 58.2913 81.3113C58.6164 81.441 59.1429 81.2865 59.4847 81.2178C59.8237 81.6756 60.262 81.3575 60.6505 81.6062C60.8199 81.7143 60.7845 81.9849 60.8871 82.0799C61.0974 82.2737 61.2538 82.1519 61.5148 82.2195C61.7082 82.2693 61.8582 82.4112 62.0437 82.4633C62.2179 82.5117 62.5056 82.398 62.6349 82.5524C62.7903 82.7376 62.5299 83.0751 62.764 83.2242C62.9587 83.3483 63.2389 83.0526 63.4273 83.0958C63.6483 83.1467 64.2816 83.7242 64.437 83.9153C64.6135 84.1322 64.7922 84.5381 64.8925 84.818C65.049 85.2546 65.0272 85.4696 65.3506 85.7892C65.5567 85.9929 65.3614 86.0079 65.6968 86.0679C65.9167 86.1075 66.2079 85.9482 66.4297 85.9239C66.8919 85.8732 67.3587 85.9613 67.8133 85.8747C68.2374 85.7939 68.6413 85.6604 69.0769 85.5983C69.4537 85.5446 70.1155 85.5855 70.4499 85.407C70.8111 85.214 70.8442 84.7787 70.3215 84.8592C70.2802 84.5808 70.4659 84.1968 70.2585 84.0035C70.5474 83.6091 70.6518 83.3304 70.6974 82.848C70.7173 82.6367 70.7265 82.4015 70.8309 82.2233C70.9336 82.0472 71.2221 81.9431 71.2777 81.7913C71.3641 81.5571 71.2264 81.4523 71.1202 81.3216C71.0521 81.2375 70.8601 81.2775 70.8043 81.2037C70.7014 81.0672 70.803 80.9267 70.7467 80.7888C70.5843 80.3895 70.3875 80.2332 70.2634 79.7823C70.2663 79.8573 70.27 79.934 70.266 80.009L70.2634 79.7823Z" fill="#345A77"/>
</g>
<defs>
<clipPath id="clip0_3581_1445">
<rect width="120" height="120" fill="white" transform="translate(0.142578 0.574219)"/>
</clipPath>
</defs>
</svg>
