<svg fill="none" height="49" viewBox="0 0 48 49" width="48" xmlns="http://www.w3.org/2000/svg" xmlns:xlink="http://www.w3.org/1999/xlink"><clipPath id="a"><rect height="39.744" rx="19.872" width="43.2" x="2.3999" y="5.20801"/></clipPath><rect fill="#006bb7" height="48" rx="24" width="48" y=".920044"/><g clip-path="url(#a)"><path d="m45.5999 5.20801h-43.2v39.74399h43.2z" fill="#fff"/><g fill="#006bb7"><path d="m2.3999 25.08v19.872h21.6 21.6v-19.872-19.87197h-21.6-21.6zm22.4047-15.28697c1.0316.03656 2.2606.23767 3.358.55207 3.3726.9653 6.2624 3.0604 8.3401 6.0366.1134.1645.2085.3181.2085.34 0 .0293-.1646.0402-.5268.0402h-.5267l-.1683-.2376c-.4645-.6435-1.3717-1.6527-1.9679-2.1828l-.2561-.2267-.6255.1572c-1.1193.2742-2.352.4973-3.5811.6472-.278.0365-.5048.0767-.5048.0877 0 .0146.0512.1901.1134.3876.1427.4716.3621 1.2614.3621 1.3199 0 .0366-.1134.0475-.4572.0475h-.4536l-.0622-.212c-.0292-.1134-.0914-.3254-.128-.4644-.117-.4022-.2963-.947-.3255-.9799-.0147-.0182-.2561-.0146-.5341.0074-.2743.0219-1.0535.0584-1.7265.084-1.2913.0439-3.1093.0037-4.3237-.0987-.3109-.0256-.5779-.0365-.5926-.0219-.0292.0292-.2926.8519-.417 1.3163l-.0987.3692h-.45c-.4133 0-.4536-.0073-.4536-.0658 0-.0804.2085-.8555.3658-1.3565.0622-.1901.0988-.3583.0805-.3729-.0146-.011-.1975-.0439-.4097-.0658-.9986-.1134-2.4471-.3803-3.5555-.6508l-.684-.1682-.1939.1645c-.5889.5046-1.5363 1.543-2.0228 2.2121l-.2195.3034h-.5377c-.2999 0-.5414-.0109-.5414-.0219 0-.0475.5853-.8592.9145-1.276 1.4047-1.7587 3.1239-3.1408 5.1577-4.1463 1.5509-.7678 3.0653-1.2175 4.8467-1.44789.4499-.0585 1.6424-.12066 1.9204-.10237.0695.00365.3768.01828.6767.02559zm-1.7192 8.36197c.5707.0695.8926.0841 2.4252.0951l1.7631.0146v1.9744 1.9707h-1.5729-1.5692l-.011-.4278-.011-.4314-.2194-.0878c-.6292-.2486-1.4742-.3839-2.4143-.3875-.9254 0-1.3424.0804-1.7411.3473-.4097.2669-.4682.8117-.1281 1.1481.3549.3583.7902.4717 2.7289.713 1.6753.2121 2.3227.3473 3.1348.6654.3914.1536.8852.4424 1.1925.702.4535.3766.8267.9982.9986 1.6563.128.49.1646 1.4333.0731 1.9342-.1573.8556-.4791 1.4699-1.0681 2.0293-.6365.6069-1.4558 1.0055-2.5861 1.2577-1.2474.2816-3.0141.3255-4.7846.1244-.6072-.0659-.9584-.0805-2.4179-.0914l-1.7119-.0147v-1.9561-1.9525h1.5729 1.5729v.4022.4022l.1427.0732c.4646.234 1.4193.4058 2.4252.4277 1.7339.0439 2.513-.2632 2.5166-.9945 0-.2852-.0804-.4387-.3218-.6069-.3512-.2486-.845-.362-2.4216-.5631-1.8948-.245-2.6447-.4168-3.4677-.8044-1.3132-.6215-1.9606-1.5685-2.0923-3.0603-.0732-.7898.0548-1.5283.3658-2.1718.6986-1.4443 2.2971-2.2743 4.7735-2.479.4975-.0402 2.2167.0146 2.8532.0914zm13.8452-.0219c1.6315.2449 2.93.8592 3.936 1.861 1.2254 1.2249 1.8179 2.7971 1.8143 4.8117 0 .9653-.1061 1.6892-.3585 2.4497-.8596 2.5814-3.0873 4.1243-6.2221 4.3108-1.6424.0951-3.3141-.2303-4.5102-.8812-.8084-.4387-1.668-1.2102-2.1326-1.9122-.5633-.8556-.9108-1.8355-1.0498-2.9799-.0549-.457-.0439-1.6124.0183-2.0914.2999-2.2669 1.5144-3.9854 3.4677-4.9104.8157-.3839 1.6973-.6143 2.7873-.7276.3658-.0366 1.8473.0073 2.2496.0695zm-22.7156 1.7915v1.6271h-1.0608-1.0608v3.2907 3.2906h1.0608 1.0608v1.6271 1.627l-4.2139-.0073-4.21762-.0109-.01098-1.6198-.00731-1.6161h1.06079 1.0608v-3.2906-3.2907l-1.04982-.0073-1.05348-.011-.01098-1.6197-.00731-1.6161h4.22489 4.22492zm-1.7192 13.17c.4645.6582 1.4814 1.788 2.0557 2.2852l.2085.1792.5962-.1463c1.145-.2815 2.2789-.4899 3.4495-.6325.3621-.0439.662-.0841.6694-.0878.0073-.0036-.0403-.1681-.1025-.3692-.1499-.4717-.3658-1.2542-.3658-1.3346 0-.0585.0439-.0658.4536-.0658h.45l.0987.3547c.0549.1974.1683.5777.2488.8482l.1536.4863.2048-.0219c1.1815-.1207 4.2615-.1536 5.7064-.0585.4536.0292.9291.0548 1.0571.0548h.2378l.1244-.3839c.0695-.2121.1792-.5814.245-.8227l.1207-.4387.4609-.011c.3073-.0073.4609.0037.4609.0293 0 .0621-.3182 1.2029-.417 1.4881l-.0914.2632.117.0183c.0659.011.3219.0475.5743.0768 1.0718.1353 2.4033.3876 3.4129.6435.5231.1353.5852.1426.6584.0951.1756-.117.9657-.9031 1.3461-1.3309.2195-.2523.5414-.6435.7133-.8739l.3182-.4168h.5231c.289 0 .5268.0146.5268.0292 0 .0476-.4829.7423-.7645 1.1042-2.524 3.2505-6.2514 5.3273-10.3739 5.7843-.6804.0731-2.6483.0622-3.2921-.0183-3.347-.4314-6.1673-1.7477-8.6144-4.0219-.8413-.7824-1.8948-2.0475-2.3557-2.8336-.022-.0329.0914-.0439.5194-.0439h.545z"/><path d="m23.5024 10.7035c-.8449.2888-1.6497 1.2029-2.3886 2.713-.1683.34-.3146.6508-.3255.6837-.0183.0512.0109.0658.1682.0841.9072.0987 3.2848.1499 4.5797.095 1.5546-.0658 1.701-.0767 1.701-.1462 0-.0914-.5487-1.192-.7828-1.5649-.4756-.7678-.9474-1.3016-1.4303-1.6197-.5084-.3291-1.0242-.4132-1.5217-.245z"/><path d="m21.4576 10.8461c-1.9607.4131-3.5628 1.0749-5.2382 2.1718-.4097.2669-.5413.3803-.4389.3803.0146 0 .2487.0512.5194.1097.8852.2011 2.7325.5045 3.3763.5557l.139.011.1536-.3656c.4463-1.0421 1.1413-2.1792 1.7046-2.7715.1243-.1316.1243-.1353.0402-.1316-.0512.0036-.1646.0182-.256.0402z"/><path d="m26.3775 10.9557c.2524.2925.6694.8665.8815 1.2066.2597.4204.6511 1.1883.8194 1.616l.128.3181.2378-.0219c1.1522-.1133 3.8774-.5923 3.8774-.6837 0-.0183-.2341-.1865-.5195-.373-1.5582-1.0274-3.2848-1.7587-5.0003-2.1206-.589-.1243-.5853-.1243-.4243.0585z"/><path d="m35.0323 21.1531c-1.2181.1865-1.9278 1.053-2.1472 2.6179-.0842.6106-.0549 1.9232.0548 2.4351.3475 1.6015 1.2437 2.351 2.7252 2.2815.7718-.0365 1.1925-.2047 1.6497-.6654.6365-.6325.8925-1.5064.8962-3.0164 0-1.2395-.1792-2.0256-.6109-2.6765-.2999-.457-.7864-.7934-1.3278-.925-.3036-.0695-.9364-.0987-1.24-.0512z"/><path d="m22.4452 35.3944c-.9876.0549-1.6643.0951-1.6753.1061-.0293.0292.4316.9762.673 1.393.5195.8922 1.0316 1.4918 1.5583 1.8355.3439.223.5524.2961.8925.3254.3329.0256.5743-.0293.9474-.2194.4207-.2157 1.0279-.8263 1.4413-1.4515.2743-.4132.9547-1.7112.9547-1.8209 0-.0585-.0768-.0694-.7865-.117-.5999-.0402-3.5225-.0768-4.0054-.0512z"/><path d="m19.4276 35.6175c-.0585.0073-.4097.0548-.7792.106-.8779.1207-1.5655.2377-2.3374.4022-.4901.106-.6218.1463-.5925.1828.0658.0805 1.0278.6984 1.5107.9653 1.251.6983 2.6117 1.2139 3.9725 1.4991.2816.0621.5304.1097.5523.1097.022 0-.0475-.1024-.1573-.2304-.5926-.6764-1.1522-1.5978-1.6058-2.6398l-.1756-.4022-.139-.0037c-.0768-.0036-.1865 0-.2487.011z"/><path d="m28.1187 35.8222c-.1354.3437-.5889 1.2432-.8267 1.6344-.2561.4241-.567.8556-.8377 1.1664-.1134.1316-.1975.2413-.1902.2522.0403.0403 1.2839-.2596 1.9497-.4716 1.1961-.3803 2.7032-1.1262 3.7932-1.8757l.3219-.223-.1938-.0439c-.9804-.2267-2.1545-.4388-3.0873-.5594-.3219-.0402-.6438-.0805-.7133-.0914-.128-.0147-.128-.0147-.2158.212z"/></g></g></svg>