<svg width="32" height="32" viewBox="0 0 32 32" fill="none" xmlns="http://www.w3.org/2000/svg">
<g clip-path="url(#clip0_21454_171814)">
<path d="M16.0001 32.0004C24.8368 32.0004 32.0003 24.8368 32.0003 16.0001C32.0003 7.16344 24.8368 -0.00012207 16.0001 -0.00012207C7.1635 -0.00012207 0 7.16344 0 16.0001C0 24.8368 7.1635 32.0004 16.0001 32.0004Z" fill="#004CFF"/>
<path d="M21.0132 15.9288L11.6508 22.1463C11.217 22.4355 11 22.9053 11 23.3753V24.9296L22.3506 17.4831C22.8567 17.1217 23.1821 16.5432 23.1821 15.9288C23.1821 15.3142 22.8929 14.7357 22.3506 14.3743L11 7V8.44589C11 8.95208 11.2531 9.4219 11.6508 9.675L21.0132 15.9288Z" fill="white"/>
<path d="M15.374 16.4348C15.88 16.7601 16.5308 16.7601 17.0368 16.4348L17.8321 15.8926L11.9037 11.8802C11.5423 11.6271 11 11.8802 11 12.35V13.5429L14.0726 15.6034L15.374 16.4348Z" fill="white"/>
</g>
<defs>
<clipPath id="clip0_21454_171814">
<rect width="32" height="32.0003" fill="white"/>
</clipPath>
</defs>
</svg>
