<svg fill="none" height="32" viewBox="0 0 32 32" width="32" xmlns="http://www.w3.org/2000/svg" xmlns:xlink="http://www.w3.org/1999/xlink"><linearGradient id="a" gradientUnits="userSpaceOnUse" x1="15.9656" x2="15.9656" y1="10.9802" y2="20.9592"><stop offset="0" stop-color="#86bbe5"/><stop offset="1" stop-color="#1072ba"/></linearGradient><path d="m16.0005 2.00382s8.2522-.36899 12.6273 7.89608h-13.3295s-2.5155-.08079-4.6643 2.96c-.6173 1.2764-1.2808 2.5911-.5362 5.1821-1.07263-1.8107-5.69448-9.82966-5.69448-9.82966s3.26-5.88177 11.59708-6.20852z" fill="#ef3f36"/><path d="m28.1994 22.9856s-3.8079 7.3079-13.175 6.9465c1.1574-1.9952 6.6666-11.5019 6.6666-11.5019s1.331-2.1297-.2392-5.5049c-.7987-1.1725-1.6127-2.3988-4.2361-3.05243 2.1104-.0191 11.3888 0 11.3888 0s3.476 5.75493-.4051 13.11273z" fill="#fcd900"/><path d="m3.85931 23.0434s-4.448302-6.9389.55164-14.84266c1.15357 1.99516 6.66275 11.50196 6.66275 11.50196s1.1883 2.2144 4.9035 2.5448c1.416-.1037 2.8897-.1921 4.7725-2.1258-1.038 1.83-5.6946 9.8259-5.6946 9.8259s-6.74376.1231-11.1959-6.9042z" fill="#61bc5b"/><path d="m15.0205 30.0013 1.875-7.796s2.0602-.1616 3.7887-2.049c-1.0727 1.8799-5.6637 9.845-5.6637 9.845z" fill="#5ab055"/><path d="m9.71973 16.089c0-3.4367 2.79707-6.22377 6.24607-6.22377s6.2461 2.78707 6.2461 6.22377-2.7971 6.2237-6.2461 6.2237c-3.449-.0038-6.24607-2.787-6.24607-6.2237z" fill="#fff"/><path d="m10.7651 16.0891c0-2.8601 2.3265-5.1821 5.2007-5.1821 2.8703 0 5.2006 2.3182 5.2006 5.1821 0 2.8601-2.3263 5.1821-5.2006 5.1821-2.8704 0-5.2007-2.322-5.2007-5.1821z" fill="url(#a)"/><path d="m28.6007 9.87685-7.7199 2.25655s-1.1651-1.7031-3.6689-2.25655c2.1721-.01157 11.3888 0 11.3888 0z" fill="#eaca05"/><path d="m9.94735 17.7577c-1.08422-1.8722-5.54403-9.54536-5.54403-9.54536l5.71758 5.63566s-.58649 1.2033-.36649 2.9255l.19283.9842z" fill="#df3a32"/></svg>