<svg width="48" height="48" viewBox="0 0 48 48" fill="none" xmlns="http://www.w3.org/2000/svg">
<path d="M37.2028 8.77734L24.14 18.9717L10.7786 8.77734V8.7801L10.7947 8.79388V23.0688L23.9894 33.4836L37.2028 23.471V8.77734Z" fill="#EA4335"/>
<path d="M40.633 6.29749L37.2025 8.77721V23.4709L47.9971 15.1831V10.1906C47.9971 10.1906 46.6868 3.06009 40.633 6.29749Z" fill="#FBBC05"/>
<path d="M37.2025 23.4712V42.5292H45.476C45.476 42.5292 47.8303 42.2868 47.9998 39.6032V15.1835L37.2025 23.4712Z" fill="#34A853"/>
<path d="M10.7953 42.5455V23.0687L10.7786 23.0549L10.7953 42.5455Z" fill="#C5221F"/>
<path d="M10.7785 8.78028L7.36682 6.31434C1.313 3.07694 0 10.2047 0 10.2047V15.1972L10.7785 23.0552V8.78028Z" fill="#C5221F"/>
<path d="M10.7786 8.78003V23.0549L10.7953 23.0687V8.79381L10.7786 8.78003Z" fill="#C5221F"/>
<path d="M0 15.1997V39.6194C0.166816 42.3057 2.52377 42.5454 2.52377 42.5454H10.7973L10.7785 23.0549L0 15.1997Z" fill="#4285F4"/>
</svg>
