<svg width="48" height="48" viewBox="0 0 48 48" fill="none" xmlns="http://www.w3.org/2000/svg">
<path d="M44.3821 0.00012207H36.5793V11.3066H47.9968V3.18827C47.9999 3.18827 47.4326 0.308454 44.3821 0.00012207Z" fill="#1967D2"/>
<path d="M36.5825 47.9473V47.9751V47.9998L48 36.6932H47.8977L36.5825 47.9473Z" fill="#1967D2"/>
<path d="M47.9994 36.6928V36.5917L47.8983 36.6928H47.9994Z" fill="#FBBC05"/>
<path d="M48 11.3074H36.5825V36.5918H48V11.3074Z" fill="#FBBC05"/>
<path d="M47.8977 36.6932H36.5825V47.9473L47.8977 36.6932Z" fill="#EA4335"/>
<path d="M36.5825 36.693H47.8977L48 36.5917H36.5825V36.693Z" fill="#EA4335"/>
<path d="M36.5547 47.9753H36.582V47.948L36.5547 47.9753Z" fill="#34A853"/>
<path d="M11.1608 36.5917V47.9753H36.5546L36.5825 36.5917H11.1608Z" fill="#34A853"/>
<path d="M36.5823 36.6934V36.5917L36.5547 47.9753L36.5823 47.9475V36.6934Z" fill="#34A853"/>
<path d="M6.10352e-05 36.5917V44.5065C0.102363 47.0749 2.88 47.9753 2.88 47.9753H11.1602V36.5917H6.10352e-05Z" fill="#188038"/>
<path d="M11.1607 11.3072H36.5824V0.00012207H3.20251C3.20251 0.00012207 0.204613 0.308469 0 3.49369V36.5917H11.1607V11.3072Z" fill="#4285F4"/>
<path d="M19.4775 31.4728C18.896 31.4728 18.3352 31.3971 17.7951 31.2456C17.2689 31.0941 16.7843 30.8668 16.3412 30.5638C15.8981 30.2471 15.5035 29.8546 15.1573 29.3863C14.825 28.9181 14.5688 28.3741 14.3888 27.7543L16.9435 26.7421C17.1236 27.4307 17.4282 27.954 17.8574 28.3121C18.2867 28.6564 18.8267 28.8285 19.4775 28.8285C19.7683 28.8285 20.0452 28.7872 20.3083 28.7046C20.5714 28.6082 20.7999 28.4774 20.9938 28.3121C21.1876 28.1468 21.3399 27.954 21.4507 27.7337C21.5753 27.4995 21.6376 27.2379 21.6376 26.9487C21.6376 26.3427 21.4092 25.8675 20.9522 25.5232C20.5091 25.1789 19.8929 25.0068 19.1037 25.0068H17.8782V22.5485H18.9998C19.2767 22.5485 19.5468 22.514 19.8098 22.4452C20.0729 22.3763 20.3014 22.273 20.4953 22.1353C20.703 21.9838 20.8622 21.7979 20.973 21.5775C21.0976 21.3434 21.1599 21.0748 21.1599 20.7718C21.1599 20.3036 20.9938 19.9249 20.6614 19.6356C20.3291 19.3327 19.8791 19.1812 19.3114 19.1812C18.7021 19.1812 18.2313 19.3464 17.899 19.677C17.5805 19.9937 17.3589 20.3518 17.2343 20.7512L14.7419 19.7389C14.8665 19.3946 15.0534 19.0434 15.3027 18.6854C15.5519 18.3135 15.8635 17.983 16.2374 17.6938C16.6251 17.3908 17.0751 17.1498 17.5874 16.9707C18.0998 16.7779 18.6882 16.6815 19.3529 16.6815C20.0314 16.6815 20.6476 16.7779 21.2015 16.9707C21.7692 17.1635 22.2538 17.4321 22.6554 17.7764C23.0569 18.1069 23.3685 18.5063 23.59 18.9746C23.8116 19.4291 23.9224 19.9249 23.9224 20.462C23.9224 20.8751 23.867 21.247 23.7562 21.5775C23.6593 21.908 23.5277 22.2041 23.3616 22.4658C23.1954 22.7275 23.0015 22.9547 22.78 23.1475C22.5723 23.3266 22.3577 23.4712 22.1361 23.5814V23.7466C22.8008 24.0083 23.3477 24.4283 23.777 25.0068C24.2201 25.5852 24.4416 26.3151 24.4416 27.1966C24.4416 27.8163 24.3239 28.3878 24.0885 28.9112C23.8531 29.4208 23.5139 29.8683 23.0708 30.254C22.6415 30.6396 22.1223 30.9357 21.513 31.1423C20.9037 31.3626 20.2253 31.4728 19.4775 31.4728Z" fill="#4285F4"/>
<path d="M29.4017 31.1423V20.1934L26.8885 21.247L25.8915 18.9539L30.0663 17.0121H32.1226V31.1423H29.4017Z" fill="#4285F4"/>
</svg>
