<svg width="32" height="34" viewBox="0 0 32 34" fill="none" xmlns="http://www.w3.org/2000/svg">
<g clip-path="url(#clip0_21454_171813)">
<path d="M23.2465 23.9579C20.7678 23.9579 18.7584 21.9658 18.7584 19.5086C18.7584 17.0511 20.7678 15.0589 23.2465 15.0589C25.7253 15.0589 27.7347 17.0511 27.7347 19.5086C27.7347 21.9658 25.7253 23.9579 23.2465 23.9579ZM24.5901 10.9422V6.98397C25.6322 6.49597 26.3622 5.45079 26.3622 4.2378V4.14644C26.3622 2.47236 24.9806 1.1027 23.2921 1.1027H23.2004C21.5119 1.1027 20.1304 2.47236 20.1304 4.14644V4.2378C20.1304 5.45079 20.8603 6.49638 21.9025 6.9844V10.9422C20.3509 11.1801 18.9333 11.8145 17.7641 12.7483L6.80231 4.29418C6.87464 4.01879 6.92546 3.73528 6.9259 3.43728C6.92763 1.54161 5.37993 0.00244408 3.46703 -0.000119851C1.55503 -0.00225238 0.00215765 1.53264 2.23925e-06 3.42874C-0.0021487 5.32483 1.54555 6.86399 3.45843 6.86613C4.08156 6.86698 4.6586 6.6915 5.16418 6.4063L15.9468 14.7229C15.03 16.0951 14.4926 17.7389 14.4926 19.5086C14.4926 21.3611 15.083 23.075 16.0803 24.4843L12.8015 27.7356C12.5422 27.6583 12.2735 27.6045 11.9884 27.6045C10.417 27.6045 9.14279 28.8674 9.14279 30.4255C9.14279 31.9837 10.417 33.2467 11.9884 33.2467C13.5602 33.2467 14.8341 31.9837 14.8341 30.4255C14.8341 30.1435 14.7798 29.8767 14.7019 29.6196L17.9454 26.4038C19.4177 27.5178 21.2513 28.1873 23.2465 28.1873C28.0812 28.1873 32 24.3016 32 19.5086C32 15.1695 28.7848 11.5848 24.5901 10.9422Z" fill="#FF7A59"/>
</g>
<defs>
<clipPath id="clip0_21454_171813">
<rect width="32" height="33.2468" fill="white"/>
</clipPath>
</defs>
</svg>
