<svg width="32" height="32" viewBox="0 0 32 32" fill="none" xmlns="http://www.w3.org/2000/svg">
<path fill-rule="evenodd" clip-rule="evenodd" d="M28 4.84764e-06H4C1.81944 -0.00339585 0.00384715 1.82343 0 4L0 28C0 30.2089 1.79136 32 4 32H28C30.1806 32.0034 31.9962 30.1766 32 28V4C32 1.79112 30.2095 4.84764e-06 28 4.84764e-06ZM20.2658 5.86667C20.2658 5.27822 20.7442 4.8 21.3333 4.8C21.9225 4.8 22.4 5.27822 22.4 5.86667V20.1182C22.4 20.7067 21.9216 21.1849 21.3333 21.1849C20.7686 21.1854 20.2681 20.6848 20.2667 20.1182L20.2658 5.86667ZM14.9324 5.32711C14.9324 4.73778 15.4109 4.26045 16 4.26045C16.5891 4.26045 17.0676 4.73778 17.0676 5.32711V20.7938C17.0676 21.3831 16.5891 21.8604 16 21.8604C15.4353 21.8609 14.9347 21.3604 14.9333 20.7938L14.9324 5.32711ZM9.6 5.86667C9.6 5.27822 10.0784 4.8 10.6667 4.8C11.2558 4.8 11.7333 5.27822 11.7333 5.86667V20.1182C11.7333 20.7067 11.2558 21.1849 10.6667 21.1849C10.102 21.1854 9.60141 20.6848 9.6 20.1182V5.86667ZM4.26667 8C4.26667 7.41067 4.74419 6.93334 5.33333 6.93334C5.92248 6.93334 6.4 7.41067 6.4 8V17.5938C6.4 18.1831 5.92159 18.6604 5.33333 18.6604C4.75181 18.6614 4.26763 18.1742 4.26667 17.5938V8ZM27.3612 24.2702C27.1973 24.4124 23.2452 27.7271 16 27.7271C8.75482 27.7271 4.80532 24.4116 4.63876 24.2693C4.19806 23.8917 4.14589 23.2066 4.52359 22.7662C4.89179 22.3376 5.59444 22.2827 6.02436 22.6489C6.08638 22.7013 9.61506 25.5938 15.9991 25.5938C22.4629 25.5938 25.9375 22.68 25.9712 22.6516C26.4006 22.2826 27.1058 22.3364 27.4746 22.7662C27.8548 23.2058 27.8034 23.8928 27.3612 24.2702ZM27.7333 17.5947C27.7333 18.1831 27.2549 18.6613 26.6667 18.6613C26.0851 18.6623 25.601 18.1751 25.6 17.5947V8C25.6 7.41067 26.0775 6.93334 26.6658 6.93334C27.2549 6.93334 27.7333 7.41067 27.7333 8V17.5947Z" fill="#081D34"/>
</svg>
