<svg fill="none" height="48" viewBox="0 0 48 48" width="48" xmlns="http://www.w3.org/2000/svg" xmlns:xlink="http://www.w3.org/1999/xlink"><clipPath id="a"><path d="m0 0h48v48h-48z"/></clipPath><g clip-path="url(#a)"><path d="m0 3.43844c0-1.89848 1.57804-3.43842474 3.52474-3.43842474h40.64786c1.9467 0 3.5248 1.53994474 3.5248 3.43842474v41.12316c0 1.8991-1.5781 3.4384-3.5248 3.4384h-40.64786c-1.9467 0-3.52474-1.5393-3.52474-3.4384z" fill="#069"/><g clip-rule="evenodd" fill="#fff" fill-rule="evenodd"><path d="m14.4586 40.1812v-21.6747h-7.20423v21.6747zm-3.6021-24.634c2.5122 0 4.0759-1.6644 4.0759-3.7444-.0468-2.1268-1.5637-3.74499-4.0283-3.74499-2.46434 0-4.07561 1.61819-4.07561 3.74499 0 2.08 1.56335 3.7444 3.98101 3.7444z"/><path d="m18.4449 40.1812h7.2042v-12.1041c0-.6478.0469-1.2949.2371-1.758.5208-1.2943 1.7062-2.6348 3.6964-2.6348 2.6069 0 3.6497 1.9876 3.6497 4.9014v11.5955h7.2036v-12.428c0-6.6575-3.5542-9.7553-8.294-9.7553-3.8865 0-5.5927 2.1723-6.5407 3.652h.0481v-3.1434h-7.2042c.0946 2.0338-.0002 21.6747-.0002 21.6747z"/></g></g></svg>