<svg width="32" height="32" viewBox="0 0 32 32" fill="none" xmlns="http://www.w3.org/2000/svg">
<g clip-path="url(#clip0_21454_171845)">
<path d="M24.9047 2.4908C23.4351 0.807914 20.7784 0.0864258 17.3799 0.0864258H7.51651C6.8212 0.0864258 6.23036 0.594466 6.1215 1.28333L2.01457 27.4519C1.93292 27.9677 2.33062 28.4352 2.85123 28.4352H8.94051L10.4698 18.6899L10.4224 18.9951C10.5313 18.3062 11.1178 17.7981 11.8122 17.7981H14.7058C20.3904 17.7981 24.8414 15.4785 26.1417 8.7681C26.1803 8.56964 26.2137 8.37649 26.2426 8.18773C26.0784 8.10041 26.0784 8.10041 26.2426 8.18773C26.6298 5.7075 26.2399 4.01933 24.9047 2.4908Z" fill="#27346A"/>
<path d="M12.7999 7.29425C12.9623 7.21664 13.1431 7.17341 13.3328 7.17341H21.0656C21.9812 7.17341 22.8354 7.23339 23.6159 7.35951C23.8397 7.39568 24.0566 7.43714 24.2673 7.48476C24.4779 7.53151 24.6826 7.58444 24.8809 7.64265C24.9802 7.67175 25.0776 7.70174 25.1733 7.73349C25.5569 7.86226 25.9143 8.01221 26.2427 8.18773C26.6298 5.70663 26.2399 4.01933 24.9047 2.4908C23.4342 0.807914 20.7784 0.0864258 17.3799 0.0864258H7.51563C6.8212 0.0864258 6.23036 0.594466 6.1215 1.28333L2.01457 27.451C1.93292 27.9677 2.33062 28.4344 2.85035 28.4344H8.94051L12.1133 8.22036C12.1783 7.80581 12.4434 7.46624 12.7999 7.29425Z" fill="#27346A"/>
<path d="M26.1417 8.76811C24.8414 15.4776 20.3904 17.7981 14.7058 17.7981H11.8113C11.1169 17.7981 10.5304 18.3062 10.4225 18.9951L8.52 31.1121C8.44889 31.5637 8.79655 31.973 9.25131 31.973H14.3845C14.9921 31.973 15.5092 31.5285 15.6039 30.9261L15.6541 30.6632L16.6214 24.5032L16.6838 24.1627C16.7787 23.5604 17.2957 23.1159 17.9032 23.1159H18.6714C23.6439 23.1159 27.5376 21.0864 28.6753 15.2165C29.1503 12.7636 28.9046 10.7156 27.6482 9.27703C27.2672 8.84131 26.7939 8.48144 26.2427 8.18774C26.2128 8.37737 26.1803 8.56966 26.1417 8.76811Z" fill="#2790C3"/>
<path d="M24.8818 7.6427C24.6834 7.58449 24.4789 7.53156 24.2682 7.48481C24.0574 7.43807 23.8398 7.39661 23.6168 7.36045C22.8354 7.23344 21.9821 7.17346 21.0656 7.17346H13.3337C13.1431 7.17346 12.9623 7.21669 12.8008 7.29519C12.4434 7.46717 12.1792 7.80587 12.1142 8.2213L10.4707 18.6899L10.4233 18.9952C10.5313 18.3063 11.1178 17.7982 11.8122 17.7982H14.7067C20.3913 17.7982 24.8423 15.4785 26.1426 8.76815C26.1812 8.5697 26.2137 8.37741 26.2436 8.18779C25.9143 8.01314 25.5578 7.86231 25.1742 7.73442C25.0786 7.70267 24.9811 7.6718 24.8818 7.6427Z" fill="#1F264F"/>
</g>
<defs>
<clipPath id="clip0_21454_171845">
<rect width="27" height="32" fill="white" transform="translate(2)"/>
</clipPath>
</defs>
</svg>
