<svg fill="none" height="48" viewBox="0 0 48 48" width="48" xmlns="http://www.w3.org/2000/svg" xmlns:xlink="http://www.w3.org/1999/xlink"><clipPath id="a"><path d="m0 0h48v48h-48z"/></clipPath><g clip-path="url(#a)"><path d="m31.3705 15.4484c-.0085.9703-.211 1.9291-.5957 2.82-.3847.8908-.9438 1.6957-1.6443 2.3672-1.5488 1.5456-3.7952 1.92-3.7952 3.248 0 1.7824 2.88 1.2384 5.6128 3.9872 1.3995 1.3768 2.3556 3.1404 2.7456 5.0644.39 1.9241.1962 3.9208-.5567 5.7339-.7528 1.8131-2.0302 3.3599-3.6684 4.4418-1.6381 1.0819-3.5622 1.6496-5.5253 1.6303-1.9624.0187-3.8857-.5493-5.5231-1.6311-1.6375-1.0817-2.9144-2.628-3.6671-4.4404-.7527-1.8125-.9468-3.8084-.5574-5.7319s1.3445-3.6868 2.7428-5.0638c2.7488-2.7488 5.6-2.2048 5.6-3.9872 0-1.3152-2.24-1.7024-3.792-3.248-1.0518-1.0074-1.7773-2.307-2.0827-3.731-.3054-1.4239-.1768-2.9068.3694-4.2569.5462-1.35 1.4847-2.5053 2.6943-3.31634 1.2096-.81107 2.6347-1.24072 4.091-1.23339.7744 0 1.472.1152 2.0512.1152 1.0432 0 1.6-.464 1.6-1.2 0-.4256-.1952-.96-.1952-1.5456.0102-.6518.2789-1.27285.747-1.72654.2318-.22464.5055-.40143.8056-.52028s.6207-.17742.9434-.17238.6413.0736.9376.20177c.2962.12816.5643.31342.789.5452.2246.23177.4014.50552.5202.80562.1189.3001.1775.62067.1724.94341 0 1.4304-1.1232 2.0864-1.9744 2.4-.6944.2304-1.2384.5408-1.2384 1.2384 0 1.30883 2.4 2.58883 2.4 6.26243zm-.768 19.4304c0-3.84-2.8256-6.928-6.656-6.928s-6.656 3.0976-6.656 6.928 2.8256 6.9248 6.656 6.9248 6.656-3.1392 6.656-6.9248zm-2.2848-19.52c-.0176-.8612-.2891-1.6979-.7804-2.4054-.4912-.7075-1.1804-1.2542-1.9811-1.5716s-1.6773-.3913-2.5199-.2126c-.8426.1788-1.6136.6023-2.2164 1.2175-.6029.6152-1.0107 1.3947-1.1723 2.2407-.1617.846-.07 1.7209.2636 2.515.3335.7941.8941 1.4721 1.6114 1.9489s1.5594.7313 2.4207.7315c1.1685-.016 2.2835-.4926 3.1026-1.3261.8191-.8334 1.2761-1.9565 1.2718-3.1251z" fill="#008561"/></g></svg>