<svg width="48" height="35" viewBox="0 0 48 35" fill="none" xmlns="http://www.w3.org/2000/svg">
<mask id="mask0_2044_69469" style="mask-type:luminance" maskUnits="userSpaceOnUse" x="-1" y="0" width="49" height="35">
<path fill-rule="evenodd" clip-rule="evenodd" d="M-0.0776367 0.526611H47.9224V34.0563H-0.0776367V0.526611Z" fill="white"/>
</mask>
<g mask="url(#mask0_2044_69469)">
<path fill-rule="evenodd" clip-rule="evenodd" d="M19.8529 4.19709C21.4023 2.58413 23.5587 1.5853 25.9411 1.5853C29.1176 1.5853 31.8705 3.35002 33.3529 5.97946C34.6687 5.39123 36.0939 5.08755 37.5352 5.08828C43.2529 5.08828 47.894 9.76479 47.894 15.5354C47.894 21.3061 43.2529 25.9826 37.5352 25.9826C36.8364 25.9826 36.1552 25.9124 35.4882 25.7796C34.1911 28.0914 31.7117 29.662 28.8881 29.662C27.7386 29.6643 26.6038 29.4035 25.5705 28.8997C24.2558 31.9879 21.194 34.1586 17.6293 34.1586C13.9058 34.1586 10.747 31.8115 9.52932 28.5114C8.98738 28.6258 8.43497 28.6833 7.88109 28.683C3.45168 28.683 -0.130676 25.0476 -0.130676 20.5829C-0.130676 17.5829 1.48226 14.9711 3.87521 13.5593C3.36754 12.3898 3.10623 11.1283 3.10756 9.85338C3.10756 4.70039 7.28991 0.535645 12.4429 0.535645C15.4605 0.535645 18.1605 1.97389 19.8546 4.20627" fill="#00A1E0"/>
</g>
<path fill-rule="evenodd" clip-rule="evenodd" d="M6.86455 17.962C6.83438 18.0407 6.87532 18.0571 6.88502 18.0711C6.9752 18.1364 7.06679 18.1837 7.15855 18.2368C7.64914 18.4962 8.11149 18.5721 8.59502 18.5721C9.57973 18.5721 10.1921 18.048 10.1921 17.2044V17.1878C10.1921 16.4078 9.50032 16.1237 8.85443 15.9208L8.7699 15.8934C8.28108 15.7349 7.85932 15.5969 7.85932 15.2758V15.2593C7.85932 14.984 8.10638 14.7811 8.48755 14.7811C8.91108 14.7811 9.41579 14.9221 9.73873 15.1005C9.73873 15.1005 9.83437 15.1623 9.86914 15.07C9.88802 15.02 10.0527 14.5794 10.0703 14.53C10.089 14.4783 10.0562 14.4393 10.0225 14.4192C9.6519 14.1933 9.14014 14.0397 8.61073 14.0397L8.51243 14.0401C7.61067 14.0401 6.98067 14.5854 6.98067 15.3654V15.3822C6.98067 16.2045 7.67596 16.4728 8.32538 16.6581L8.42985 16.6905C8.90279 16.8359 9.3122 16.9623 9.3122 17.2941V17.3107C9.3122 17.616 9.04573 17.8436 8.61867 17.8436C8.45261 17.8436 7.92338 17.8408 7.34985 17.4783C7.28049 17.4379 7.24096 17.4088 7.18749 17.3761C7.15926 17.359 7.08867 17.3281 7.05796 17.4206L6.86385 17.9606M21.2815 17.9606C21.2513 18.0393 21.2923 18.0557 21.3023 18.0697C21.3921 18.135 21.4841 18.1823 21.5758 18.2354C22.0664 18.4948 22.5288 18.5707 23.0123 18.5707C23.997 18.5707 24.6094 18.0465 24.6094 17.203V17.1864C24.6094 16.4064 23.9194 16.1223 23.2717 15.9193L23.1872 15.892C22.6984 15.7335 22.2766 15.5955 22.2766 15.2743V15.2579C22.2766 14.9826 22.5237 14.7797 22.9048 14.7797C23.3284 14.7797 23.8313 14.9207 24.156 15.0991C24.156 15.0991 24.2517 15.1609 24.2866 15.0686C24.3053 15.0186 24.4701 14.578 24.486 14.5286C24.5049 14.4769 24.4719 14.4379 24.4384 14.4177C24.0678 14.1919 23.556 14.0383 23.0266 14.0383L22.9281 14.0387C22.0264 14.0387 21.3964 14.584 21.3964 15.364V15.3808C21.3964 16.2031 22.0917 16.4714 22.7411 16.6566L22.8454 16.6891C23.3201 16.8345 23.7277 16.9609 23.7277 17.2927V17.3092C23.7277 17.6145 23.4613 17.8422 23.0342 17.8422C22.8678 17.8422 22.3371 17.8394 21.7654 17.4769C21.696 17.4365 21.6554 17.4086 21.6028 17.3747C21.585 17.3634 21.5019 17.3309 21.4735 17.4192L21.2794 17.9592M31.1264 16.3074C31.1264 16.7839 31.0375 17.1598 30.8635 17.4262C30.6898 17.6892 30.4276 17.818 30.0623 17.818C29.697 17.818 29.4358 17.6902 29.2647 17.428C29.0923 17.1633 29.0053 16.7856 29.0053 16.3092C29.0053 15.8327 29.0928 15.4586 29.2647 15.1956C29.4355 14.9345 29.6953 14.8092 30.0623 14.8092C30.4294 14.8092 30.6905 14.9357 30.8635 15.1956C31.0385 15.4586 31.1264 15.8327 31.1264 16.3092M31.9488 15.425C31.8678 15.1515 31.7423 14.9115 31.5747 14.7103C31.4068 14.5092 31.1953 14.3468 30.9429 14.2303C30.6923 14.113 30.3958 14.0539 30.0605 14.0539C29.7253 14.0539 29.4305 14.1133 29.1782 14.2303C28.9276 14.3475 28.7141 14.5092 28.5464 14.7103C28.3791 14.9115 28.2535 15.1515 28.1723 15.425C28.092 15.6968 28.0513 15.9933 28.0513 16.3092C28.0513 16.6251 28.092 16.9215 28.1723 17.1933C28.253 17.4668 28.3788 17.7068 28.5464 17.908C28.7143 18.1092 28.9276 18.2698 29.1782 18.3845C29.4305 18.4988 29.727 18.5571 30.0605 18.5571C30.3941 18.5571 30.6905 18.4988 30.9411 18.3845C31.1917 18.2701 31.4053 18.1092 31.5729 17.908C31.7404 17.7068 31.8658 17.4668 31.947 17.1933C32.0271 16.9215 32.0679 16.6251 32.0679 16.3092C32.0679 15.9951 32.0271 15.6968 31.947 15.425M38.7058 17.6839C38.6788 17.604 38.6008 17.6341 38.6008 17.6341C38.4814 17.6798 38.3538 17.7222 38.2179 17.7434C38.081 17.7649 37.9285 17.7757 37.7679 17.7757C37.3708 17.7757 37.0532 17.6572 36.8273 17.4227C36.5997 17.188 36.4726 16.8104 36.4744 16.2986C36.4756 15.8327 36.5882 15.4833 36.7903 15.215C36.9897 14.9503 37.2967 14.8127 37.7026 14.8127C38.0414 14.8127 38.3008 14.852 38.5726 14.9371C38.5726 14.9371 38.637 14.9652 38.6679 14.8803C38.7401 14.6809 38.7934 14.5379 38.8708 14.3191C38.8927 14.2564 38.8391 14.23 38.8195 14.2224C38.7129 14.1807 38.4613 14.1124 38.2707 14.0837C38.0924 14.0565 37.886 14.0424 37.653 14.0424C37.3071 14.0424 37.0001 14.1015 36.7371 14.2187C36.4742 14.3357 36.2518 14.4975 36.0754 14.6987C35.8989 14.8999 35.7648 15.1399 35.6748 15.4134C35.5857 15.6852 35.5407 15.9834 35.5407 16.2993C35.5407 16.9805 35.7242 17.5328 36.0877 17.937C36.4513 18.3428 36.9983 18.5475 37.7113 18.5475C38.133 18.5475 38.5654 18.4623 38.876 18.3393C38.876 18.3393 38.9353 18.3107 38.9095 18.2415L38.7065 17.6839M40.1448 15.8486C40.1841 15.5839 40.2567 15.3633 40.3707 15.1921C40.5413 14.9309 40.8013 14.788 41.1665 14.788C41.5318 14.788 41.7736 14.9316 41.9465 15.1921C42.0613 15.3642 42.1114 15.5927 42.1301 15.8486L40.136 15.8482L40.1448 15.8486ZM42.9154 15.2662C42.8453 15.0033 42.6718 14.7368 42.5589 14.615C42.3789 14.4227 42.2042 14.2868 42.0295 14.2127C41.7773 14.1054 41.5059 14.0504 41.2318 14.0509C40.8842 14.0509 40.5683 14.1096 40.3124 14.2291C40.0565 14.3495 39.8413 14.5132 39.6718 14.7179C39.5026 14.9226 39.3754 15.1644 39.2942 15.4415C39.213 15.715 39.1721 16.015 39.1721 16.3291C39.1721 16.6503 39.2146 16.9485 39.2983 17.2185C39.3828 17.4903 39.5188 17.7285 39.7024 17.9262C39.8859 18.1256 40.1206 18.2809 40.403 18.3903C40.6835 18.4988 41.0241 18.5551 41.4141 18.5539C42.2188 18.5513 42.6424 18.3721 42.8153 18.2751C42.8462 18.2578 42.8753 18.228 42.839 18.142L42.6572 17.632C42.6293 17.556 42.5524 17.5835 42.5524 17.5835C42.353 17.658 42.0706 17.7917 41.4088 17.79C40.9765 17.7892 40.6571 17.6617 40.4559 17.4617C40.2512 17.257 40.1488 16.9588 40.133 16.5352L42.9212 16.5374C42.9212 16.5374 42.9946 16.5366 43.0022 16.465C43.0052 16.4354 43.0977 15.8932 42.9191 15.2668L42.9154 15.2662ZM17.8566 15.8486C17.8959 15.5839 17.9686 15.3633 18.0824 15.1921C18.2533 14.9309 18.513 14.788 18.8783 14.788C19.2436 14.788 19.4854 14.9316 19.6583 15.1921C19.7728 15.3642 19.823 15.5927 19.8418 15.8486L17.8477 15.8482L17.8566 15.8486ZM20.6271 15.2662C20.5573 15.0033 20.3836 14.7368 20.2707 14.615C20.0907 14.4227 19.916 14.2868 19.7413 14.2127C19.489 14.1054 19.2177 14.0504 18.9436 14.0509C18.596 14.0509 18.2801 14.1096 18.0242 14.2291C17.7683 14.3495 17.553 14.5132 17.3836 14.7179C17.2147 14.9226 17.0871 15.1644 17.006 15.4415C16.925 15.715 16.8842 16.015 16.8842 16.3291C16.8842 16.6503 16.9264 16.9485 17.0105 17.2185C17.0949 17.4903 17.2311 17.7285 17.4129 17.9262C17.5964 18.1256 17.8311 18.2809 18.1135 18.3903C18.3941 18.4988 18.7329 18.5551 19.1247 18.5539C19.9294 18.5513 20.3529 18.3721 20.5258 18.2751C20.5566 18.2578 20.5858 18.228 20.5493 18.142L20.3675 17.632C20.3395 17.556 20.2625 17.5835 20.2625 17.5835C20.0631 17.658 19.7808 17.7917 19.119 17.79C18.6884 17.7892 18.3673 17.6617 18.1661 17.4617C17.9614 17.257 17.859 16.9588 17.8431 16.5352L20.6314 16.5374C20.6314 16.5374 20.7048 16.5366 20.7124 16.465C20.7154 16.4354 20.8078 15.8932 20.6291 15.2668L20.6271 15.2662ZM11.8389 17.6662C11.7297 17.5791 11.7145 17.5577 11.6783 17.5011C11.6231 17.4158 11.5948 17.2946 11.5948 17.1393C11.5948 16.8958 11.676 16.7193 11.8437 16.6011C11.8419 16.6014 12.0837 16.3928 12.6519 16.3999C12.9048 16.4044 13.1572 16.4259 13.4072 16.4643V17.7296H13.4076C13.4076 17.7296 13.0546 17.8057 12.6558 17.8297C12.0893 17.8637 11.8387 17.6666 11.8405 17.6671L11.8389 17.6662ZM12.9471 15.7074C12.8342 15.6991 12.6877 15.6951 12.513 15.6951C12.2748 15.6951 12.0436 15.7247 11.8283 15.7829C11.6113 15.8415 11.4154 15.9322 11.2477 16.0529C11.0796 16.1729 10.9413 16.3299 10.8436 16.5118C10.745 16.6953 10.6947 16.9106 10.6947 17.1541C10.6947 17.4012 10.7376 17.6147 10.8223 17.7894C10.9053 17.9627 11.0302 18.1125 11.1858 18.2253C11.3406 18.3379 11.5317 18.4212 11.7523 18.4706C11.9711 18.5205 12.2181 18.5458 12.4899 18.5458C12.7758 18.5458 13.0599 18.5218 13.3352 18.4754C13.5697 18.4349 13.8032 18.3895 14.0358 18.3391C14.1286 18.3178 14.2317 18.2897 14.2317 18.2897C14.3005 18.2723 14.2952 18.1987 14.2952 18.1987L14.2936 15.6575C14.2936 15.0998 14.1447 14.6851 13.8507 14.4292C13.5577 14.1733 13.1289 14.0445 12.573 14.0445C12.3648 14.0445 12.0277 14.0727 11.8266 14.1132C11.8266 14.1132 11.2195 14.231 10.9689 14.4273C10.9689 14.4273 10.9138 14.4612 10.9438 14.5379L11.1415 15.0673C11.166 15.136 11.2329 15.1125 11.2329 15.1125C11.2329 15.1125 11.2539 15.1042 11.2786 15.0896C11.8133 14.7984 12.491 14.8072 12.491 14.8072C12.791 14.8072 13.0239 14.8681 13.1792 14.9872C13.3311 15.1039 13.4086 15.2802 13.4086 15.6508V15.7685C13.1704 15.7339 12.9498 15.7139 12.9498 15.7139L12.9471 15.7074ZM35.3589 14.2727C35.3629 14.2634 35.365 14.2534 35.3651 14.2432C35.3651 14.2331 35.3631 14.223 35.3592 14.2137C35.3553 14.2043 35.3496 14.1959 35.3424 14.1888C35.3351 14.1817 35.3265 14.1761 35.3171 14.1724C35.2696 14.1544 35.033 14.1045 34.8512 14.0932C34.5018 14.0713 34.3077 14.1303 34.133 14.2086C33.9604 14.2864 33.7694 14.4116 33.6635 14.5563L33.6632 14.2174C33.6632 14.1709 33.6302 14.1333 33.5833 14.1333H32.8703C32.8241 14.1333 32.7905 14.1709 32.7905 14.2174V18.3645C32.7906 18.387 32.7995 18.4084 32.8154 18.4243C32.8312 18.4401 32.8527 18.449 32.8751 18.4491H33.6057C33.6281 18.449 33.6495 18.4401 33.6653 18.4243C33.6811 18.4084 33.69 18.3869 33.69 18.3645V16.2822C33.69 16.0033 33.7207 15.7263 33.782 15.5516C33.8423 15.3788 33.9244 15.241 34.0255 15.1422C34.122 15.0467 34.24 14.9759 34.3696 14.9357C34.4912 14.9008 34.6172 14.8831 34.7437 14.8831C34.8893 14.8831 35.049 14.9205 35.049 14.9205C35.1027 14.9265 35.1325 14.8937 35.1507 14.8453C35.1985 14.7181 35.3342 14.3371 35.3607 14.2612" fill="#FFFFFE"/>
<path fill-rule="evenodd" clip-rule="evenodd" d="M28.5353 12.3588C28.445 12.3315 28.3532 12.3097 28.2602 12.2935C28.1352 12.2726 28.0086 12.2628 27.8819 12.2642C27.3784 12.2642 26.9815 12.4064 26.7029 12.6873C26.4262 12.9662 26.2379 13.3909 26.1435 13.9498L26.1094 14.1385H25.4775C25.4775 14.1385 25.4003 14.1353 25.3841 14.2195L25.2803 14.7983C25.2731 14.8537 25.2969 14.8883 25.371 14.888H25.9862L25.362 18.372C25.3132 18.6526 25.2572 18.8835 25.1953 19.0583C25.1342 19.2309 25.0746 19.3603 25.0012 19.4542C24.93 19.5451 24.8626 19.6119 24.7463 19.6509C24.6503 19.6832 24.5399 19.6981 24.4188 19.6981C24.3514 19.6981 24.2617 19.6868 24.1956 19.6735C24.1294 19.6605 24.095 19.6456 24.0454 19.6248C24.0454 19.6248 23.9732 19.5973 23.9448 19.6696C23.9217 19.7288 23.7578 20.1797 23.7383 20.2354C23.7186 20.2905 23.7463 20.3339 23.7812 20.3464C23.8631 20.3757 23.924 20.3944 24.0355 20.4207C24.1905 20.4572 24.321 20.4595 24.4433 20.4595C24.6996 20.4595 24.933 20.4235 25.1266 20.3537C25.3215 20.2832 25.491 20.1606 25.641 19.9945C25.8032 19.8154 25.9052 19.6278 26.0028 19.3719C26.0993 19.1183 26.1816 18.8035 26.2474 18.4366L26.8746 14.888H27.7915C27.7915 14.888 27.8688 14.8908 27.8849 14.807L27.9886 14.2281C27.9959 14.1727 27.9722 14.1381 27.8977 14.1385H27.0078C27.0122 14.1184 27.0526 13.8053 27.1548 13.5106C27.1984 13.3848 27.2805 13.2833 27.35 13.2136C27.4149 13.1472 27.4949 13.0974 27.5831 13.0685C27.6798 13.0386 27.7806 13.0241 27.8819 13.0255C27.9657 13.0255 28.0479 13.0355 28.1106 13.0486C28.1969 13.0669 28.2304 13.0766 28.253 13.0833C28.3437 13.1111 28.3559 13.0842 28.3737 13.0403L28.5865 12.4558C28.6084 12.393 28.5551 12.3665 28.5353 12.3588ZM16.0987 18.3795C16.0987 18.426 16.0656 18.464 16.019 18.464H15.2808C15.234 18.464 15.2009 18.426 15.2009 18.3795V12.438C15.2009 12.3916 15.234 12.354 15.2808 12.354H16.019C16.0656 12.354 16.0987 12.3916 16.0987 12.438V18.3795Z" fill="#FFFFFE"/>
</svg>
