<svg width="32" height="32" viewBox="0 0 32 32" fill="none" xmlns="http://www.w3.org/2000/svg">
<path d="M28.9235 14.7689C30.6227 14.7689 32.0002 13.3915 32.0002 11.6923C32.0002 9.9931 30.6226 8.61563 28.9234 8.61563C27.2241 8.61563 25.8463 9.99322 25.8463 11.6926V14.7689H28.9235ZM20.3079 14.7689C22.0072 14.7689 23.3848 13.3914 23.3848 11.692V3.07716C23.3848 1.37783 22.0072 0.000244141 20.3079 0.000244141C18.6085 0.000244141 17.231 1.37783 17.231 3.07717V11.692C17.231 13.3914 18.6085 14.7689 20.3079 14.7689Z" fill="#2EB67D"/>
<path d="M3.07647 17.2311C1.37728 17.2311 -0.00018692 18.6085 -0.00018692 20.3077C-0.00018692 22.0069 1.37741 23.3844 3.0766 23.3844C4.77594 23.3844 6.15366 22.0068 6.15366 20.3074V17.2311H3.07647ZM11.6921 17.2311C9.99278 17.2311 8.6152 18.6086 8.6152 20.308V28.9228C8.6152 30.6222 9.99278 31.9998 11.6921 31.9998C13.3915 31.9998 14.769 30.6222 14.769 28.9228V20.308C14.769 18.6086 13.3915 17.2311 11.6921 17.2311Z" fill="#E01E5A"/>
<path d="M17.2313 28.9233C17.2313 30.6225 18.6088 31.9999 20.308 31.9999C22.0071 31.9999 23.3846 30.6223 23.3846 28.9232C23.3846 27.2238 22.007 25.8461 20.3077 25.8461L17.2313 25.8461L17.2313 28.9233ZM17.2313 20.3076C17.2313 22.007 18.6089 23.3846 20.3082 23.3846L28.9231 23.3846C30.6224 23.3846 32 22.007 32 20.3076C32 18.6083 30.6224 17.2307 28.9231 17.2307L20.3082 17.2307C18.6089 17.2307 17.2313 18.6083 17.2313 20.3076Z" fill="#ECB22E"/>
<path d="M14.7687 3.07672C14.7687 1.37753 13.3912 5.78058e-05 11.692 5.77315e-05C9.99285 5.76573e-05 8.61539 1.37766 8.61539 3.07685C8.61539 4.77619 9.99297 6.1539 11.6923 6.1539L14.7687 6.1539L14.7687 3.07672ZM14.7687 11.6924C14.7687 9.99303 13.3911 8.61544 11.6918 8.61544L3.07692 8.61544C1.37758 8.61544 2.08777e-07 9.99303 1.34497e-07 11.6924C6.02162e-08 13.3917 1.37759 14.7693 3.07692 14.7693L11.6918 14.7693C13.3911 14.7693 14.7687 13.3917 14.7687 11.6924Z" fill="#36C5F0"/>
</svg>
