<svg width="32" height="32" viewBox="0 0 32 32" fill="none" xmlns="http://www.w3.org/2000/svg">
<g clip-path="url(#clip0_21454_171825)">
<g clip-path="url(#clip1_21454_171825)">
<path d="M15.096 0.0590635C19.2073 -0.279433 22.1601 0.811766 25.3373 3.98704C28.7675 7.41521 31.048 11.8578 31.6626 16.5901C32.3464 21.8528 31.4059 25.78 28.5091 28.6552C25.7391 31.4045 21.6933 32.3114 16.2886 31.8596L16.0648 31.8399C11.4625 31.4168 8.20722 29.9078 5.05314 26.7135C1.68411 23.3014 -0.0911901 19.4274 0.00360865 15.3613C0.0499758 13.3707 0.613863 11.6741 1.70135 10.0095C2.41428 8.91822 3.13833 8.06691 4.65284 6.50568L5.15829 5.98795L5.71545 5.42321C9.30478 1.81533 11.6678 0.341314 15.096 0.0590635ZM25.093 4.2315C21.9874 1.12775 19.1342 0.0733633 15.1243 0.403505C11.745 0.681736 9.42424 2.15807 5.79223 5.83671L5.52949 6.1033C3.75989 7.90224 2.93062 8.82202 2.20011 9.88573L2.09382 10.0425L1.99068 10.1985C0.937215 11.8111 0.393931 13.4457 0.349122 15.3693C0.256674 19.3346 1.99196 23.1213 5.29907 26.4707C8.44514 29.6569 11.6772 31.1274 16.3174 31.5152L16.5475 31.5336C21.7454 31.9334 25.6206 31.0353 28.2656 28.4099C31.0759 25.6206 31.991 21.7997 31.3199 16.6346C30.7154 11.9801 28.4706 7.60708 25.093 4.2315ZM20.7918 11.6284V13.3167H17.2061V22.993H15.42V13.3167H11.8344V11.6284H20.7918Z" fill="#262627"/>
</g>
</g>
<defs>
<clipPath id="clip0_21454_171825">
<rect width="32" height="32" fill="white"/>
</clipPath>
<clipPath id="clip1_21454_171825">
<rect width="31.8755" height="32" fill="white"/>
</clipPath>
</defs>
</svg>
