<?xml version="1.0" encoding="utf-8"?>
<!-- Generator: Adobe Illustrator 27.5.0, SVG Export Plug-In . SVG Version: 6.00 Build 0)  -->
<svg version="1.1" id="Layer_1" xmlns="http://www.w3.org/2000/svg" xmlns:xlink="http://www.w3.org/1999/xlink" x="0px" y="0px"
	 viewBox="0 0 70.4 70.1" style="enable-background:new 0 0 70.4 70.1;" xml:space="preserve">
<style type="text/css">
	.st0{clip-path:url(#SVGID_00000023271047170080947520000002285992129337189268_);}
	.st1{display:none;}
	.st2{fill:url(#SVGID_00000120549624257305409730000014468038150694417028_);}
	.st3{fill:url(#SVGID_00000002370777234855254330000005929799258670981566_);}
	.st4{fill:url(#SVGID_00000119828322394076467380000005441119088823721375_);}
	.st5{fill:url(#SVGID_00000020376537959393163450000013550929268046811066_);}
	.st6{fill:url(#SVGID_00000082333593651060571330000009306012191769114292_);}
	.st7{fill:url(#SVGID_00000051365283503090471870000015290108926850650774_);}
	.st8{fill:url(#SVGID_00000173867532281128772670000007803390104590378401_);}
	.st9{fill:url(#SVGID_00000014612407917207236390000000363957261585095559_);}
	.st10{fill:url(#SVGID_00000163766328241790788060000012168938330746257844_);}
	.st11{fill:url(#SVGID_00000183219576598389228800000013219850224854595003_);}
	.st12{fill:url(#SVGID_00000145775826327458544380000017444942632393317552_);}
	.st13{fill:url(#SVGID_00000142885081608790752290000001131451317275018943_);}
	.st14{fill:url(#SVGID_00000100382074362822462080000016635521500719495061_);}
	.st15{fill:url(#SVGID_00000053511199434774548370000007202030717998722493_);}
	.st16{fill:url(#SVGID_00000135682072929711985230000000643859697085241985_);}
	.st17{fill:url(#SVGID_00000119804137369469246570000005981610831325683596_);}
	.st18{fill:url(#SVGID_00000157308406777132050300000007469413771958213273_);}
	.st19{fill:url(#SVGID_00000114771539623580869540000017066641262431079573_);}
	.st20{fill:url(#SVGID_00000178182183110411548070000013465508055310006201_);}
	.st21{fill:url(#SVGID_00000070101752727916419710000004036725628082365064_);}
	.st22{fill:url(#SVGID_00000054264254674721032140000014339455606118022057_);}
	.st23{fill:url(#SVGID_00000137117112244954302890000009388715109572768161_);}
	.st24{fill:url(#SVGID_00000086659385921114207240000005240806135941369998_);}
	.st25{fill:url(#SVGID_00000017502632703899020060000016688034782090600577_);}
	.st26{fill:url(#SVGID_00000158717810887218218920000009064939729771683755_);}
	.st27{fill:url(#SVGID_00000043439467006306943330000007597889134318551182_);}
	.st28{fill:url(#SVGID_00000128471005607985404110000007003160471014401946_);}
	.st29{fill:url(#SVGID_00000173868175871566056480000003447443997593603749_);}
	.st30{fill:url(#SVGID_00000178911972005068487680000005527459360628518055_);}
	.st31{fill:url(#SVGID_00000179603762806552346070000001964245820348163768_);}
	.st32{fill:url(#SVGID_00000009548325485064984740000007290748084629919385_);}
	.st33{fill:url(#SVGID_00000057833868452786062810000010697857999736476094_);}
	.st34{fill:url(#SVGID_00000172435883410727007470000017877712112101151386_);}
	.st35{fill:url(#SVGID_00000038409977900586558470000008657554566610958487_);}
	.st36{fill:url(#SVGID_00000096737693499407098330000016455679046622416287_);}
</style>
<g>
	<g>
		<defs>
			<rect id="SVGID_1_" y="8.8" width="282" height="77.6"/>
		</defs>
		<clipPath id="SVGID_00000008846305671733143670000002701359545883397287_">
			<use xlink:href="#SVGID_1_"  style="overflow:visible;"/>
		</clipPath>
		<g style="clip-path:url(#SVGID_00000008846305671733143670000002701359545883397287_);">
			
				<linearGradient id="SVGID_00000134970893429064141350000011922450779961867187_" gradientUnits="userSpaceOnUse" x1="3.1903" y1="870.614" x2="58.0103" y2="848.4551" gradientTransform="matrix(1 0 0 1 0 -827.7244)">
				<stop  offset="0.13" style="stop-color:#1CBBF3"/>
				<stop  offset="0.34" style="stop-color:#1F99A5"/>
				<stop  offset="0.45" style="stop-color:#209CA6"/>
				<stop  offset="0.51" style="stop-color:#24A4AA"/>
				<stop  offset="0.57" style="stop-color:#2BB3B0"/>
				<stop  offset="0.6" style="stop-color:#30BDB4"/>
				<stop  offset="0.79" style="stop-color:#38BA90"/>
				<stop  offset="1" style="stop-color:#60F05A"/>
			</linearGradient>
			<path style="fill:url(#SVGID_00000134970893429064141350000011922450779961867187_);" d="M16.1,34.3c0.8,2.7,1.8,5.4,3.2,7.9
				c0.6,1.1,1.2,2.2,2.3,2.9c0.2,0.1,0.4,0.2,0.6,0.3c1.6,0.3,2.5-1,3.1-2.1c0.8-1.9,1.5-3.8,2.1-5.8c0.1-0.4,0.2-0.7,0.3-1.1
				c0.2-0.7,0.4-1.4,0.5-2.1l7.1-19c1.5-2,3.4-3.6,5.6-4.7c2.1-1.2,4.5-1.8,7-1.8c3.5,0,7,1.2,9.8,3.4c4.7,3.5,7.4,10.5,7.4,10.5
				c0.4,0.9,0.6,1.9,0.6,2.9c0,0.9-0.2,1.8-0.5,2.7c-0.4,0.8-0.9,1.6-1.5,2.3c-0.6,0.6-1.4,1.2-2.3,1.5c-0.8,0.3-1.8,0.5-2.7,0.5
				c-1,0-2-0.2-2.9-0.7c-0.9-0.4-1.7-1.1-2.4-1.8c0,0,0-0.1-0.1-0.1c-0.4-0.6-0.8-1.3-1.1-2c-0.4-0.9-0.8-1.7-1.3-2.5
				c-0.3-0.4-0.5-0.8-0.8-1.2c-0.2-0.4-0.5-0.7-0.9-1c-0.7-0.5-1.5-0.7-2.2-0.3l-0.1,0.1c-0.8,0.5-1.3,1.6-1.7,2.5
				c-1.1,2.4-1.7,4.8-2.4,7.4c-0.1,0.5-0.2,1-0.3,1.5l-3,9.6l-4.1,9.1c-1.5,1.9-3.4,3.5-5.6,4.5c-2.2,1.1-4.6,1.6-7,1.7
				C12.7,59.6,8,50.5,8,50.5c-5.7-9.4-7.4-21.8-7.8-25.8C0,23.8,0,23.3,0,23.3c0-1.2,0.3-2.5,1-3.5c0.6-1.1,1.5-2,2.6-2.6
				c1.2-0.6,2.4-0.8,3.7-0.8c1.2,0,2.3,0.4,3.4,1c0.8,0.5,1.5,1.1,2,1.8c0.9,1.3,1.2,3,1.3,4.6C14.4,27.4,15.1,30.9,16.1,34.3
				L16.1,34.3z"/>
			
				<radialGradient id="SVGID_00000134958470825210566200000017199232137236951733_" cx="-490.9322" cy="148.4209" r="1" gradientTransform="matrix(7.0811 25.2258 -19.1716 5.3817 6361.5093 11615.1953)" gradientUnits="userSpaceOnUse">
				<stop  offset="0" style="stop-color:#227B60"/>
				<stop  offset="0.14" style="stop-color:#227B60;stop-opacity:0.81"/>
				<stop  offset="0.58" style="stop-color:#227B60;stop-opacity:0.23"/>
				<stop  offset="0.78" style="stop-color:#227B60;stop-opacity:0"/>
			</radialGradient>
			<path style="fill:url(#SVGID_00000134958470825210566200000017199232137236951733_);" d="M16.1,34.3c0.8,2.7,1.8,5.4,3.2,7.9
				c0.6,1.1,1.2,2.2,2.3,2.9c0.2,0.1,0.4,0.2,0.6,0.3c1.6,0.3,2.5-1,3.1-2.1c0.8-1.9,1.5-3.8,2.1-5.8c0.1-0.4,0.2-0.7,0.3-1.1
				c0.2-0.7,0.4-1.4,0.5-2.1l7.1-19c1.5-2,3.4-3.6,5.6-4.7c2.1-1.2,4.5-1.8,7-1.8c3.5,0,7,1.2,9.8,3.4c4.7,3.5,7.4,10.5,7.4,10.5
				c0.4,0.9,0.6,1.9,0.6,2.9c0,0.9-0.2,1.8-0.5,2.7c-0.4,0.8-0.9,1.6-1.5,2.3c-0.6,0.6-1.4,1.2-2.3,1.5c-0.8,0.3-1.8,0.5-2.7,0.5
				c-1,0-2-0.2-2.9-0.7c-0.9-0.4-1.7-1.1-2.4-1.8c0,0,0-0.1-0.1-0.1c-0.4-0.6-0.8-1.3-1.1-2c-0.4-0.9-0.8-1.7-1.3-2.5
				c-0.3-0.4-0.5-0.8-0.8-1.2c-0.2-0.4-0.5-0.7-0.9-1c-0.7-0.5-1.5-0.7-2.2-0.3l-0.1,0.1c-0.8,0.5-1.3,1.6-1.7,2.5
				c-1.1,2.4-1.7,4.8-2.4,7.4c-0.1,0.5-0.2,1-0.3,1.5l-3,9.6l-4.1,9.1c-1.5,1.9-3.4,3.5-5.6,4.5c-2.2,1.1-4.6,1.6-7,1.7
				C12.7,59.6,8,50.5,8,50.5c-5.7-9.4-7.4-21.8-7.8-25.8C0,23.8,0,23.3,0,23.3c0-1.2,0.3-2.5,1-3.5c0.6-1.1,1.5-2,2.6-2.6
				c1.2-0.6,2.4-0.8,3.7-0.8c1.2,0,2.3,0.4,3.4,1c0.8,0.5,1.5,1.1,2,1.8c0.9,1.3,1.2,3,1.3,4.6C14.4,27.4,15.1,30.9,16.1,34.3
				L16.1,34.3z"/>
			
				<radialGradient id="SVGID_00000127756328802365379960000013556469928152680356_" cx="-483.6666" cy="124.8027" r="1" gradientTransform="matrix(-0.3543 17.7138 -13.4606 -0.2692 1552.1698 8629.0811)" gradientUnits="userSpaceOnUse">
				<stop  offset="0" style="stop-color:#227B60"/>
				<stop  offset="0.25" style="stop-color:#227B60;stop-opacity:0.7"/>
				<stop  offset="0.71" style="stop-color:#227B60;stop-opacity:0.2"/>
				<stop  offset="0.92" style="stop-color:#227B60;stop-opacity:0"/>
			</radialGradient>
			<path style="fill:url(#SVGID_00000127756328802365379960000013556469928152680356_);" d="M16.1,34.3c0.8,2.7,1.8,5.4,3.2,7.9
				c0.6,1.1,1.2,2.2,2.3,2.9c0.2,0.1,0.4,0.2,0.6,0.3c1.6,0.3,2.5-1,3.1-2.1c0.8-1.9,1.5-3.8,2.1-5.8c0.1-0.4,0.2-0.7,0.3-1.1
				c0.2-0.7,0.4-1.4,0.5-2.1l7.1-19c1.5-2,3.4-3.6,5.6-4.7c2.1-1.2,4.5-1.8,7-1.8c3.5,0,7,1.2,9.8,3.4c4.7,3.5,7.4,10.5,7.4,10.5
				c0.4,0.9,0.6,1.9,0.6,2.9c0,0.9-0.2,1.8-0.5,2.7c-0.4,0.8-0.9,1.6-1.5,2.3c-0.6,0.6-1.4,1.2-2.3,1.5c-0.8,0.3-1.8,0.5-2.7,0.5
				c-1,0-2-0.2-2.9-0.7c-0.9-0.4-1.7-1.1-2.4-1.8c0,0,0-0.1-0.1-0.1c-0.4-0.6-0.8-1.3-1.1-2c-0.4-0.9-0.8-1.7-1.3-2.5
				c-0.3-0.4-0.5-0.8-0.8-1.2c-0.2-0.4-0.5-0.7-0.9-1c-0.7-0.5-1.5-0.7-2.2-0.3l-0.1,0.1c-0.8,0.5-1.3,1.6-1.7,2.5
				c-1.1,2.4-1.7,4.8-2.4,7.4c-0.1,0.5-0.2,1-0.3,1.5l-3,9.6l-4.1,9.1c-1.5,1.9-3.4,3.5-5.6,4.5c-2.2,1.1-4.6,1.6-7,1.7
				C12.7,59.6,8,50.5,8,50.5c-5.7-9.4-7.4-21.8-7.8-25.8C0,23.8,0,23.3,0,23.3c0-1.2,0.3-2.5,1-3.5c0.6-1.1,1.5-2,2.6-2.6
				c1.2-0.6,2.4-0.8,3.7-0.8c1.2,0,2.3,0.4,3.4,1c0.8,0.5,1.5,1.1,2,1.8c0.9,1.3,1.2,3,1.3,4.6C14.4,27.4,15.1,30.9,16.1,34.3
				L16.1,34.3z"/>
			
				<radialGradient id="SVGID_00000165954826791764524320000016076876525038062505_" cx="-479.5527" cy="121.4731" r="1" gradientTransform="matrix(0.4035 16.5107 -11.7225 0.2865 1660.2411 7911.5942)" gradientUnits="userSpaceOnUse">
				<stop  offset="0" style="stop-color:#227B60"/>
				<stop  offset="7.000000e-02" style="stop-color:#227B60;stop-opacity:0.9"/>
				<stop  offset="0.34" style="stop-color:#227B60;stop-opacity:0.51"/>
				<stop  offset="0.59" style="stop-color:#227B60;stop-opacity:0.23"/>
				<stop  offset="0.79" style="stop-color:#227B60;stop-opacity:6.000000e-02"/>
				<stop  offset="0.92" style="stop-color:#227B60;stop-opacity:0"/>
			</radialGradient>
			<path style="fill:url(#SVGID_00000165954826791764524320000016076876525038062505_);" d="M16.1,34.3c0.8,2.7,1.8,5.4,3.2,7.9
				c0.6,1.1,1.2,2.2,2.3,2.9c0.2,0.1,0.4,0.2,0.6,0.3c1.6,0.3,2.5-1,3.1-2.1c0.8-1.9,1.5-3.8,2.1-5.8c0.1-0.4,0.2-0.7,0.3-1.1
				c0.2-0.7,0.4-1.4,0.5-2.1l7.1-19c1.5-2,3.4-3.6,5.6-4.7c2.1-1.2,4.5-1.8,7-1.8c3.5,0,7,1.2,9.8,3.4c4.7,3.5,7.4,10.5,7.4,10.5
				c0.4,0.9,0.6,1.9,0.6,2.9c0,0.9-0.2,1.8-0.5,2.7c-0.4,0.8-0.9,1.6-1.5,2.3c-0.6,0.6-1.4,1.2-2.3,1.5c-0.8,0.3-1.8,0.5-2.7,0.5
				c-1,0-2-0.2-2.9-0.7c-0.9-0.4-1.7-1.1-2.4-1.8c0,0,0-0.1-0.1-0.1c-0.4-0.6-0.8-1.3-1.1-2c-0.4-0.9-0.8-1.7-1.3-2.5
				c-0.3-0.4-0.5-0.8-0.8-1.2c-0.2-0.4-0.5-0.7-0.9-1c-0.7-0.5-1.5-0.7-2.2-0.3l-0.1,0.1c-0.8,0.5-1.3,1.6-1.7,2.5
				c-1.1,2.4-1.7,4.8-2.4,7.4c-0.1,0.5-0.2,1-0.3,1.5l-3,9.6l-4.1,9.1c-1.5,1.9-3.4,3.5-5.6,4.5c-2.2,1.1-4.6,1.6-7,1.7
				C12.7,59.6,8,50.5,8,50.5c-5.7-9.4-7.4-21.8-7.8-25.8C0,23.8,0,23.3,0,23.3c0-1.2,0.3-2.5,1-3.5c0.6-1.1,1.5-2,2.6-2.6
				c1.2-0.6,2.4-0.8,3.7-0.8c1.2,0,2.3,0.4,3.4,1c0.8,0.5,1.5,1.1,2,1.8c0.9,1.3,1.2,3,1.3,4.6C14.4,27.4,15.1,30.9,16.1,34.3
				L16.1,34.3z"/>
			
				<radialGradient id="SVGID_00000018217962447453315710000005208470510364425641_" cx="-469.6675" cy="111.214" r="1" gradientTransform="matrix(0.3258 13.3312 -9.4652 0.2313 1248.7394 6263.4141)" gradientUnits="userSpaceOnUse">
				<stop  offset="0" style="stop-color:#227B60"/>
				<stop  offset="0.36" style="stop-color:#227B60;stop-opacity:0.63"/>
				<stop  offset="0.92" style="stop-color:#227B60;stop-opacity:0"/>
			</radialGradient>
			<path style="fill:url(#SVGID_00000018217962447453315710000005208470510364425641_);" d="M16.1,34.3c0.8,2.7,1.8,5.4,3.2,7.9
				c0.6,1.1,1.2,2.2,2.3,2.9c0.2,0.1,0.4,0.2,0.6,0.3c1.6,0.3,2.5-1,3.1-2.1c0.8-1.9,1.5-3.8,2.1-5.8c0.1-0.4,0.2-0.7,0.3-1.1
				c0.2-0.7,0.4-1.4,0.5-2.1l7.1-19c1.5-2,3.4-3.6,5.6-4.7c2.1-1.2,4.5-1.8,7-1.8c3.5,0,7,1.2,9.8,3.4c4.7,3.5,7.4,10.5,7.4,10.5
				c0.4,0.9,0.6,1.9,0.6,2.9c0,0.9-0.2,1.8-0.5,2.7c-0.4,0.8-0.9,1.6-1.5,2.3c-0.6,0.6-1.4,1.2-2.3,1.5c-0.8,0.3-1.8,0.5-2.7,0.5
				c-1,0-2-0.2-2.9-0.7c-0.9-0.4-1.7-1.1-2.4-1.8c0,0,0-0.1-0.1-0.1c-0.4-0.6-0.8-1.3-1.1-2c-0.4-0.9-0.8-1.7-1.3-2.5
				c-0.3-0.4-0.5-0.8-0.8-1.2c-0.2-0.4-0.5-0.7-0.9-1c-0.7-0.5-1.5-0.7-2.2-0.3l-0.1,0.1c-0.8,0.5-1.3,1.6-1.7,2.5
				c-1.1,2.4-1.7,4.8-2.4,7.4c-0.1,0.5-0.2,1-0.3,1.5l-3,9.6l-4.1,9.1c-1.5,1.9-3.4,3.5-5.6,4.5c-2.2,1.1-4.6,1.6-7,1.7
				C12.7,59.6,8,50.5,8,50.5c-5.7-9.4-7.4-21.8-7.8-25.8C0,23.8,0,23.3,0,23.3c0-1.2,0.3-2.5,1-3.5c0.6-1.1,1.5-2,2.6-2.6
				c1.2-0.6,2.4-0.8,3.7-0.8c1.2,0,2.3,0.4,3.4,1c0.8,0.5,1.5,1.1,2,1.8c0.9,1.3,1.2,3,1.3,4.6C14.4,27.4,15.1,30.9,16.1,34.3
				L16.1,34.3z"/>
			
				<radialGradient id="SVGID_00000150820289434797328120000005103981940098015923_" cx="-456.638" cy="90.3852" r="1" gradientTransform="matrix(0.2599 10.6324 -6.8048 0.1663 777.3681 4868.771)" gradientUnits="userSpaceOnUse">
				<stop  offset="0" style="stop-color:#20735A"/>
				<stop  offset="0.15" style="stop-color:#20745A;stop-opacity:0.93"/>
				<stop  offset="0.38" style="stop-color:#21755C;stop-opacity:0.74"/>
				<stop  offset="0.67" style="stop-color:#21785D;stop-opacity:0.43"/>
				<stop  offset="1" style="stop-color:#227B60;stop-opacity:0"/>
			</radialGradient>
			<path style="fill:url(#SVGID_00000150820289434797328120000005103981940098015923_);" d="M16.1,34.3c0.8,2.7,1.8,5.4,3.2,7.9
				c0.6,1.1,1.2,2.2,2.3,2.9c0.2,0.1,0.4,0.2,0.6,0.3c1.6,0.3,2.5-1,3.1-2.1c0.8-1.9,1.5-3.8,2.1-5.8c0.1-0.4,0.2-0.7,0.3-1.1
				c0.2-0.7,0.4-1.4,0.5-2.1l7.1-19c1.5-2,3.4-3.6,5.6-4.7c2.1-1.2,4.5-1.8,7-1.8c3.5,0,7,1.2,9.8,3.4c4.7,3.5,7.4,10.5,7.4,10.5
				c0.4,0.9,0.6,1.9,0.6,2.9c0,0.9-0.2,1.8-0.5,2.7c-0.4,0.8-0.9,1.6-1.5,2.3c-0.6,0.6-1.4,1.2-2.3,1.5c-0.8,0.3-1.8,0.5-2.7,0.5
				c-1,0-2-0.2-2.9-0.7c-0.9-0.4-1.7-1.1-2.4-1.8c0,0,0-0.1-0.1-0.1c-0.4-0.6-0.8-1.3-1.1-2c-0.4-0.9-0.8-1.7-1.3-2.5
				c-0.3-0.4-0.5-0.8-0.8-1.2c-0.2-0.4-0.5-0.7-0.9-1c-0.7-0.5-1.5-0.7-2.2-0.3l-0.1,0.1c-0.8,0.5-1.3,1.6-1.7,2.5
				c-1.1,2.4-1.7,4.8-2.4,7.4c-0.1,0.5-0.2,1-0.3,1.5l-3,9.6l-4.1,9.1c-1.5,1.9-3.4,3.5-5.6,4.5c-2.2,1.1-4.6,1.6-7,1.7
				C12.7,59.6,8,50.5,8,50.5c-5.7-9.4-7.4-21.8-7.8-25.8C0,23.8,0,23.3,0,23.3c0-1.2,0.3-2.5,1-3.5c0.6-1.1,1.5-2,2.6-2.6
				c1.2-0.6,2.4-0.8,3.7-0.8c1.2,0,2.3,0.4,3.4,1c0.8,0.5,1.5,1.1,2,1.8c0.9,1.3,1.2,3,1.3,4.6C14.4,27.4,15.1,30.9,16.1,34.3
				L16.1,34.3z"/>
			
				<radialGradient id="SVGID_00000083794586340220976710000013615804134074545074_" cx="-477.3019" cy="196.0121" r="1" gradientTransform="matrix(15.6592 6.9065 -5.1799 11.7444 8534.5449 1024.8068)" gradientUnits="userSpaceOnUse">
				<stop  offset="0" style="stop-color:#227A61"/>
				<stop  offset="0.36" style="stop-color:#227A61;stop-opacity:0.56"/>
				<stop  offset="0.72" style="stop-color:#227A61;stop-opacity:0.16"/>
				<stop  offset="0.9" style="stop-color:#227A61;stop-opacity:0"/>
			</radialGradient>
			<path style="fill:url(#SVGID_00000083794586340220976710000013615804134074545074_);" d="M16.1,34.3c0.8,2.7,1.8,5.4,3.2,7.9
				c0.6,1.1,1.2,2.2,2.3,2.9c0.2,0.1,0.4,0.2,0.6,0.3c1.6,0.3,2.5-1,3.1-2.1c0.8-1.9,1.5-3.8,2.1-5.8c0.1-0.4,0.2-0.7,0.3-1.1
				c0.2-0.7,0.4-1.4,0.5-2.1l7.1-19c1.5-2,3.4-3.6,5.6-4.7c2.1-1.2,4.5-1.8,7-1.8c3.5,0,7,1.2,9.8,3.4c4.7,3.5,7.4,10.5,7.4,10.5
				c0.4,0.9,0.6,1.9,0.6,2.9c0,0.9-0.2,1.8-0.5,2.7c-0.4,0.8-0.9,1.6-1.5,2.3c-0.6,0.6-1.4,1.2-2.3,1.5c-0.8,0.3-1.8,0.5-2.7,0.5
				c-1,0-2-0.2-2.9-0.7c-0.9-0.4-1.7-1.1-2.4-1.8c0,0,0-0.1-0.1-0.1c-0.4-0.6-0.8-1.3-1.1-2c-0.4-0.9-0.8-1.7-1.3-2.5
				c-0.3-0.4-0.5-0.8-0.8-1.2c-0.2-0.4-0.5-0.7-0.9-1c-0.7-0.5-1.5-0.7-2.2-0.3l-0.1,0.1c-0.8,0.5-1.3,1.6-1.7,2.5
				c-1.1,2.4-1.7,4.8-2.4,7.4c-0.1,0.5-0.2,1-0.3,1.5l-3,9.6l-4.1,9.1c-1.5,1.9-3.4,3.5-5.6,4.5c-2.2,1.1-4.6,1.6-7,1.7
				C12.7,59.6,8,50.5,8,50.5c-5.7-9.4-7.4-21.8-7.8-25.8C0,23.8,0,23.3,0,23.3c0-1.2,0.3-2.5,1-3.5c0.6-1.1,1.5-2,2.6-2.6
				c1.2-0.6,2.4-0.8,3.7-0.8c1.2,0,2.3,0.4,3.4,1c0.8,0.5,1.5,1.1,2,1.8c0.9,1.3,1.2,3,1.3,4.6C14.4,27.4,15.1,30.9,16.1,34.3
				L16.1,34.3z"/>
			
				<radialGradient id="SVGID_00000092424964601061374800000012704605165051603098_" cx="-485.3623" cy="176.3633" r="1" gradientTransform="matrix(18.6342 13.1803 -12.0515 17.0383 11208.9414 3394.8459)" gradientUnits="userSpaceOnUse">
				<stop  offset="0" style="stop-color:#3CD9C3"/>
				<stop  offset="7.000000e-02" style="stop-color:#3BD7C1;stop-opacity:0.9"/>
				<stop  offset="0.41" style="stop-color:#38CEB9;stop-opacity:0.42"/>
				<stop  offset="0.65" style="stop-color:#36C8B4;stop-opacity:0.12"/>
				<stop  offset="0.76" style="stop-color:#35C6B2;stop-opacity:0"/>
			</radialGradient>
			<path style="fill:url(#SVGID_00000092424964601061374800000012704605165051603098_);" d="M16.1,34.3c0.8,2.7,1.8,5.4,3.2,7.9
				c0.6,1.1,1.2,2.2,2.3,2.9c0.2,0.1,0.4,0.2,0.6,0.3c1.6,0.3,2.5-1,3.1-2.1c0.8-1.9,1.5-3.8,2.1-5.8c0.1-0.4,0.2-0.7,0.3-1.1
				c0.2-0.7,0.4-1.4,0.5-2.1l7.1-19c1.5-2,3.4-3.6,5.6-4.7c2.1-1.2,4.5-1.8,7-1.8c3.5,0,7,1.2,9.8,3.4c4.7,3.5,7.4,10.5,7.4,10.5
				c0.4,0.9,0.6,1.9,0.6,2.9c0,0.9-0.2,1.8-0.5,2.7c-0.4,0.8-0.9,1.6-1.5,2.3c-0.6,0.6-1.4,1.2-2.3,1.5c-0.8,0.3-1.8,0.5-2.7,0.5
				c-1,0-2-0.2-2.9-0.7c-0.9-0.4-1.7-1.1-2.4-1.8c0,0,0-0.1-0.1-0.1c-0.4-0.6-0.8-1.3-1.1-2c-0.4-0.9-0.8-1.7-1.3-2.5
				c-0.3-0.4-0.5-0.8-0.8-1.2c-0.2-0.4-0.5-0.7-0.9-1c-0.7-0.5-1.5-0.7-2.2-0.3l-0.1,0.1c-0.8,0.5-1.3,1.6-1.7,2.5
				c-1.1,2.4-1.7,4.8-2.4,7.4c-0.1,0.5-0.2,1-0.3,1.5l-3,9.6l-4.1,9.1c-1.5,1.9-3.4,3.5-5.6,4.5c-2.2,1.1-4.6,1.6-7,1.7
				C12.7,59.6,8,50.5,8,50.5c-5.7-9.4-7.4-21.8-7.8-25.8C0,23.8,0,23.3,0,23.3c0-1.2,0.3-2.5,1-3.5c0.6-1.1,1.5-2,2.6-2.6
				c1.2-0.6,2.4-0.8,3.7-0.8c1.2,0,2.3,0.4,3.4,1c0.8,0.5,1.5,1.1,2,1.8c0.9,1.3,1.2,3,1.3,4.6C14.4,27.4,15.1,30.9,16.1,34.3
				L16.1,34.3z"/>
			
				<radialGradient id="SVGID_00000154409918558389222660000002222865855251405244_" cx="-520.7994" cy="164.578" r="1" gradientTransform="matrix(3310.5498 2341.6067 -1643.2212 2323.1768 1957141.125 786311.5625)" gradientUnits="userSpaceOnUse">
				<stop  offset="0" style="stop-color:#3CD9C3"/>
				<stop  offset="7.000000e-02" style="stop-color:#3BD7C1;stop-opacity:0.9"/>
				<stop  offset="0.41" style="stop-color:#38CEB9;stop-opacity:0.42"/>
				<stop  offset="0.65" style="stop-color:#36C8B4;stop-opacity:0.12"/>
				<stop  offset="0.76" style="stop-color:#35C6B2;stop-opacity:0"/>
			</radialGradient>
			<path style="fill:url(#SVGID_00000154409918558389222660000002222865855251405244_);" d="M16.1,34.3c0.8,2.7,1.8,5.4,3.2,7.9
				c0.6,1.1,1.2,2.2,2.3,2.9c0.2,0.1,0.4,0.2,0.6,0.3c1.6,0.3,2.5-1,3.1-2.1c0.8-1.9,1.5-3.8,2.1-5.8c0.1-0.4,0.2-0.7,0.3-1.1
				c0.2-0.7,0.4-1.4,0.5-2.1l7.1-19c1.5-2,3.4-3.6,5.6-4.7c2.1-1.2,4.5-1.8,7-1.8c3.5,0,7,1.2,9.8,3.4c4.7,3.5,7.4,10.5,7.4,10.5
				c0.4,0.9,0.6,1.9,0.6,2.9c0,0.9-0.2,1.8-0.5,2.7c-0.4,0.8-0.9,1.6-1.5,2.3c-0.6,0.6-1.4,1.2-2.3,1.5c-0.8,0.3-1.8,0.5-2.7,0.5
				c-1,0-2-0.2-2.9-0.7c-0.9-0.4-1.7-1.1-2.4-1.8c0,0,0-0.1-0.1-0.1c-0.4-0.6-0.8-1.3-1.1-2c-0.4-0.9-0.8-1.7-1.3-2.5
				c-0.3-0.4-0.5-0.8-0.8-1.2c-0.2-0.4-0.5-0.7-0.9-1c-0.7-0.5-1.5-0.7-2.2-0.3l-0.1,0.1c-0.8,0.5-1.3,1.6-1.7,2.5
				c-1.1,2.4-1.7,4.8-2.4,7.4c-0.1,0.5-0.2,1-0.3,1.5l-3,9.6l-4.1,9.1c-1.5,1.9-3.4,3.5-5.6,4.5c-2.2,1.1-4.6,1.6-7,1.7
				C12.7,59.6,8,50.5,8,50.5c-5.7-9.4-7.4-21.8-7.8-25.8C0,23.8,0,23.3,0,23.3c0-1.2,0.3-2.5,1-3.5c0.6-1.1,1.5-2,2.6-2.6
				c1.2-0.6,2.4-0.8,3.7-0.8c1.2,0,2.3,0.4,3.4,1c0.8,0.5,1.5,1.1,2,1.8c0.9,1.3,1.2,3,1.3,4.6C14.4,27.4,15.1,30.9,16.1,34.3
				L16.1,34.3z"/>
			
				<radialGradient id="SVGID_00000041258625715635125310000005018510709674221983_" cx="-493.1536" cy="138.7876" r="1" gradientTransform="matrix(-3.8314 19.7622 -24.4207 -4.7345 1548.1359 10437.6133)" gradientUnits="userSpaceOnUse">
				<stop  offset="0" style="stop-color:#237F66;stop-opacity:0.8"/>
				<stop  offset="6.000000e-02" style="stop-color:#2C8C70;stop-opacity:0.65"/>
				<stop  offset="0.21" style="stop-color:#3DA785;stop-opacity:0.37"/>
				<stop  offset="0.35" style="stop-color:#4ABA93;stop-opacity:0.17"/>
				<stop  offset="0.47" style="stop-color:#51C59C;stop-opacity:4.000000e-02"/>
				<stop  offset="0.56" style="stop-color:#54C99F;stop-opacity:0"/>
			</radialGradient>
			<path style="fill:url(#SVGID_00000041258625715635125310000005018510709674221983_);" d="M16.1,34.3c0.8,2.7,1.8,5.4,3.2,7.9
				c0.6,1.1,1.2,2.2,2.3,2.9c0.2,0.1,0.4,0.2,0.6,0.3c1.6,0.3,2.5-1,3.1-2.1c0.8-1.9,1.5-3.8,2.1-5.8c0.1-0.4,0.2-0.7,0.3-1.1
				c0.2-0.7,0.4-1.4,0.5-2.1l7.1-19c1.5-2,3.4-3.6,5.6-4.7c2.1-1.2,4.5-1.8,7-1.8c3.5,0,7,1.2,9.8,3.4c4.7,3.5,7.4,10.5,7.4,10.5
				c0.4,0.9,0.6,1.9,0.6,2.9c0,0.9-0.2,1.8-0.5,2.7c-0.4,0.8-0.9,1.6-1.5,2.3c-0.6,0.6-1.4,1.2-2.3,1.5c-0.8,0.3-1.8,0.5-2.7,0.5
				c-1,0-2-0.2-2.9-0.7c-0.9-0.4-1.7-1.1-2.4-1.8c0,0,0-0.1-0.1-0.1c-0.4-0.6-0.8-1.3-1.1-2c-0.4-0.9-0.8-1.7-1.3-2.5
				c-0.3-0.4-0.5-0.8-0.8-1.2c-0.2-0.4-0.5-0.7-0.9-1c-0.7-0.5-1.5-0.7-2.2-0.3l-0.1,0.1c-0.8,0.5-1.3,1.6-1.7,2.5
				c-1.1,2.4-1.7,4.8-2.4,7.4c-0.1,0.5-0.2,1-0.3,1.5l-3,9.6l-4.1,9.1c-1.5,1.9-3.4,3.5-5.6,4.5c-2.2,1.1-4.6,1.6-7,1.7
				C12.7,59.6,8,50.5,8,50.5c-5.7-9.4-7.4-21.8-7.8-25.8C0,23.8,0,23.3,0,23.3c0-1.2,0.3-2.5,1-3.5c0.6-1.1,1.5-2,2.6-2.6
				c1.2-0.6,2.4-0.8,3.7-0.8c1.2,0,2.3,0.4,3.4,1c0.8,0.5,1.5,1.1,2,1.8c0.9,1.3,1.2,3,1.3,4.6C14.4,27.4,15.1,30.9,16.1,34.3
				L16.1,34.3z"/>
			
				<radialGradient id="SVGID_00000051342968043620917540000004178793022818339462_" cx="-528.2903" cy="193.6511" r="1" gradientTransform="matrix(16.618 -20.3902 22.0214 17.9474 4551.8076 -14211.7549)" gradientUnits="userSpaceOnUse">
				<stop  offset="0" style="stop-color:#167C8A"/>
				<stop  offset="4.000000e-02" style="stop-color:#167C8A;stop-opacity:0.93"/>
				<stop  offset="0.33" style="stop-color:#177F8D;stop-opacity:0.43"/>
				<stop  offset="0.54" style="stop-color:#17818F;stop-opacity:0.12"/>
				<stop  offset="0.65" style="stop-color:#178290;stop-opacity:0"/>
			</radialGradient>
			<path style="fill:url(#SVGID_00000051342968043620917540000004178793022818339462_);" d="M16.1,34.3c0.8,2.7,1.8,5.4,3.2,7.9
				c0.6,1.1,1.2,2.2,2.3,2.9c0.2,0.1,0.4,0.2,0.6,0.3c1.6,0.3,2.5-1,3.1-2.1c0.8-1.9,1.5-3.8,2.1-5.8c0.1-0.4,0.2-0.7,0.3-1.1
				c0.2-0.7,0.4-1.4,0.5-2.1l7.1-19c1.5-2,3.4-3.6,5.6-4.7c2.1-1.2,4.5-1.8,7-1.8c3.5,0,7,1.2,9.8,3.4c4.7,3.5,7.4,10.5,7.4,10.5
				c0.4,0.9,0.6,1.9,0.6,2.9c0,0.9-0.2,1.8-0.5,2.7c-0.4,0.8-0.9,1.6-1.5,2.3c-0.6,0.6-1.4,1.2-2.3,1.5c-0.8,0.3-1.8,0.5-2.7,0.5
				c-1,0-2-0.2-2.9-0.7c-0.9-0.4-1.7-1.1-2.4-1.8c0,0,0-0.1-0.1-0.1c-0.4-0.6-0.8-1.3-1.1-2c-0.4-0.9-0.8-1.7-1.3-2.5
				c-0.3-0.4-0.5-0.8-0.8-1.2c-0.2-0.4-0.5-0.7-0.9-1c-0.7-0.5-1.5-0.7-2.2-0.3l-0.1,0.1c-0.8,0.5-1.3,1.6-1.7,2.5
				c-1.1,2.4-1.7,4.8-2.4,7.4c-0.1,0.5-0.2,1-0.3,1.5l-3,9.6l-4.1,9.1c-1.5,1.9-3.4,3.5-5.6,4.5c-2.2,1.1-4.6,1.6-7,1.7
				C12.7,59.6,8,50.5,8,50.5c-5.7-9.4-7.4-21.8-7.8-25.8C0,23.8,0,23.3,0,23.3c0-1.2,0.3-2.5,1-3.5c0.6-1.1,1.5-2,2.6-2.6
				c1.2-0.6,2.4-0.8,3.7-0.8c1.2,0,2.3,0.4,3.4,1c0.8,0.5,1.5,1.1,2,1.8c0.9,1.3,1.2,3,1.3,4.6C14.4,27.4,15.1,30.9,16.1,34.3
				L16.1,34.3z"/>
			
				<radialGradient id="SVGID_00000057147622190355419680000004471490687816823700_" cx="-517.4636" cy="206.196" r="1" gradientTransform="matrix(21.842 -13.4688 10.6404 17.2552 9143.9834 -10489.2275)" gradientUnits="userSpaceOnUse">
				<stop  offset="5.000000e-02" style="stop-color:#177D87"/>
				<stop  offset="0.11" style="stop-color:#177E89;stop-opacity:0.8"/>
				<stop  offset="0.21" style="stop-color:#177F8B;stop-opacity:0.52"/>
				<stop  offset="0.32" style="stop-color:#17818D;stop-opacity:0.29"/>
				<stop  offset="0.42" style="stop-color:#17818F;stop-opacity:0.13"/>
				<stop  offset="0.51" style="stop-color:#178290;stop-opacity:3.000000e-02"/>
				<stop  offset="0.6" style="stop-color:#178290;stop-opacity:0"/>
			</radialGradient>
			<path style="fill:url(#SVGID_00000057147622190355419680000004471490687816823700_);" d="M16.1,34.3c0.8,2.7,1.8,5.4,3.2,7.9
				c0.6,1.1,1.2,2.2,2.3,2.9c0.2,0.1,0.4,0.2,0.6,0.3c1.6,0.3,2.5-1,3.1-2.1c0.8-1.9,1.5-3.8,2.1-5.8c0.1-0.4,0.2-0.7,0.3-1.1
				c0.2-0.7,0.4-1.4,0.5-2.1l7.1-19c1.5-2,3.4-3.6,5.6-4.7c2.1-1.2,4.5-1.8,7-1.8c3.5,0,7,1.2,9.8,3.4c4.7,3.5,7.4,10.5,7.4,10.5
				c0.4,0.9,0.6,1.9,0.6,2.9c0,0.9-0.2,1.8-0.5,2.7c-0.4,0.8-0.9,1.6-1.5,2.3c-0.6,0.6-1.4,1.2-2.3,1.5c-0.8,0.3-1.8,0.5-2.7,0.5
				c-1,0-2-0.2-2.9-0.7c-0.9-0.4-1.7-1.1-2.4-1.8c0,0,0-0.1-0.1-0.1c-0.4-0.6-0.8-1.3-1.1-2c-0.4-0.9-0.8-1.7-1.3-2.5
				c-0.3-0.4-0.5-0.8-0.8-1.2c-0.2-0.4-0.5-0.7-0.9-1c-0.7-0.5-1.5-0.7-2.2-0.3l-0.1,0.1c-0.8,0.5-1.3,1.6-1.7,2.5
				c-1.1,2.4-1.7,4.8-2.4,7.4c-0.1,0.5-0.2,1-0.3,1.5l-3,9.6l-4.1,9.1c-1.5,1.9-3.4,3.5-5.6,4.5c-2.2,1.1-4.6,1.6-7,1.7
				C12.7,59.6,8,50.5,8,50.5c-5.7-9.4-7.4-21.8-7.8-25.8C0,23.8,0,23.3,0,23.3c0-1.2,0.3-2.5,1-3.5c0.6-1.1,1.5-2,2.6-2.6
				c1.2-0.6,2.4-0.8,3.7-0.8c1.2,0,2.3,0.4,3.4,1c0.8,0.5,1.5,1.1,2,1.8c0.9,1.3,1.2,3,1.3,4.6C14.4,27.4,15.1,30.9,16.1,34.3
				L16.1,34.3z"/>
			
				<radialGradient id="SVGID_00000126320062257819643960000014696834525479903415_" cx="-576.553" cy="161.0987" r="1" gradientTransform="matrix(-9.9371 -11.6188 9.1488 -7.8246 -7172.9014 -5400.3047)" gradientUnits="userSpaceOnUse">
				<stop  offset="0.26" style="stop-color:#177F8A"/>
				<stop  offset="0.27" style="stop-color:#177F8A;stop-opacity:0.98"/>
				<stop  offset="0.38" style="stop-color:#17808C;stop-opacity:0.68"/>
				<stop  offset="0.5" style="stop-color:#17818D;stop-opacity:0.43"/>
				<stop  offset="0.62" style="stop-color:#17818F;stop-opacity:0.24"/>
				<stop  offset="0.74" style="stop-color:#17828F;stop-opacity:0.11"/>
				<stop  offset="0.86" style="stop-color:#178290;stop-opacity:3.000000e-02"/>
				<stop  offset="1" style="stop-color:#178290;stop-opacity:0"/>
			</radialGradient>
			<path style="fill:url(#SVGID_00000126320062257819643960000014696834525479903415_);" d="M16.1,34.3c0.8,2.7,1.8,5.4,3.2,7.9
				c0.6,1.1,1.2,2.2,2.3,2.9c0.2,0.1,0.4,0.2,0.6,0.3c1.6,0.3,2.5-1,3.1-2.1c0.8-1.9,1.5-3.8,2.1-5.8c0.1-0.4,0.2-0.7,0.3-1.1
				c0.2-0.7,0.4-1.4,0.5-2.1l7.1-19c1.5-2,3.4-3.6,5.6-4.7c2.1-1.2,4.5-1.8,7-1.8c3.5,0,7,1.2,9.8,3.4c4.7,3.5,7.4,10.5,7.4,10.5
				c0.4,0.9,0.6,1.9,0.6,2.9c0,0.9-0.2,1.8-0.5,2.7c-0.4,0.8-0.9,1.6-1.5,2.3c-0.6,0.6-1.4,1.2-2.3,1.5c-0.8,0.3-1.8,0.5-2.7,0.5
				c-1,0-2-0.2-2.9-0.7c-0.9-0.4-1.7-1.1-2.4-1.8c0,0,0-0.1-0.1-0.1c-0.4-0.6-0.8-1.3-1.1-2c-0.4-0.9-0.8-1.7-1.3-2.5
				c-0.3-0.4-0.5-0.8-0.8-1.2c-0.2-0.4-0.5-0.7-0.9-1c-0.7-0.5-1.5-0.7-2.2-0.3l-0.1,0.1c-0.8,0.5-1.3,1.6-1.7,2.5
				c-1.1,2.4-1.7,4.8-2.4,7.4c-0.1,0.5-0.2,1-0.3,1.5l-3,9.6l-4.1,9.1c-1.5,1.9-3.4,3.5-5.6,4.5c-2.2,1.1-4.6,1.6-7,1.7
				C12.7,59.6,8,50.5,8,50.5c-5.7-9.4-7.4-21.8-7.8-25.8C0,23.8,0,23.3,0,23.3c0-1.2,0.3-2.5,1-3.5c0.6-1.1,1.5-2,2.6-2.6
				c1.2-0.6,2.4-0.8,3.7-0.8c1.2,0,2.3,0.4,3.4,1c0.8,0.5,1.5,1.1,2,1.8c0.9,1.3,1.2,3,1.3,4.6C14.4,27.4,15.1,30.9,16.1,34.3
				L16.1,34.3z"/>
			
				<radialGradient id="SVGID_00000124124794481221687310000016186470630560631480_" cx="-562.6882" cy="122.3291" r="1" gradientTransform="matrix(-14.2375 -1.7204 1.7204 -14.2375 -8195.252 816.1427)" gradientUnits="userSpaceOnUse">
				<stop  offset="0" style="stop-color:#13656E"/>
				<stop  offset="0.11" style="stop-color:#13646E;stop-opacity:0.73"/>
				<stop  offset="0.27" style="stop-color:#12646E;stop-opacity:0.41"/>
				<stop  offset="0.42" style="stop-color:#12636E;stop-opacity:0.18"/>
				<stop  offset="0.55" style="stop-color:#12636E;stop-opacity:5.000000e-02"/>
				<stop  offset="0.66" style="stop-color:#12636E;stop-opacity:0"/>
			</radialGradient>
			<path style="fill:url(#SVGID_00000124124794481221687310000016186470630560631480_);" d="M16.1,34.3c0.8,2.7,1.8,5.4,3.2,7.9
				c0.6,1.1,1.2,2.2,2.3,2.9c0.2,0.1,0.4,0.2,0.6,0.3c1.6,0.3,2.5-1,3.1-2.1c0.8-1.9,1.5-3.8,2.1-5.8c0.1-0.4,0.2-0.7,0.3-1.1
				c0.2-0.7,0.4-1.4,0.5-2.1l7.1-19c1.5-2,3.4-3.6,5.6-4.7c2.1-1.2,4.5-1.8,7-1.8c3.5,0,7,1.2,9.8,3.4c4.7,3.5,7.4,10.5,7.4,10.5
				c0.4,0.9,0.6,1.9,0.6,2.9c0,0.9-0.2,1.8-0.5,2.7c-0.4,0.8-0.9,1.6-1.5,2.3c-0.6,0.6-1.4,1.2-2.3,1.5c-0.8,0.3-1.8,0.5-2.7,0.5
				c-1,0-2-0.2-2.9-0.7c-0.9-0.4-1.7-1.1-2.4-1.8c0,0,0-0.1-0.1-0.1c-0.4-0.6-0.8-1.3-1.1-2c-0.4-0.9-0.8-1.7-1.3-2.5
				c-0.3-0.4-0.5-0.8-0.8-1.2c-0.2-0.4-0.5-0.7-0.9-1c-0.7-0.5-1.5-0.7-2.2-0.3l-0.1,0.1c-0.8,0.5-1.3,1.6-1.7,2.5
				c-1.1,2.4-1.7,4.8-2.4,7.4c-0.1,0.5-0.2,1-0.3,1.5l-3,9.6l-4.1,9.1c-1.5,1.9-3.4,3.5-5.6,4.5c-2.2,1.1-4.6,1.6-7,1.7
				C12.7,59.6,8,50.5,8,50.5c-5.7-9.4-7.4-21.8-7.8-25.8C0,23.8,0,23.3,0,23.3c0-1.2,0.3-2.5,1-3.5c0.6-1.1,1.5-2,2.6-2.6
				c1.2-0.6,2.4-0.8,3.7-0.8c1.2,0,2.3,0.4,3.4,1c0.8,0.5,1.5,1.1,2,1.8c0.9,1.3,1.2,3,1.3,4.6C14.4,27.4,15.1,30.9,16.1,34.3
				L16.1,34.3z"/>
			
				<radialGradient id="SVGID_00000121967173006009176250000003567263081911773849_" cx="-604.8596" cy="179.3506" r="1" gradientTransform="matrix(-4.9112 -8.7444 7.3453 -4.1254 -4261.8652 -4504.5303)" gradientUnits="userSpaceOnUse">
				<stop  offset="0.13" style="stop-color:#146A73"/>
				<stop  offset="0.24" style="stop-color:#156F79;stop-opacity:0.79"/>
				<stop  offset="0.45" style="stop-color:#167783;stop-opacity:0.45"/>
				<stop  offset="0.65" style="stop-color:#167D8A;stop-opacity:0.2"/>
				<stop  offset="0.82" style="stop-color:#17818E;stop-opacity:5.000000e-02"/>
				<stop  offset="0.95" style="stop-color:#178290;stop-opacity:0"/>
			</radialGradient>
			<path style="fill:url(#SVGID_00000121967173006009176250000003567263081911773849_);" d="M16.1,34.3c0.8,2.7,1.8,5.4,3.2,7.9
				c0.6,1.1,1.2,2.2,2.3,2.9c0.2,0.1,0.4,0.2,0.6,0.3c1.6,0.3,2.5-1,3.1-2.1c0.8-1.9,1.5-3.8,2.1-5.8c0.1-0.4,0.2-0.7,0.3-1.1
				c0.2-0.7,0.4-1.4,0.5-2.1l7.1-19c1.5-2,3.4-3.6,5.6-4.7c2.1-1.2,4.5-1.8,7-1.8c3.5,0,7,1.2,9.8,3.4c4.7,3.5,7.4,10.5,7.4,10.5
				c0.4,0.9,0.6,1.9,0.6,2.9c0,0.9-0.2,1.8-0.5,2.7c-0.4,0.8-0.9,1.6-1.5,2.3c-0.6,0.6-1.4,1.2-2.3,1.5c-0.8,0.3-1.8,0.5-2.7,0.5
				c-1,0-2-0.2-2.9-0.7c-0.9-0.4-1.7-1.1-2.4-1.8c0,0,0-0.1-0.1-0.1c-0.4-0.6-0.8-1.3-1.1-2c-0.4-0.9-0.8-1.7-1.3-2.5
				c-0.3-0.4-0.5-0.8-0.8-1.2c-0.2-0.4-0.5-0.7-0.9-1c-0.7-0.5-1.5-0.7-2.2-0.3l-0.1,0.1c-0.8,0.5-1.3,1.6-1.7,2.5
				c-1.1,2.4-1.7,4.8-2.4,7.4c-0.1,0.5-0.2,1-0.3,1.5l-3,9.6l-4.1,9.1c-1.5,1.9-3.4,3.5-5.6,4.5c-2.2,1.1-4.6,1.6-7,1.7
				C12.7,59.6,8,50.5,8,50.5c-5.7-9.4-7.4-21.8-7.8-25.8C0,23.8,0,23.3,0,23.3c0-1.2,0.3-2.5,1-3.5c0.6-1.1,1.5-2,2.6-2.6
				c1.2-0.6,2.4-0.8,3.7-0.8c1.2,0,2.3,0.4,3.4,1c0.8,0.5,1.5,1.1,2,1.8c0.9,1.3,1.2,3,1.3,4.6C14.4,27.4,15.1,30.9,16.1,34.3
				L16.1,34.3z"/>
			
				<radialGradient id="SVGID_00000005262230722404247550000014782150239639069350_" cx="-549.1594" cy="272.5622" r="1" gradientTransform="matrix(5.2767 -7.8208 6.1958 4.1803 1232.8776 -5394.1118)" gradientUnits="userSpaceOnUse">
				<stop  offset="0" style="stop-color:#198E9C"/>
				<stop  offset="0.1" style="stop-color:#198E9C;stop-opacity:0.87"/>
				<stop  offset="0.41" style="stop-color:#198E9C;stop-opacity:0.5"/>
				<stop  offset="0.67" style="stop-color:#198E9C;stop-opacity:0.23"/>
				<stop  offset="0.88" style="stop-color:#198E9C;stop-opacity:6.000000e-02"/>
				<stop  offset="1" style="stop-color:#198E9C;stop-opacity:0"/>
			</radialGradient>
			<path style="fill:url(#SVGID_00000005262230722404247550000014782150239639069350_);" d="M16.1,34.3c0.8,2.7,1.8,5.4,3.2,7.9
				c0.6,1.1,1.2,2.2,2.3,2.9c0.2,0.1,0.4,0.2,0.6,0.3c1.6,0.3,2.5-1,3.1-2.1c0.8-1.9,1.5-3.8,2.1-5.8c0.1-0.4,0.2-0.7,0.3-1.1
				c0.2-0.7,0.4-1.4,0.5-2.1l7.1-19c1.5-2,3.4-3.6,5.6-4.7c2.1-1.2,4.5-1.8,7-1.8c3.5,0,7,1.2,9.8,3.4c4.7,3.5,7.4,10.5,7.4,10.5
				c0.4,0.9,0.6,1.9,0.6,2.9c0,0.9-0.2,1.8-0.5,2.7c-0.4,0.8-0.9,1.6-1.5,2.3c-0.6,0.6-1.4,1.2-2.3,1.5c-0.8,0.3-1.8,0.5-2.7,0.5
				c-1,0-2-0.2-2.9-0.7c-0.9-0.4-1.7-1.1-2.4-1.8c0,0,0-0.1-0.1-0.1c-0.4-0.6-0.8-1.3-1.1-2c-0.4-0.9-0.8-1.7-1.3-2.5
				c-0.3-0.4-0.5-0.8-0.8-1.2c-0.2-0.4-0.5-0.7-0.9-1c-0.7-0.5-1.5-0.7-2.2-0.3l-0.1,0.1c-0.8,0.5-1.3,1.6-1.7,2.5
				c-1.1,2.4-1.7,4.8-2.4,7.4c-0.1,0.5-0.2,1-0.3,1.5l-3,9.6l-4.1,9.1c-1.5,1.9-3.4,3.5-5.6,4.5c-2.2,1.1-4.6,1.6-7,1.7
				C12.7,59.6,8,50.5,8,50.5c-5.7-9.4-7.4-21.8-7.8-25.8C0,23.8,0,23.3,0,23.3c0-1.2,0.3-2.5,1-3.5c0.6-1.1,1.5-2,2.6-2.6
				c1.2-0.6,2.4-0.8,3.7-0.8c1.2,0,2.3,0.4,3.4,1c0.8,0.5,1.5,1.1,2,1.8c0.9,1.3,1.2,3,1.3,4.6C14.4,27.4,15.1,30.9,16.1,34.3
				L16.1,34.3z"/>
			
				<linearGradient id="SVGID_00000044857764045432186590000009001433656867639206_" gradientUnits="userSpaceOnUse" x1="6.6808" y1="835.3616" x2="30.8698" y2="857.746" gradientTransform="matrix(1 0 0 1 0 -827.7244)">
				<stop  offset="0.13" style="stop-color:#2BF9FF"/>
				<stop  offset="0.27" style="stop-color:#29F9FF;stop-opacity:0.64"/>
				<stop  offset="0.4" style="stop-color:#27FAFF;stop-opacity:0.3"/>
				<stop  offset="0.49" style="stop-color:#26FAFF;stop-opacity:8.000000e-02"/>
				<stop  offset="0.54" style="stop-color:#26FAFF;stop-opacity:0"/>
			</linearGradient>
			<path style="fill:url(#SVGID_00000044857764045432186590000009001433656867639206_);" d="M16.1,34.3c0.8,2.7,1.8,5.4,3.2,7.9
				c0.6,1.1,1.2,2.2,2.3,2.9c0.2,0.1,0.4,0.2,0.6,0.3c1.6,0.3,2.5-1,3.1-2.1c0.8-1.9,1.5-3.8,2.1-5.8c0.1-0.4,0.2-0.7,0.3-1.1
				c0.2-0.7,0.4-1.4,0.5-2.1l7.1-19c1.5-2,3.4-3.6,5.6-4.7c2.1-1.2,4.5-1.8,7-1.8c3.5,0,7,1.2,9.8,3.4c4.7,3.5,7.4,10.5,7.4,10.5
				c0.4,0.9,0.6,1.9,0.6,2.9c0,0.9-0.2,1.8-0.5,2.7c-0.4,0.8-0.9,1.6-1.5,2.3c-0.6,0.6-1.4,1.2-2.3,1.5c-0.8,0.3-1.8,0.5-2.7,0.5
				c-1,0-2-0.2-2.9-0.7c-0.9-0.4-1.7-1.1-2.4-1.8c0,0,0-0.1-0.1-0.1c-0.4-0.6-0.8-1.3-1.1-2c-0.4-0.9-0.8-1.7-1.3-2.5
				c-0.3-0.4-0.5-0.8-0.8-1.2c-0.2-0.4-0.5-0.7-0.9-1c-0.7-0.5-1.5-0.7-2.2-0.3l-0.1,0.1c-0.8,0.5-1.3,1.6-1.7,2.5
				c-1.1,2.4-1.7,4.8-2.4,7.4c-0.1,0.5-0.2,1-0.3,1.5l-3,9.6l-4.1,9.1c-1.5,1.9-3.4,3.5-5.6,4.5c-2.2,1.1-4.6,1.6-7,1.7
				C12.7,59.6,8,50.5,8,50.5c-5.7-9.4-7.4-21.8-7.8-25.8C0,23.8,0,23.3,0,23.3c0-1.2,0.3-2.5,1-3.5c0.6-1.1,1.5-2,2.6-2.6
				c1.2-0.6,2.4-0.8,3.7-0.8c1.2,0,2.3,0.4,3.4,1c0.8,0.5,1.5,1.1,2,1.8c0.9,1.3,1.2,3,1.3,4.6C14.4,27.4,15.1,30.9,16.1,34.3
				L16.1,34.3z"/>
			
				<linearGradient id="SVGID_00000073002175417240032640000003603709560169690775_" gradientUnits="userSpaceOnUse" x1="-6.9826" y1="871.9249" x2="21.2706" y2="863.9149" gradientTransform="matrix(1 0 0 1 0 -827.7244)">
				<stop  offset="0" style="stop-color:#26FAFF"/>
				<stop  offset="6.000000e-02" style="stop-color:#26FAFF;stop-opacity:0.88"/>
				<stop  offset="0.24" style="stop-color:#26FAFF;stop-opacity:0.51"/>
				<stop  offset="0.39" style="stop-color:#26FAFF;stop-opacity:0.23"/>
				<stop  offset="0.5" style="stop-color:#26FAFF;stop-opacity:6.000000e-02"/>
				<stop  offset="0.55" style="stop-color:#26FAFF;stop-opacity:0"/>
			</linearGradient>
			<path style="fill:url(#SVGID_00000073002175417240032640000003603709560169690775_);" d="M16.1,34.3c0.8,2.7,1.8,5.4,3.2,7.9
				c0.6,1.1,1.2,2.2,2.3,2.9c0.2,0.1,0.4,0.2,0.6,0.3c1.6,0.3,2.5-1,3.1-2.1c0.8-1.9,1.5-3.8,2.1-5.8c0.1-0.4,0.2-0.7,0.3-1.1
				c0.2-0.7,0.4-1.4,0.5-2.1l7.1-19c1.5-2,3.4-3.6,5.6-4.7c2.1-1.2,4.5-1.8,7-1.8c3.5,0,7,1.2,9.8,3.4c4.7,3.5,7.4,10.5,7.4,10.5
				c0.4,0.9,0.6,1.9,0.6,2.9c0,0.9-0.2,1.8-0.5,2.7c-0.4,0.8-0.9,1.6-1.5,2.3c-0.6,0.6-1.4,1.2-2.3,1.5c-0.8,0.3-1.8,0.5-2.7,0.5
				c-1,0-2-0.2-2.9-0.7c-0.9-0.4-1.7-1.1-2.4-1.8c0,0,0-0.1-0.1-0.1c-0.4-0.6-0.8-1.3-1.1-2c-0.4-0.9-0.8-1.7-1.3-2.5
				c-0.3-0.4-0.5-0.8-0.8-1.2c-0.2-0.4-0.5-0.7-0.9-1c-0.7-0.5-1.5-0.7-2.2-0.3l-0.1,0.1c-0.8,0.5-1.3,1.6-1.7,2.5
				c-1.1,2.4-1.7,4.8-2.4,7.4c-0.1,0.5-0.2,1-0.3,1.5l-3,9.6l-4.1,9.1c-1.5,1.9-3.4,3.5-5.6,4.5c-2.2,1.1-4.6,1.6-7,1.7
				C12.7,59.6,8,50.5,8,50.5c-5.7-9.4-7.4-21.8-7.8-25.8C0,23.8,0,23.3,0,23.3c0-1.2,0.3-2.5,1-3.5c0.6-1.1,1.5-2,2.6-2.6
				c1.2-0.6,2.4-0.8,3.7-0.8c1.2,0,2.3,0.4,3.4,1c0.8,0.5,1.5,1.1,2,1.8c0.9,1.3,1.2,3,1.3,4.6C14.4,27.4,15.1,30.9,16.1,34.3
				L16.1,34.3z"/>
			
				<linearGradient id="SVGID_00000061445679821725485860000014734520351344963757_" gradientUnits="userSpaceOnUse" x1="0.5062" y1="870.942" x2="32.3465" y2="859.5926" gradientTransform="matrix(1 0 0 1 0 -827.7244)">
				<stop  offset="0" style="stop-color:#21DEFF"/>
				<stop  offset="4.000000e-02" style="stop-color:#21DEFF;stop-opacity:0.88"/>
				<stop  offset="0.17" style="stop-color:#21DEFF;stop-opacity:0.51"/>
				<stop  offset="0.27" style="stop-color:#21DEFF;stop-opacity:0.23"/>
				<stop  offset="0.34" style="stop-color:#21DEFF;stop-opacity:6.000000e-02"/>
				<stop  offset="0.38" style="stop-color:#21DEFF;stop-opacity:0"/>
			</linearGradient>
			<path style="fill:url(#SVGID_00000061445679821725485860000014734520351344963757_);" d="M16.1,34.3c0.8,2.7,1.8,5.4,3.2,7.9
				c0.6,1.1,1.2,2.2,2.3,2.9c0.2,0.1,0.4,0.2,0.6,0.3c1.6,0.3,2.5-1,3.1-2.1c0.8-1.9,1.5-3.8,2.1-5.8c0.1-0.4,0.2-0.7,0.3-1.1
				c0.2-0.7,0.4-1.4,0.5-2.1l7.1-19c1.5-2,3.4-3.6,5.6-4.7c2.1-1.2,4.5-1.8,7-1.8c3.5,0,7,1.2,9.8,3.4c4.7,3.5,7.4,10.5,7.4,10.5
				c0.4,0.9,0.6,1.9,0.6,2.9c0,0.9-0.2,1.8-0.5,2.7c-0.4,0.8-0.9,1.6-1.5,2.3c-0.6,0.6-1.4,1.2-2.3,1.5c-0.8,0.3-1.8,0.5-2.7,0.5
				c-1,0-2-0.2-2.9-0.7c-0.9-0.4-1.7-1.1-2.4-1.8c0,0,0-0.1-0.1-0.1c-0.4-0.6-0.8-1.3-1.1-2c-0.4-0.9-0.8-1.7-1.3-2.5
				c-0.3-0.4-0.5-0.8-0.8-1.2c-0.2-0.4-0.5-0.7-0.9-1c-0.7-0.5-1.5-0.7-2.2-0.3l-0.1,0.1c-0.8,0.5-1.3,1.6-1.7,2.5
				c-1.1,2.4-1.7,4.8-2.4,7.4c-0.1,0.5-0.2,1-0.3,1.5l-3,9.6l-4.1,9.1c-1.5,1.9-3.4,3.5-5.6,4.5c-2.2,1.1-4.6,1.6-7,1.7
				C12.7,59.6,8,50.5,8,50.5c-5.7-9.4-7.4-21.8-7.8-25.8C0,23.8,0,23.3,0,23.3c0-1.2,0.3-2.5,1-3.5c0.6-1.1,1.5-2,2.6-2.6
				c1.2-0.6,2.4-0.8,3.7-0.8c1.2,0,2.3,0.4,3.4,1c0.8,0.5,1.5,1.1,2,1.8c0.9,1.3,1.2,3,1.3,4.6C14.4,27.4,15.1,30.9,16.1,34.3
				L16.1,34.3z"/>
			
				<linearGradient id="SVGID_00000049912267392087553810000015931990822875785401_" gradientUnits="userSpaceOnUse" x1="30.7561" y1="854.4567" x2="48.566" y2="883.505" gradientTransform="matrix(1 0 0 1 0 -827.7244)">
				<stop  offset="0.62" style="stop-color:#21DEFF;stop-opacity:0"/>
				<stop  offset="0.66" style="stop-color:#21DEFF;stop-opacity:6.000000e-02"/>
				<stop  offset="0.73" style="stop-color:#21DEFF;stop-opacity:0.23"/>
				<stop  offset="0.83" style="stop-color:#21DEFF;stop-opacity:0.51"/>
				<stop  offset="0.96" style="stop-color:#21DEFF;stop-opacity:0.88"/>
				<stop  offset="1" style="stop-color:#21DEFF"/>
			</linearGradient>
			<path style="fill:url(#SVGID_00000049912267392087553810000015931990822875785401_);" d="M16.1,34.3c0.8,2.7,1.8,5.4,3.2,7.9
				c0.6,1.1,1.2,2.2,2.3,2.9c0.2,0.1,0.4,0.2,0.6,0.3c1.6,0.3,2.5-1,3.1-2.1c0.8-1.9,1.5-3.8,2.1-5.8c0.1-0.4,0.2-0.7,0.3-1.1
				c0.2-0.7,0.4-1.4,0.5-2.1l7.1-19c1.5-2,3.4-3.6,5.6-4.7c2.1-1.2,4.5-1.8,7-1.8c3.5,0,7,1.2,9.8,3.4c4.7,3.5,7.4,10.5,7.4,10.5
				c0.4,0.9,0.6,1.9,0.6,2.9c0,0.9-0.2,1.8-0.5,2.7c-0.4,0.8-0.9,1.6-1.5,2.3c-0.6,0.6-1.4,1.2-2.3,1.5c-0.8,0.3-1.8,0.5-2.7,0.5
				c-1,0-2-0.2-2.9-0.7c-0.9-0.4-1.7-1.1-2.4-1.8c0,0,0-0.1-0.1-0.1c-0.4-0.6-0.8-1.3-1.1-2c-0.4-0.9-0.8-1.7-1.3-2.5
				c-0.3-0.4-0.5-0.8-0.8-1.2c-0.2-0.4-0.5-0.7-0.9-1c-0.7-0.5-1.5-0.7-2.2-0.3l-0.1,0.1c-0.8,0.5-1.3,1.6-1.7,2.5
				c-1.1,2.4-1.7,4.8-2.4,7.4c-0.1,0.5-0.2,1-0.3,1.5l-3,9.6l-4.1,9.1c-1.5,1.9-3.4,3.5-5.6,4.5c-2.2,1.1-4.6,1.6-7,1.7
				C12.7,59.6,8,50.5,8,50.5c-5.7-9.4-7.4-21.8-7.8-25.8C0,23.8,0,23.3,0,23.3c0-1.2,0.3-2.5,1-3.5c0.6-1.1,1.5-2,2.6-2.6
				c1.2-0.6,2.4-0.8,3.7-0.8c1.2,0,2.3,0.4,3.4,1c0.8,0.5,1.5,1.1,2,1.8c0.9,1.3,1.2,3,1.3,4.6C14.4,27.4,15.1,30.9,16.1,34.3
				L16.1,34.3z"/>
			
				<linearGradient id="SVGID_00000127765065232376439440000015395254150968531079_" gradientUnits="userSpaceOnUse" x1="50.5767" y1="865.3143" x2="47.7773" y2="851.6501" gradientTransform="matrix(1 0 0 1 0 -827.7244)">
				<stop  offset="0" style="stop-color:#44B044"/>
				<stop  offset="0.11" style="stop-color:#44B044;stop-opacity:0.8"/>
				<stop  offset="0.27" style="stop-color:#44B044;stop-opacity:0.52"/>
				<stop  offset="0.43" style="stop-color:#44B044;stop-opacity:0.29"/>
				<stop  offset="0.58" style="stop-color:#44B044;stop-opacity:0.13"/>
				<stop  offset="0.7" style="stop-color:#44B044;stop-opacity:3.000000e-02"/>
				<stop  offset="0.8" style="stop-color:#44B044;stop-opacity:0"/>
			</linearGradient>
			<path style="fill:url(#SVGID_00000127765065232376439440000015395254150968531079_);" d="M30.7,27.2l4.5-12.1
				c1.5-2,3.4-3.6,5.6-4.7c2.2-1,4.6-1.6,7.1-1.6c3.5,0,7,1.2,9.8,3.4c4.7,3.5,7.4,10.5,7.4,10.5c0.4,0.9,0.6,1.9,0.6,2.9
				c0,0.9-0.2,1.8-0.5,2.7c-0.4,0.8-0.9,1.6-1.5,2.3c-0.6,0.6-1.4,1.2-2.3,1.5c-0.8,0.3-1.8,0.5-2.7,0.5c-1,0-2-0.2-2.9-0.7
				c-0.9-0.4-1.7-1.1-2.4-1.8c0,0,0-0.1-0.1-0.1c-0.4-0.6-0.8-1.3-1.1-2c-0.4-0.9-0.8-1.7-1.3-2.5c-0.3-0.4-0.5-0.8-0.8-1.2
				c-0.2-0.4-0.5-0.7-0.9-1c-0.7-0.5-1.5-0.7-2.2-0.3l-0.1,0.1c-0.8,0.5-1.3,1.6-1.7,2.5c-1.1,2.4-1.7,4.8-2.4,7.4
				c-0.1,0.5-0.2,1-0.3,1.5l-3,9.6L30.7,27.2z"/>
			
				<linearGradient id="SVGID_00000145041266020567411120000004743026699523295660_" gradientUnits="userSpaceOnUse" x1="11.5023" y1="851.0923" x2="70.4605" y2="870.6107" gradientTransform="matrix(1 0 0 1 0 -827.7244)">
				<stop  offset="0" style="stop-color:#3066FB"/>
				<stop  offset="0.38" style="stop-color:#2F64F7"/>
				<stop  offset="0.74" style="stop-color:#2857D9"/>
				<stop  offset="1" style="stop-color:#3C7EFF"/>
			</linearGradient>
			<path style="fill:url(#SVGID_00000145041266020567411120000004743026699523295660_);" d="M63.5,16.4c-0.6,0-1.2,0.1-1.7,0.2
				c1.3,1.9,2.4,3.9,3.3,6c0.4,0.9,0.6,1.9,0.6,2.9c0,0.9-0.2,1.8-0.5,2.7c-0.4,0.8-0.9,1.6-1.5,2.3s-1.4,1.2-2.3,1.5
				c-0.8,0.3-1.8,0.5-2.7,0.5c-1.2,0-2.5-0.3-3.5-1l-0.7,2.7c-1.3,4.4-2.2,6-2.2,6c-0.5,1.2-1.1,2.3-1.8,3.4
				c-0.5,0.7-1.1,1.4-1.9,1.7c-0.3,0.1-0.6,0.1-0.9,0.1c-0.3,0-0.6-0.1-0.9-0.3c-0.5-0.4-1-1-1.3-1.6c-0.4-0.7-0.7-1.4-1-2.1
				c-0.6-1.5-1.6-5.2-1.6-5.2l-1-3.9l-1-3.9l-0.7-2.6c-1.8-6.7-4.4-10-4.4-10c-2-2.9-4.9-5-8.2-6.2C23.8,8.2,19.8,9,19.8,9
				c-6.3,1.2-9.6,5.5-11,7.6c0.7,0.2,1.3,0.4,1.9,0.8c0.8,0.5,1.5,1.1,2,1.8c0.9,1.3,1.2,3,1.3,4.6c0.4,3.5,1.1,6.9,2,10.3
				c2.1-7.1,4.7-10.4,4.7-10.4c0.3-0.4,0.6-0.7,1-0.9c0.2-0.1,0.4-0.2,0.7-0.2c0.4,0,0.9,0.1,1.2,0.3c0.1,0,0.1,0.1,0.2,0.1
				c0.3,0.3,0.6,0.6,0.9,1c0.5,1,1,1.9,1.4,3c0.8,2.2,1.5,5,1.5,5l2,8c1.5,5.5,2.7,8.1,2.7,8.1c3.1,7.1,7.8,9.1,7.8,9.1
				c2.3,1.2,4.9,1.9,7.5,2c2.5,0.1,5-0.4,7.2-1.5c2.4-1.2,4.6-3,6.3-5.1c1.1-1.3,2.8-4.5,2.8-4.5c1.9-3.7,3.3-7.6,4.3-11.6
				c0.7-2.5,1.2-5,1.6-7.6c0.2-1.3,0.4-2.5,0.5-3.8c0.2-1.2,0.2-2.4-0.1-3.6c-0.1-0.2-0.1-0.4-0.2-0.6c-0.6-1.5-1.7-2.7-3.1-3.5
				C65.9,16.7,64.7,16.4,63.5,16.4z"/>
			
				<radialGradient id="SVGID_00000016066313155991929310000017955031646634424481_" cx="-502.4281" cy="134.8626" r="1" gradientTransform="matrix(-4.7638 31.1677 -20.5707 -3.1441 433.8788 16115.8975)" gradientUnits="userSpaceOnUse">
				<stop  offset="0" style="stop-color:#1A3D9C"/>
				<stop  offset="0.4" style="stop-color:#1A3D9C;stop-opacity:0.42"/>
				<stop  offset="0.7" style="stop-color:#1A3D9C;stop-opacity:0"/>
			</radialGradient>
			<path style="fill:url(#SVGID_00000016066313155991929310000017955031646634424481_);" d="M63.5,16.4c-0.6,0-1.2,0.1-1.7,0.2
				c1.3,1.9,2.4,3.9,3.3,6c0.4,0.9,0.6,1.9,0.6,2.9c0,0.9-0.2,1.8-0.5,2.7c-0.4,0.8-0.9,1.6-1.5,2.3s-1.4,1.2-2.3,1.5
				c-0.8,0.3-1.8,0.5-2.7,0.5c-1.2,0-2.5-0.3-3.5-1l-0.7,2.7c-1.3,4.4-2.2,6-2.2,6c-0.5,1.2-1.1,2.3-1.8,3.4
				c-0.5,0.7-1.1,1.4-1.9,1.7c-0.3,0.1-0.6,0.1-0.9,0.1c-0.3,0-0.6-0.1-0.9-0.3c-0.5-0.4-1-1-1.3-1.6c-0.4-0.7-0.7-1.4-1-2.1
				c-0.6-1.5-1.6-5.2-1.6-5.2l-1-3.9l-1-3.9l-0.7-2.6c-1.8-6.7-4.4-10-4.4-10c-2-2.9-4.9-5-8.2-6.2C23.8,8.2,19.8,9,19.8,9
				c-6.3,1.2-9.6,5.5-11,7.6c0.7,0.2,1.3,0.4,1.9,0.8c0.8,0.5,1.5,1.1,2,1.8c0.9,1.3,1.2,3,1.3,4.6c0.4,3.5,1.1,6.9,2,10.3
				c2.1-7.1,4.7-10.4,4.7-10.4c0.3-0.4,0.6-0.7,1-0.9c0.2-0.1,0.4-0.2,0.7-0.2c0.4,0,0.9,0.1,1.2,0.3c0.1,0,0.1,0.1,0.2,0.1
				c0.3,0.3,0.6,0.6,0.9,1c0.5,1,1,1.9,1.4,3c0.8,2.2,1.5,5,1.5,5l2,8c1.5,5.5,2.7,8.1,2.7,8.1c3.1,7.1,7.8,9.1,7.8,9.1
				c2.3,1.2,4.9,1.9,7.5,2c2.5,0.1,5-0.4,7.2-1.5c2.4-1.2,4.6-3,6.3-5.1c1.1-1.3,2.8-4.5,2.8-4.5c1.9-3.7,3.3-7.6,4.3-11.6
				c0.7-2.5,1.2-5,1.6-7.6c0.2-1.3,0.4-2.5,0.5-3.8c0.2-1.2,0.2-2.4-0.1-3.6c-0.1-0.2-0.1-0.4-0.2-0.6c-0.6-1.5-1.7-2.7-3.1-3.5
				C65.9,16.7,64.7,16.4,63.5,16.4z"/>
			
				<radialGradient id="SVGID_00000145760509823412878290000004500936685612858789_" cx="-520.8491" cy="164.1961" r="1" gradientTransform="matrix(-586.04 3834.2625 -2067.4011 -315.9877 53408.3945 1999451.25)" gradientUnits="userSpaceOnUse">
				<stop  offset="0" style="stop-color:#1A3D9C"/>
				<stop  offset="0.4" style="stop-color:#1A3D9C;stop-opacity:0.42"/>
				<stop  offset="0.7" style="stop-color:#1A3D9C;stop-opacity:0"/>
			</radialGradient>
			<path style="fill:url(#SVGID_00000145760509823412878290000004500936685612858789_);" d="M63.5,16.4c-0.6,0-1.2,0.1-1.7,0.2
				c1.3,1.9,2.4,3.9,3.3,6c0.4,0.9,0.6,1.9,0.6,2.9c0,0.9-0.2,1.8-0.5,2.7c-0.4,0.8-0.9,1.6-1.5,2.3s-1.4,1.2-2.3,1.5
				c-0.8,0.3-1.8,0.5-2.7,0.5c-1.2,0-2.5-0.3-3.5-1l-0.7,2.7c-1.3,4.4-2.2,6-2.2,6c-0.5,1.2-1.1,2.3-1.8,3.4
				c-0.5,0.7-1.1,1.4-1.9,1.7c-0.3,0.1-0.6,0.1-0.9,0.1c-0.3,0-0.6-0.1-0.9-0.3c-0.5-0.4-1-1-1.3-1.6c-0.4-0.7-0.7-1.4-1-2.1
				c-0.6-1.5-1.6-5.2-1.6-5.2l-1-3.9l-1-3.9l-0.7-2.6c-1.8-6.7-4.4-10-4.4-10c-2-2.9-4.9-5-8.2-6.2C23.8,8.2,19.8,9,19.8,9
				c-6.3,1.2-9.6,5.5-11,7.6c0.7,0.2,1.3,0.4,1.9,0.8c0.8,0.5,1.5,1.1,2,1.8c0.9,1.3,1.2,3,1.3,4.6c0.4,3.5,1.1,6.9,2,10.3
				c2.1-7.1,4.7-10.4,4.7-10.4c0.3-0.4,0.6-0.7,1-0.9c0.2-0.1,0.4-0.2,0.7-0.2c0.4,0,0.9,0.1,1.2,0.3c0.1,0,0.1,0.1,0.2,0.1
				c0.3,0.3,0.6,0.6,0.9,1c0.5,1,1,1.9,1.4,3c0.8,2.2,1.5,5,1.5,5l2,8c1.5,5.5,2.7,8.1,2.7,8.1c3.1,7.1,7.8,9.1,7.8,9.1
				c2.3,1.2,4.9,1.9,7.5,2c2.5,0.1,5-0.4,7.2-1.5c2.4-1.2,4.6-3,6.3-5.1c1.1-1.3,2.8-4.5,2.8-4.5c1.9-3.7,3.3-7.6,4.3-11.6
				c0.7-2.5,1.2-5,1.6-7.6c0.2-1.3,0.4-2.5,0.5-3.8c0.2-1.2,0.2-2.4-0.1-3.6c-0.1-0.2-0.1-0.4-0.2-0.6c-0.6-1.5-1.7-2.7-3.1-3.5
				C65.9,16.7,64.7,16.4,63.5,16.4z"/>
			
				<radialGradient id="SVGID_00000023240846743192280050000002880689448422275005_" cx="-520.8731" cy="164.1682" r="1" gradientTransform="matrix(-692.0117 4567.3027 -1886.8551 -285.8855 -33841.1641 2375645.25)" gradientUnits="userSpaceOnUse">
				<stop  offset="0" style="stop-color:#1A3D9C"/>
				<stop  offset="0.4" style="stop-color:#1A3D9C;stop-opacity:0.42"/>
				<stop  offset="0.7" style="stop-color:#1A3D9C;stop-opacity:0"/>
			</radialGradient>
			<path style="fill:url(#SVGID_00000023240846743192280050000002880689448422275005_);" d="M63.5,16.4c-0.6,0-1.2,0.1-1.7,0.2
				c1.3,1.9,2.4,3.9,3.3,6c0.4,0.9,0.6,1.9,0.6,2.9c0,0.9-0.2,1.8-0.5,2.7c-0.4,0.8-0.9,1.6-1.5,2.3s-1.4,1.2-2.3,1.5
				c-0.8,0.3-1.8,0.5-2.7,0.5c-1.2,0-2.5-0.3-3.5-1l-0.7,2.7c-1.3,4.4-2.2,6-2.2,6c-0.5,1.2-1.1,2.3-1.8,3.4
				c-0.5,0.7-1.1,1.4-1.9,1.7c-0.3,0.1-0.6,0.1-0.9,0.1c-0.3,0-0.6-0.1-0.9-0.3c-0.5-0.4-1-1-1.3-1.6c-0.4-0.7-0.7-1.4-1-2.1
				c-0.6-1.5-1.6-5.2-1.6-5.2l-1-3.9l-1-3.9l-0.7-2.6c-1.8-6.7-4.4-10-4.4-10c-2-2.9-4.9-5-8.2-6.2C23.8,8.2,19.8,9,19.8,9
				c-6.3,1.2-9.6,5.5-11,7.6c0.7,0.2,1.3,0.4,1.9,0.8c0.8,0.5,1.5,1.1,2,1.8c0.9,1.3,1.2,3,1.3,4.6c0.4,3.5,1.1,6.9,2,10.3
				c2.1-7.1,4.7-10.4,4.7-10.4c0.3-0.4,0.6-0.7,1-0.9c0.2-0.1,0.4-0.2,0.7-0.2c0.4,0,0.9,0.1,1.2,0.3c0.1,0,0.1,0.1,0.2,0.1
				c0.3,0.3,0.6,0.6,0.9,1c0.5,1,1,1.9,1.4,3c0.8,2.2,1.5,5,1.5,5l2,8c1.5,5.5,2.7,8.1,2.7,8.1c3.1,7.1,7.8,9.1,7.8,9.1
				c2.3,1.2,4.9,1.9,7.5,2c2.5,0.1,5-0.4,7.2-1.5c2.4-1.2,4.6-3,6.3-5.1c1.1-1.3,2.8-4.5,2.8-4.5c1.9-3.7,3.3-7.6,4.3-11.6
				c0.7-2.5,1.2-5,1.6-7.6c0.2-1.3,0.4-2.5,0.5-3.8c0.2-1.2,0.2-2.4-0.1-3.6c-0.1-0.2-0.1-0.4-0.2-0.6c-0.6-1.5-1.7-2.7-3.1-3.5
				C65.9,16.7,64.7,16.4,63.5,16.4z"/>
			
				<radialGradient id="SVGID_00000122700401451471410470000010509493990172174777_" cx="-494.5188" cy="141.7989" r="1" gradientTransform="matrix(3.3163 27.3592 -19.0896 2.3139 4396.0449 13232.6934)" gradientUnits="userSpaceOnUse">
				<stop  offset="0" style="stop-color:#1A3D9C"/>
				<stop  offset="0.16" style="stop-color:#1A3D9C;stop-opacity:0.69"/>
				<stop  offset="0.33" style="stop-color:#1A3D9C;stop-opacity:0.4"/>
				<stop  offset="0.49" style="stop-color:#1A3D9C;stop-opacity:0.18"/>
				<stop  offset="0.61" style="stop-color:#1A3D9C;stop-opacity:5.000000e-02"/>
				<stop  offset="0.7" style="stop-color:#1A3D9C;stop-opacity:0"/>
			</radialGradient>
			<path style="fill:url(#SVGID_00000122700401451471410470000010509493990172174777_);" d="M63.5,16.4c-0.6,0-1.2,0.1-1.7,0.2
				c1.3,1.9,2.4,3.9,3.3,6c0.4,0.9,0.6,1.9,0.6,2.9c0,0.9-0.2,1.8-0.5,2.7c-0.4,0.8-0.9,1.6-1.5,2.3s-1.4,1.2-2.3,1.5
				c-0.8,0.3-1.8,0.5-2.7,0.5c-1.2,0-2.5-0.3-3.5-1l-0.7,2.7c-1.3,4.4-2.2,6-2.2,6c-0.5,1.2-1.1,2.3-1.8,3.4
				c-0.5,0.7-1.1,1.4-1.9,1.7c-0.3,0.1-0.6,0.1-0.9,0.1c-0.3,0-0.6-0.1-0.9-0.3c-0.5-0.4-1-1-1.3-1.6c-0.4-0.7-0.7-1.4-1-2.1
				c-0.6-1.5-1.6-5.2-1.6-5.2l-1-3.9l-1-3.9l-0.7-2.6c-1.8-6.7-4.4-10-4.4-10c-2-2.9-4.9-5-8.2-6.2C23.8,8.2,19.8,9,19.8,9
				c-6.3,1.2-9.6,5.5-11,7.6c0.7,0.2,1.3,0.4,1.9,0.8c0.8,0.5,1.5,1.1,2,1.8c0.9,1.3,1.2,3,1.3,4.6c0.4,3.5,1.1,6.9,2,10.3
				c2.1-7.1,4.7-10.4,4.7-10.4c0.3-0.4,0.6-0.7,1-0.9c0.2-0.1,0.4-0.2,0.7-0.2c0.4,0,0.9,0.1,1.2,0.3c0.1,0,0.1,0.1,0.2,0.1
				c0.3,0.3,0.6,0.6,0.9,1c0.5,1,1,1.9,1.4,3c0.8,2.2,1.5,5,1.5,5l2,8c1.5,5.5,2.7,8.1,2.7,8.1c3.1,7.1,7.8,9.1,7.8,9.1
				c2.3,1.2,4.9,1.9,7.5,2c2.5,0.1,5-0.4,7.2-1.5c2.4-1.2,4.6-3,6.3-5.1c1.1-1.3,2.8-4.5,2.8-4.5c1.9-3.7,3.3-7.6,4.3-11.6
				c0.7-2.5,1.2-5,1.6-7.6c0.2-1.3,0.4-2.5,0.5-3.8c0.2-1.2,0.2-2.4-0.1-3.6c-0.1-0.2-0.1-0.4-0.2-0.6c-0.6-1.5-1.7-2.7-3.1-3.5
				C65.9,16.7,64.7,16.4,63.5,16.4z"/>
			
				<radialGradient id="SVGID_00000086671565862730926570000015118266316417973175_" cx="-491.3235" cy="146.4795" r="1" gradientTransform="matrix(7.0156 25.5395 -17.3669 4.7706 6044.9829 11884.7256)" gradientUnits="userSpaceOnUse">
				<stop  offset="0" style="stop-color:#18388F"/>
				<stop  offset="0.37" style="stop-color:#193B96;stop-opacity:0.45"/>
				<stop  offset="0.7" style="stop-color:#1A3D9C;stop-opacity:0"/>
			</radialGradient>
			<path style="fill:url(#SVGID_00000086671565862730926570000015118266316417973175_);" d="M63.5,16.4c-0.6,0-1.2,0.1-1.7,0.2
				c1.3,1.9,2.4,3.9,3.3,6c0.4,0.9,0.6,1.9,0.6,2.9c0,0.9-0.2,1.8-0.5,2.7c-0.4,0.8-0.9,1.6-1.5,2.3s-1.4,1.2-2.3,1.5
				c-0.8,0.3-1.8,0.5-2.7,0.5c-1.2,0-2.5-0.3-3.5-1l-0.7,2.7c-1.3,4.4-2.2,6-2.2,6c-0.5,1.2-1.1,2.3-1.8,3.4
				c-0.5,0.7-1.1,1.4-1.9,1.7c-0.3,0.1-0.6,0.1-0.9,0.1c-0.3,0-0.6-0.1-0.9-0.3c-0.5-0.4-1-1-1.3-1.6c-0.4-0.7-0.7-1.4-1-2.1
				c-0.6-1.5-1.6-5.2-1.6-5.2l-1-3.9l-1-3.9l-0.7-2.6c-1.8-6.7-4.4-10-4.4-10c-2-2.9-4.9-5-8.2-6.2C23.8,8.2,19.8,9,19.8,9
				c-6.3,1.2-9.6,5.5-11,7.6c0.7,0.2,1.3,0.4,1.9,0.8c0.8,0.5,1.5,1.1,2,1.8c0.9,1.3,1.2,3,1.3,4.6c0.4,3.5,1.1,6.9,2,10.3
				c2.1-7.1,4.7-10.4,4.7-10.4c0.3-0.4,0.6-0.7,1-0.9c0.2-0.1,0.4-0.2,0.7-0.2c0.4,0,0.9,0.1,1.2,0.3c0.1,0,0.1,0.1,0.2,0.1
				c0.3,0.3,0.6,0.6,0.9,1c0.5,1,1,1.9,1.4,3c0.8,2.2,1.5,5,1.5,5l2,8c1.5,5.5,2.7,8.1,2.7,8.1c3.1,7.1,7.8,9.1,7.8,9.1
				c2.3,1.2,4.9,1.9,7.5,2c2.5,0.1,5-0.4,7.2-1.5c2.4-1.2,4.6-3,6.3-5.1c1.1-1.3,2.8-4.5,2.8-4.5c1.9-3.7,3.3-7.6,4.3-11.6
				c0.7-2.5,1.2-5,1.6-7.6c0.2-1.3,0.4-2.5,0.5-3.8c0.2-1.2,0.2-2.4-0.1-3.6c-0.1-0.2-0.1-0.4-0.2-0.6c-0.6-1.5-1.7-2.7-3.1-3.5
				C65.9,16.7,64.7,16.4,63.5,16.4z"/>
			
				<radialGradient id="SVGID_00000108291847596152351050000013655922563956174513_" cx="-457.1731" cy="136.7624" r="1" gradientTransform="matrix(3.2619 11.8747 -11.2809 3.0988 3085.5698 5047.437)" gradientUnits="userSpaceOnUse">
				<stop  offset="0" style="stop-color:#18388F"/>
				<stop  offset="9.000000e-02" style="stop-color:#183992;stop-opacity:0.78"/>
				<stop  offset="0.22" style="stop-color:#193B96;stop-opacity:0.5"/>
				<stop  offset="0.35" style="stop-color:#193C98;stop-opacity:0.28"/>
				<stop  offset="0.47" style="stop-color:#1A3C9A;stop-opacity:0.13"/>
				<stop  offset="0.59" style="stop-color:#1A3D9C;stop-opacity:3.000000e-02"/>
				<stop  offset="0.7" style="stop-color:#1A3D9C;stop-opacity:0"/>
			</radialGradient>
			<path style="fill:url(#SVGID_00000108291847596152351050000013655922563956174513_);" d="M63.5,16.4c-0.6,0-1.2,0.1-1.7,0.2
				c1.3,1.9,2.4,3.9,3.3,6c0.4,0.9,0.6,1.9,0.6,2.9c0,0.9-0.2,1.8-0.5,2.7c-0.4,0.8-0.9,1.6-1.5,2.3s-1.4,1.2-2.3,1.5
				c-0.8,0.3-1.8,0.5-2.7,0.5c-1.2,0-2.5-0.3-3.5-1l-0.7,2.7c-1.3,4.4-2.2,6-2.2,6c-0.5,1.2-1.1,2.3-1.8,3.4
				c-0.5,0.7-1.1,1.4-1.9,1.7c-0.3,0.1-0.6,0.1-0.9,0.1c-0.3,0-0.6-0.1-0.9-0.3c-0.5-0.4-1-1-1.3-1.6c-0.4-0.7-0.7-1.4-1-2.1
				c-0.6-1.5-1.6-5.2-1.6-5.2l-1-3.9l-1-3.9l-0.7-2.6c-1.8-6.7-4.4-10-4.4-10c-2-2.9-4.9-5-8.2-6.2C23.8,8.2,19.8,9,19.8,9
				c-6.3,1.2-9.6,5.5-11,7.6c0.7,0.2,1.3,0.4,1.9,0.8c0.8,0.5,1.5,1.1,2,1.8c0.9,1.3,1.2,3,1.3,4.6c0.4,3.5,1.1,6.9,2,10.3
				c2.1-7.1,4.7-10.4,4.7-10.4c0.3-0.4,0.6-0.7,1-0.9c0.2-0.1,0.4-0.2,0.7-0.2c0.4,0,0.9,0.1,1.2,0.3c0.1,0,0.1,0.1,0.2,0.1
				c0.3,0.3,0.6,0.6,0.9,1c0.5,1,1,1.9,1.4,3c0.8,2.2,1.5,5,1.5,5l2,8c1.5,5.5,2.7,8.1,2.7,8.1c3.1,7.1,7.8,9.1,7.8,9.1
				c2.3,1.2,4.9,1.9,7.5,2c2.5,0.1,5-0.4,7.2-1.5c2.4-1.2,4.6-3,6.3-5.1c1.1-1.3,2.8-4.5,2.8-4.5c1.9-3.7,3.3-7.6,4.3-11.6
				c0.7-2.5,1.2-5,1.6-7.6c0.2-1.3,0.4-2.5,0.5-3.8c0.2-1.2,0.2-2.4-0.1-3.6c-0.1-0.2-0.1-0.4-0.2-0.6c-0.6-1.5-1.7-2.7-3.1-3.5
				C65.9,16.7,64.7,16.4,63.5,16.4z"/>
			
				<radialGradient id="SVGID_00000014635416234267798850000017595853663758718604_" cx="-457.1731" cy="136.7624" r="1" gradientTransform="matrix(3.2619 11.8747 -11.2809 3.0988 3085.8652 5049.5376)" gradientUnits="userSpaceOnUse">
				<stop  offset="0" style="stop-color:#1A3D9C;stop-opacity:0.8"/>
				<stop  offset="1.000000e-02" style="stop-color:#1A3D9C;stop-opacity:0.78"/>
				<stop  offset="0.24" style="stop-color:#1A3D9C;stop-opacity:0.45"/>
				<stop  offset="0.44" style="stop-color:#1A3D9C;stop-opacity:0.2"/>
				<stop  offset="0.6" style="stop-color:#1A3D9C;stop-opacity:5.000000e-02"/>
				<stop  offset="0.7" style="stop-color:#1A3D9C;stop-opacity:0"/>
			</radialGradient>
			<path style="fill:url(#SVGID_00000014635416234267798850000017595853663758718604_);" d="M63.5,16.4c-0.6,0-1.2,0.1-1.7,0.2
				c1.3,1.9,2.4,3.9,3.3,6c0.4,0.9,0.6,1.9,0.6,2.9c0,0.9-0.2,1.8-0.5,2.7c-0.4,0.8-0.9,1.6-1.5,2.3s-1.4,1.2-2.3,1.5
				c-0.8,0.3-1.8,0.5-2.7,0.5c-1.2,0-2.5-0.3-3.5-1l-0.7,2.7c-1.3,4.4-2.2,6-2.2,6c-0.5,1.2-1.1,2.3-1.8,3.4
				c-0.5,0.7-1.1,1.4-1.9,1.7c-0.3,0.1-0.6,0.1-0.9,0.1c-0.3,0-0.6-0.1-0.9-0.3c-0.5-0.4-1-1-1.3-1.6c-0.4-0.7-0.7-1.4-1-2.1
				c-0.6-1.5-1.6-5.2-1.6-5.2l-1-3.9l-1-3.9l-0.7-2.6c-1.8-6.7-4.4-10-4.4-10c-2-2.9-4.9-5-8.2-6.2C23.8,8.2,19.8,9,19.8,9
				c-6.3,1.2-9.6,5.5-11,7.6c0.7,0.2,1.3,0.4,1.9,0.8c0.8,0.5,1.5,1.1,2,1.8c0.9,1.3,1.2,3,1.3,4.6c0.4,3.5,1.1,6.9,2,10.3
				c2.1-7.1,4.7-10.4,4.7-10.4c0.3-0.4,0.6-0.7,1-0.9c0.2-0.1,0.4-0.2,0.7-0.2c0.4,0,0.9,0.1,1.2,0.3c0.1,0,0.1,0.1,0.2,0.1
				c0.3,0.3,0.6,0.6,0.9,1c0.5,1,1,1.9,1.4,3c0.8,2.2,1.5,5,1.5,5l2,8c1.5,5.5,2.7,8.1,2.7,8.1c3.1,7.1,7.8,9.1,7.8,9.1
				c2.3,1.2,4.9,1.9,7.5,2c2.5,0.1,5-0.4,7.2-1.5c2.4-1.2,4.6-3,6.3-5.1c1.1-1.3,2.8-4.5,2.8-4.5c1.9-3.7,3.3-7.6,4.3-11.6
				c0.7-2.5,1.2-5,1.6-7.6c0.2-1.3,0.4-2.5,0.5-3.8c0.2-1.2,0.2-2.4-0.1-3.6c-0.1-0.2-0.1-0.4-0.2-0.6c-0.6-1.5-1.7-2.7-3.1-3.5
				C65.9,16.7,64.7,16.4,63.5,16.4z"/>
			
				<radialGradient id="SVGID_00000049201420832126709620000001574776356048887424_" cx="-493.0284" cy="153.3432" r="1" gradientTransform="matrix(11.4702 27.0578 -17.9555 7.6116 8429.8057 12210.0801)" gradientUnits="userSpaceOnUse">
				<stop  offset="0" style="stop-color:#1A3D9C"/>
				<stop  offset="0.4" style="stop-color:#1A3D9C;stop-opacity:0.56"/>
				<stop  offset="0.48" style="stop-color:#1A3D9C;stop-opacity:0.43"/>
				<stop  offset="0.69" style="stop-color:#1A3D9C;stop-opacity:0.12"/>
				<stop  offset="0.79" style="stop-color:#1A3D9C;stop-opacity:0"/>
			</radialGradient>
			<path style="fill:url(#SVGID_00000049201420832126709620000001574776356048887424_);" d="M63.5,16.4c-0.6,0-1.2,0.1-1.7,0.2
				c1.3,1.9,2.4,3.9,3.3,6c0.4,0.9,0.6,1.9,0.6,2.9c0,0.9-0.2,1.8-0.5,2.7c-0.4,0.8-0.9,1.6-1.5,2.3s-1.4,1.2-2.3,1.5
				c-0.8,0.3-1.8,0.5-2.7,0.5c-1.2,0-2.5-0.3-3.5-1l-0.7,2.7c-1.3,4.4-2.2,6-2.2,6c-0.5,1.2-1.1,2.3-1.8,3.4
				c-0.5,0.7-1.1,1.4-1.9,1.7c-0.3,0.1-0.6,0.1-0.9,0.1c-0.3,0-0.6-0.1-0.9-0.3c-0.5-0.4-1-1-1.3-1.6c-0.4-0.7-0.7-1.4-1-2.1
				c-0.6-1.5-1.6-5.2-1.6-5.2l-1-3.9l-1-3.9l-0.7-2.6c-1.8-6.7-4.4-10-4.4-10c-2-2.9-4.9-5-8.2-6.2C23.8,8.2,19.8,9,19.8,9
				c-6.3,1.2-9.6,5.5-11,7.6c0.7,0.2,1.3,0.4,1.9,0.8c0.8,0.5,1.5,1.1,2,1.8c0.9,1.3,1.2,3,1.3,4.6c0.4,3.5,1.1,6.9,2,10.3
				c2.1-7.1,4.7-10.4,4.7-10.4c0.3-0.4,0.6-0.7,1-0.9c0.2-0.1,0.4-0.2,0.7-0.2c0.4,0,0.9,0.1,1.2,0.3c0.1,0,0.1,0.1,0.2,0.1
				c0.3,0.3,0.6,0.6,0.9,1c0.5,1,1,1.9,1.4,3c0.8,2.2,1.5,5,1.5,5l2,8c1.5,5.5,2.7,8.1,2.7,8.1c3.1,7.1,7.8,9.1,7.8,9.1
				c2.3,1.2,4.9,1.9,7.5,2c2.5,0.1,5-0.4,7.2-1.5c2.4-1.2,4.6-3,6.3-5.1c1.1-1.3,2.8-4.5,2.8-4.5c1.9-3.7,3.3-7.6,4.3-11.6
				c0.7-2.5,1.2-5,1.6-7.6c0.2-1.3,0.4-2.5,0.5-3.8c0.2-1.2,0.2-2.4-0.1-3.6c-0.1-0.2-0.1-0.4-0.2-0.6c-0.6-1.5-1.7-2.7-3.1-3.5
				C65.9,16.7,64.7,16.4,63.5,16.4z"/>
			
				<radialGradient id="SVGID_00000139996728570455301120000007187052533107990172_" cx="-485.334" cy="140.5632" r="1" gradientTransform="matrix(5.2356 21.1604 -13.9699 3.4565 4524.1157 9814.3555)" gradientUnits="userSpaceOnUse">
				<stop  offset="0" style="stop-color:#1A3D9C"/>
				<stop  offset="6.000000e-02" style="stop-color:#1A3D9C;stop-opacity:0.88"/>
				<stop  offset="0.21" style="stop-color:#1A3D9C;stop-opacity:0.61"/>
				<stop  offset="0.36" style="stop-color:#1A3D9C;stop-opacity:0.39"/>
				<stop  offset="0.51" style="stop-color:#1A3D9C;stop-opacity:0.22"/>
				<stop  offset="0.67" style="stop-color:#1A3D9C;stop-opacity:0.1"/>
				<stop  offset="0.83" style="stop-color:#1A3D9C;stop-opacity:2.000000e-02"/>
				<stop  offset="1" style="stop-color:#1A3D9C;stop-opacity:0"/>
			</radialGradient>
			<path style="fill:url(#SVGID_00000139996728570455301120000007187052533107990172_);" d="M63.5,16.4c-0.6,0-1.2,0.1-1.7,0.2
				c1.3,1.9,2.4,3.9,3.3,6c0.4,0.9,0.6,1.9,0.6,2.9c0,0.9-0.2,1.8-0.5,2.7c-0.4,0.8-0.9,1.6-1.5,2.3s-1.4,1.2-2.3,1.5
				c-0.8,0.3-1.8,0.5-2.7,0.5c-1.2,0-2.5-0.3-3.5-1l-0.7,2.7c-1.3,4.4-2.2,6-2.2,6c-0.5,1.2-1.1,2.3-1.8,3.4
				c-0.5,0.7-1.1,1.4-1.9,1.7c-0.3,0.1-0.6,0.1-0.9,0.1c-0.3,0-0.6-0.1-0.9-0.3c-0.5-0.4-1-1-1.3-1.6c-0.4-0.7-0.7-1.4-1-2.1
				c-0.6-1.5-1.6-5.2-1.6-5.2l-1-3.9l-1-3.9l-0.7-2.6c-1.8-6.7-4.4-10-4.4-10c-2-2.9-4.9-5-8.2-6.2C23.8,8.2,19.8,9,19.8,9
				c-6.3,1.2-9.6,5.5-11,7.6c0.7,0.2,1.3,0.4,1.9,0.8c0.8,0.5,1.5,1.1,2,1.8c0.9,1.3,1.2,3,1.3,4.6c0.4,3.5,1.1,6.9,2,10.3
				c2.1-7.1,4.7-10.4,4.7-10.4c0.3-0.4,0.6-0.7,1-0.9c0.2-0.1,0.4-0.2,0.7-0.2c0.4,0,0.9,0.1,1.2,0.3c0.1,0,0.1,0.1,0.2,0.1
				c0.3,0.3,0.6,0.6,0.9,1c0.5,1,1,1.9,1.4,3c0.8,2.2,1.5,5,1.5,5l2,8c1.5,5.5,2.7,8.1,2.7,8.1c3.1,7.1,7.8,9.1,7.8,9.1
				c2.3,1.2,4.9,1.9,7.5,2c2.5,0.1,5-0.4,7.2-1.5c2.4-1.2,4.6-3,6.3-5.1c1.1-1.3,2.8-4.5,2.8-4.5c1.9-3.7,3.3-7.6,4.3-11.6
				c0.7-2.5,1.2-5,1.6-7.6c0.2-1.3,0.4-2.5,0.5-3.8c0.2-1.2,0.2-2.4-0.1-3.6c-0.1-0.2-0.1-0.4-0.2-0.6c-0.6-1.5-1.7-2.7-3.1-3.5
				C65.9,16.7,64.7,16.4,63.5,16.4z"/>
			
				<radialGradient id="SVGID_00000098937874107475068850000011762674077769997736_" cx="-485.334" cy="140.5632" r="1" gradientTransform="matrix(5.2356 21.1604 -13.9699 3.4565 4524.1157 9814.3555)" gradientUnits="userSpaceOnUse">
				<stop  offset="0" style="stop-color:#1B3E9E"/>
				<stop  offset="6.000000e-02" style="stop-color:#1B3E9E;stop-opacity:0.87"/>
				<stop  offset="0.21" style="stop-color:#1B3E9D;stop-opacity:0.61"/>
				<stop  offset="0.36" style="stop-color:#1A3D9D;stop-opacity:0.39"/>
				<stop  offset="0.52" style="stop-color:#1A3D9C;stop-opacity:0.22"/>
				<stop  offset="0.67" style="stop-color:#1A3D9C;stop-opacity:0.1"/>
				<stop  offset="0.83" style="stop-color:#1A3D9C;stop-opacity:2.000000e-02"/>
				<stop  offset="1" style="stop-color:#1A3D9C;stop-opacity:0"/>
			</radialGradient>
			<path style="fill:url(#SVGID_00000098937874107475068850000011762674077769997736_);" d="M63.5,16.4c-0.6,0-1.2,0.1-1.7,0.2
				c1.3,1.9,2.4,3.9,3.3,6c0.4,0.9,0.6,1.9,0.6,2.9c0,0.9-0.2,1.8-0.5,2.7c-0.4,0.8-0.9,1.6-1.5,2.3s-1.4,1.2-2.3,1.5
				c-0.8,0.3-1.8,0.5-2.7,0.5c-1.2,0-2.5-0.3-3.5-1l-0.7,2.7c-1.3,4.4-2.2,6-2.2,6c-0.5,1.2-1.1,2.3-1.8,3.4
				c-0.5,0.7-1.1,1.4-1.9,1.7c-0.3,0.1-0.6,0.1-0.9,0.1c-0.3,0-0.6-0.1-0.9-0.3c-0.5-0.4-1-1-1.3-1.6c-0.4-0.7-0.7-1.4-1-2.1
				c-0.6-1.5-1.6-5.2-1.6-5.2l-1-3.9l-1-3.9l-0.7-2.6c-1.8-6.7-4.4-10-4.4-10c-2-2.9-4.9-5-8.2-6.2C23.8,8.2,19.8,9,19.8,9
				c-6.3,1.2-9.6,5.5-11,7.6c0.7,0.2,1.3,0.4,1.9,0.8c0.8,0.5,1.5,1.1,2,1.8c0.9,1.3,1.2,3,1.3,4.6c0.4,3.5,1.1,6.9,2,10.3
				c2.1-7.1,4.7-10.4,4.7-10.4c0.3-0.4,0.6-0.7,1-0.9c0.2-0.1,0.4-0.2,0.7-0.2c0.4,0,0.9,0.1,1.2,0.3c0.1,0,0.1,0.1,0.2,0.1
				c0.3,0.3,0.6,0.6,0.9,1c0.5,1,1,1.9,1.4,3c0.8,2.2,1.5,5,1.5,5l2,8c1.5,5.5,2.7,8.1,2.7,8.1c3.1,7.1,7.8,9.1,7.8,9.1
				c2.3,1.2,4.9,1.9,7.5,2c2.5,0.1,5-0.4,7.2-1.5c2.4-1.2,4.6-3,6.3-5.1c1.1-1.3,2.8-4.5,2.8-4.5c1.9-3.7,3.3-7.6,4.3-11.6
				c0.7-2.5,1.2-5,1.6-7.6c0.2-1.3,0.4-2.5,0.5-3.8c0.2-1.2,0.2-2.4-0.1-3.6c-0.1-0.2-0.1-0.4-0.2-0.6c-0.6-1.5-1.7-2.7-3.1-3.5
				C65.9,16.7,64.7,16.4,63.5,16.4z"/>
			
				<radialGradient id="SVGID_00000171700887370027907510000000777884999742665912_" cx="-474.3803" cy="133.2145" r="1" gradientTransform="matrix(4.0054 16.1886 -10.6876 2.6444 3344.1145 7355.4995)" gradientUnits="userSpaceOnUse">
				<stop  offset="0" style="stop-color:#183991"/>
				<stop  offset="3.000000e-02" style="stop-color:#183992;stop-opacity:0.95"/>
				<stop  offset="0.18" style="stop-color:#193A95;stop-opacity:0.66"/>
				<stop  offset="0.34" style="stop-color:#193B97;stop-opacity:0.42"/>
				<stop  offset="0.5" style="stop-color:#1A3C99;stop-opacity:0.24"/>
				<stop  offset="0.66" style="stop-color:#1A3D9B;stop-opacity:0.1"/>
				<stop  offset="0.82" style="stop-color:#1A3D9C;stop-opacity:3.000000e-02"/>
				<stop  offset="1" style="stop-color:#1A3D9C;stop-opacity:0"/>
			</radialGradient>
			<path style="fill:url(#SVGID_00000171700887370027907510000000777884999742665912_);" d="M63.5,16.4c-0.6,0-1.2,0.1-1.7,0.2
				c1.3,1.9,2.4,3.9,3.3,6c0.4,0.9,0.6,1.9,0.6,2.9c0,0.9-0.2,1.8-0.5,2.7c-0.4,0.8-0.9,1.6-1.5,2.3s-1.4,1.2-2.3,1.5
				c-0.8,0.3-1.8,0.5-2.7,0.5c-1.2,0-2.5-0.3-3.5-1l-0.7,2.7c-1.3,4.4-2.2,6-2.2,6c-0.5,1.2-1.1,2.3-1.8,3.4
				c-0.5,0.7-1.1,1.4-1.9,1.7c-0.3,0.1-0.6,0.1-0.9,0.1c-0.3,0-0.6-0.1-0.9-0.3c-0.5-0.4-1-1-1.3-1.6c-0.4-0.7-0.7-1.4-1-2.1
				c-0.6-1.5-1.6-5.2-1.6-5.2l-1-3.9l-1-3.9l-0.7-2.6c-1.8-6.7-4.4-10-4.4-10c-2-2.9-4.9-5-8.2-6.2C23.8,8.2,19.8,9,19.8,9
				c-6.3,1.2-9.6,5.5-11,7.6c0.7,0.2,1.3,0.4,1.9,0.8c0.8,0.5,1.5,1.1,2,1.8c0.9,1.3,1.2,3,1.3,4.6c0.4,3.5,1.1,6.9,2,10.3
				c2.1-7.1,4.7-10.4,4.7-10.4c0.3-0.4,0.6-0.7,1-0.9c0.2-0.1,0.4-0.2,0.7-0.2c0.4,0,0.9,0.1,1.2,0.3c0.1,0,0.1,0.1,0.2,0.1
				c0.3,0.3,0.6,0.6,0.9,1c0.5,1,1,1.9,1.4,3c0.8,2.2,1.5,5,1.5,5l2,8c1.5,5.5,2.7,8.1,2.7,8.1c3.1,7.1,7.8,9.1,7.8,9.1
				c2.3,1.2,4.9,1.9,7.5,2c2.5,0.1,5-0.4,7.2-1.5c2.4-1.2,4.6-3,6.3-5.1c1.1-1.3,2.8-4.5,2.8-4.5c1.9-3.7,3.3-7.6,4.3-11.6
				c0.7-2.5,1.2-5,1.6-7.6c0.2-1.3,0.4-2.5,0.5-3.8c0.2-1.2,0.2-2.4-0.1-3.6c-0.1-0.2-0.1-0.4-0.2-0.6c-0.6-1.5-1.7-2.7-3.1-3.5
				C65.9,16.7,64.7,16.4,63.5,16.4z"/>
			
				<radialGradient id="SVGID_00000010287233209226695520000006414352201974715837_" cx="-468.095" cy="122.5278" r="1" gradientTransform="matrix(0.6581 13.1615 -11.586 0.5793 1750.889 6119.7637)" gradientUnits="userSpaceOnUse">
				<stop  offset="4.000000e-02" style="stop-color:#2453D6;stop-opacity:0.6"/>
				<stop  offset="0.2" style="stop-color:#2453D6;stop-opacity:0.49"/>
				<stop  offset="0.52" style="stop-color:#2453D6;stop-opacity:0.2"/>
				<stop  offset="0.73" style="stop-color:#2453D6;stop-opacity:0"/>
			</radialGradient>
			<path style="fill:url(#SVGID_00000010287233209226695520000006414352201974715837_);" d="M63.5,16.4c-0.6,0-1.2,0.1-1.7,0.2
				c1.3,1.9,2.4,3.9,3.3,6c0.4,0.9,0.6,1.9,0.6,2.9c0,0.9-0.2,1.8-0.5,2.7c-0.4,0.8-0.9,1.6-1.5,2.3s-1.4,1.2-2.3,1.5
				c-0.8,0.3-1.8,0.5-2.7,0.5c-1.2,0-2.5-0.3-3.5-1l-0.7,2.7c-1.3,4.4-2.2,6-2.2,6c-0.5,1.2-1.1,2.3-1.8,3.4
				c-0.5,0.7-1.1,1.4-1.9,1.7c-0.3,0.1-0.6,0.1-0.9,0.1c-0.3,0-0.6-0.1-0.9-0.3c-0.5-0.4-1-1-1.3-1.6c-0.4-0.7-0.7-1.4-1-2.1
				c-0.6-1.5-1.6-5.2-1.6-5.2l-1-3.9l-1-3.9l-0.7-2.6c-1.8-6.7-4.4-10-4.4-10c-2-2.9-4.9-5-8.2-6.2C23.8,8.2,19.8,9,19.8,9
				c-6.3,1.2-9.6,5.5-11,7.6c0.7,0.2,1.3,0.4,1.9,0.8c0.8,0.5,1.5,1.1,2,1.8c0.9,1.3,1.2,3,1.3,4.6c0.4,3.5,1.1,6.9,2,10.3
				c2.1-7.1,4.7-10.4,4.7-10.4c0.3-0.4,0.6-0.7,1-0.9c0.2-0.1,0.4-0.2,0.7-0.2c0.4,0,0.9,0.1,1.2,0.3c0.1,0,0.1,0.1,0.2,0.1
				c0.3,0.3,0.6,0.6,0.9,1c0.5,1,1,1.9,1.4,3c0.8,2.2,1.5,5,1.5,5l2,8c1.5,5.5,2.7,8.1,2.7,8.1c3.1,7.1,7.8,9.1,7.8,9.1
				c2.3,1.2,4.9,1.9,7.5,2c2.5,0.1,5-0.4,7.2-1.5c2.4-1.2,4.6-3,6.3-5.1c1.1-1.3,2.8-4.5,2.8-4.5c1.9-3.7,3.3-7.6,4.3-11.6
				c0.7-2.5,1.2-5,1.6-7.6c0.2-1.3,0.4-2.5,0.5-3.8c0.2-1.2,0.2-2.4-0.1-3.6c-0.1-0.2-0.1-0.4-0.2-0.6c-0.6-1.5-1.7-2.7-3.1-3.5
				C65.9,16.7,64.7,16.4,63.5,16.4z"/>
			
				<linearGradient id="SVGID_00000176022158699674376950000011045960105158063500_" gradientUnits="userSpaceOnUse" x1="49.7925" y1="827.0804" x2="34.9004" y2="863.891" gradientTransform="matrix(1 0 0 1 0 -827.7244)">
				<stop  offset="0" style="stop-color:#3774FF"/>
				<stop  offset="5.000000e-02" style="stop-color:#3774FF;stop-opacity:0.91"/>
				<stop  offset="0.16" style="stop-color:#3774FF;stop-opacity:0.66"/>
				<stop  offset="0.32" style="stop-color:#3774FF;stop-opacity:0.28"/>
				<stop  offset="0.43" style="stop-color:#3774FF;stop-opacity:0"/>
			</linearGradient>
			<path style="fill:url(#SVGID_00000176022158699674376950000011045960105158063500_);" d="M63.5,16.4c-0.6,0-1.2,0.1-1.7,0.2
				c1.3,1.9,2.4,3.9,3.3,6c0.4,0.9,0.6,1.9,0.6,2.9c0,0.9-0.2,1.8-0.5,2.7c-0.4,0.8-0.9,1.6-1.5,2.3s-1.4,1.2-2.3,1.5
				c-0.8,0.3-1.8,0.5-2.7,0.5c-1.2,0-2.5-0.3-3.5-1l-0.7,2.7c-1.3,4.4-2.2,6-2.2,6c-0.5,1.2-1.1,2.3-1.8,3.4
				c-0.5,0.7-1.1,1.4-1.9,1.7c-0.3,0.1-0.6,0.1-0.9,0.1c-0.3,0-0.6-0.1-0.9-0.3c-0.5-0.4-1-1-1.3-1.6c-0.4-0.7-0.7-1.4-1-2.1
				c-0.6-1.5-1.6-5.2-1.6-5.2l-1-3.9l-1-3.9l-0.7-2.6c-1.8-6.7-4.4-10-4.4-10c-2-2.9-4.9-5-8.2-6.2C23.8,8.2,19.8,9,19.8,9
				c-6.3,1.2-9.6,5.5-11,7.6c0.7,0.2,1.3,0.4,1.9,0.8c0.8,0.5,1.5,1.1,2,1.8c0.9,1.3,1.2,3,1.3,4.6c0.4,3.5,1.1,6.9,2,10.3
				c2.1-7.1,4.7-10.4,4.7-10.4c0.3-0.4,0.6-0.7,1-0.9c0.2-0.1,0.4-0.2,0.7-0.2c0.4,0,0.9,0.1,1.2,0.3c0.1,0,0.1,0.1,0.2,0.1
				c0.3,0.3,0.6,0.6,0.9,1c0.5,1,1,1.9,1.4,3c0.8,2.2,1.5,5,1.5,5l2,8c1.5,5.5,2.7,8.1,2.7,8.1c3.1,7.1,7.8,9.1,7.8,9.1
				c2.3,1.2,4.9,1.9,7.5,2c2.5,0.1,5-0.4,7.2-1.5c2.4-1.2,4.6-3,6.3-5.1c1.1-1.3,2.8-4.5,2.8-4.5c1.9-3.7,3.3-7.6,4.3-11.6
				c0.7-2.5,1.2-5,1.6-7.6c0.2-1.3,0.4-2.5,0.5-3.8c0.2-1.2,0.2-2.4-0.1-3.6c-0.1-0.2-0.1-0.4-0.2-0.6c-0.6-1.5-1.7-2.7-3.1-3.5
				C65.9,16.7,64.7,16.4,63.5,16.4z"/>
		</g>
	</g>
</g>
</svg>
