<svg width="48" height="48" viewBox="0 0 48 48" fill="none" xmlns="http://www.w3.org/2000/svg">
<g clip-path="url(#clip0_2003_71849)">
<path d="M0.230713 16.7029C0.230713 11.0742 0.230713 8.25984 1.32613 6.10998C2.28968 4.2189 3.82717 2.6814 5.71825 1.71785C7.86812 0.622437 10.6825 0.622437 16.3111 0.622437H31.0515C36.6802 0.622437 39.4945 0.622437 41.6444 1.71785C43.5355 2.6814 45.073 4.2189 46.0365 6.10998C47.1319 8.25984 47.1319 11.0742 47.1319 16.7029V31.4432C47.1319 37.0719 47.1319 39.8863 46.0365 42.0361C45.073 43.9272 43.5355 45.4647 41.6444 46.4282C39.4945 47.5237 36.6802 47.5237 31.0515 47.5237H16.3111C10.6825 47.5237 7.86812 47.5237 5.71825 46.4282C3.82717 45.4647 2.28968 43.9272 1.32613 42.0361C0.230713 39.8863 0.230713 37.0719 0.230713 31.4432V16.7029Z" fill="#4087FC"/>
<path d="M10.7277 14.0231C9.55588 14.0231 8.60596 15.0944 8.60596 16.416V28.0217C8.60596 31.3917 11.0283 34.1236 14.0163 34.1236L26.5848 34.004C27.7566 34.004 28.7065 32.9326 28.7065 31.6111V19.8858C28.7065 16.5158 25.8319 14.0231 22.8438 14.0231L10.7277 14.0231Z" fill="white"/>
<path d="M31.5745 18.5919C30.8163 19.3416 30.3815 20.4236 30.3815 21.5608V26.4172C30.3815 27.5544 30.8163 28.6364 31.5745 29.3861L36.2924 33.5414C37.2524 34.4907 38.7567 33.7218 38.7567 32.2819V15.9245C38.7567 14.4846 37.2524 13.7158 36.2924 14.665L31.5745 18.5919Z" fill="white"/>
</g>
<defs>
<clipPath id="clip0_2003_71849">
<rect width="48" height="48" fill="white"/>
</clipPath>
</defs>
</svg>
